<?xml version="1.0" encoding="UTF-8"?>
<svg viewBox="0 -2 128 130"  version="1.1" xmlns="http://www.w3.org/2000/svg" width="100%" height="100%">
<path d="M0 0 C5.3397146 3.06979544 8.74981984 7.13273702 11.1875 12.75 C11.89639298 17.39718734 11.94172138 21.8625696 10.75 26.4375 C9.19921875 28.234375 9.19921875 28.234375 7.75 29.4375 C8.41 29.953125 9.07 30.46875 9.75 31 C11.75 33.4375 11.75 33.4375 12.1875 37 C11.75 40.4375 11.75 40.4375 10.5625 42.3125 C8.75 43.4375 8.75 43.4375 6.4375 43.6875 C2.25626996 44.85435489 0.30754407 48.0713853 -2.25 51.4375 C-1.198125 51.499375 -0.14625 51.56125 0.9375 51.625 C8.14733473 53.16152215 11.98274979 60.10318164 16.125 65.8125 C16.68316406 66.54210937 17.24132812 67.27171875 17.81640625 68.0234375 C21.79963957 73.53111815 21.79963957 73.53111815 21.5390625 78.2890625 C21.27867188 79.32804687 21.01828125 80.36703125 20.75 81.4375 C21.08 82.4275 21.41 83.4175 21.75 84.4375 C22.41 84.4375 23.07 84.4375 23.75 84.4375 C23.935625 83.839375 24.12125 83.24125 24.3125 82.625 C26.44556748 79.37902775 29.17306044 78.71497841 32.75 77.4375 C33.41 77.4375 34.07 77.4375 34.75 77.4375 C34.70875 76.48875 34.6675 75.54 34.625 74.5625 C34.75 71.4375 34.75 71.4375 36.75 69.4375 C38.4 69.4375 40.05 69.4375 41.75 69.4375 C41.75 62.5075 41.75 55.5775 41.75 48.4375 C40.76 48.9325 40.76 48.9325 39.75 49.4375 C34.21153846 49.66826923 34.21153846 49.66826923 31.75 48.4375 C30.80125 48.52 29.8525 48.6025 28.875 48.6875 C25.75 48.4375 25.75 48.4375 23.4375 46.0625 C19.81199287 40.42282224 20.41037451 35.02465479 20.75 28.4375 C21.36568542 26.09019935 22.02359045 23.75293043 22.75 21.4375 C22.76857615 20.0416348 22.74625328 18.64475187 22.6875 17.25 C22.75 13.4375 22.75 13.4375 23.67944336 11.22802734 C27.04107304 8.32103617 30.64506988 8.90600471 34.94140625 8.9765625 C36.29298073 8.97793716 36.29298073 8.97793716 37.67185974 8.9793396 C39.57580842 8.98538012 41.47974739 9.00113966 43.38354492 9.02587891 C46.30487898 9.06240471 49.22494578 9.06689822 52.14648438 9.06640625 C53.99480268 9.07623651 55.84311236 9.08789311 57.69140625 9.1015625 C58.56849747 9.10378815 59.44558868 9.10601379 60.34925842 9.10830688 C66.51785729 9.20535729 66.51785729 9.20535729 68.75 11.4375 C69.08870968 17.76008065 69.08870968 17.76008065 67.75 20.4375 C67.62511166 23.05434643 67.56483037 25.63298918 67.5625 28.25 C67.55025391 28.96220703 67.53800781 29.67441406 67.52539062 30.40820312 C67.51381263 34.58014154 68.0078735 37.66289259 69.75 41.4375 C70.06188316 44.55633164 70.19659582 46.5722206 68.75 49.375 C65.44299707 51.1318453 62.38093482 50.02313465 58.75 49.4375 C58.42 49.7675 58.09 50.0975 57.75 50.4375 C55.41702567 50.47842937 53.08294775 50.47991723 50.75 50.4375 C50.642166 53.37597653 50.56278084 56.31051151 50.5 59.25 C50.46648437 60.08337891 50.43296875 60.91675781 50.3984375 61.77539062 C50.36170928 64.0617222 50.36678215 66.18236619 50.75 68.4375 C52.60440797 70.30839684 52.60440797 70.30839684 54.75 71.4375 C56.3171923 75.51386721 56.20209702 80.13874702 55.75 84.4375 C54.5910416 86.85619578 53.62677904 88.56072096 51.75 90.4375 C51.59028023 92.81088639 51.4907567 95.15868272 51.43359375 97.53515625 C51.4024221 98.59844398 51.4024221 98.59844398 51.37062073 99.68321228 C51.30505402 101.95537305 51.2462077 104.22765264 51.1875 106.5 C51.14432151 108.03712183 51.10070745 109.5742315 51.05664062 111.11132812 C50.94936551 114.8865959 50.84811863 118.6619836 50.75 122.4375 C47.78 122.4375 44.81 122.4375 41.75 122.4375 C41.42 112.8675 41.09 103.2975 40.75 93.4375 C37.78 95.7475 34.81 98.0575 31.75 100.4375 C27.8125 100.8125 27.8125 100.8125 24.75 100.4375 C23.76 100.9325 23.76 100.9325 22.75 101.4375 C19.57543814 101.95428914 17.56056245 101.97511795 14.8359375 100.16796875 C10.12199198 96.18148396 10.12199198 96.18148396 8.75 93.4375 C8.42 103.0075 8.09 112.5775 7.75 122.4375 C1.9834153 122.5293571 -3.7806297 122.60898553 -9.54736328 122.65722656 C-11.50871381 122.67733632 -13.47000444 122.70462818 -15.43115234 122.73925781 C-18.25112695 122.78780421 -21.07030865 122.81047486 -23.890625 122.828125 C-25.20489471 122.85909271 -25.20489471 122.85909271 -26.54571533 122.89068604 C-32.59001591 122.89291153 -32.59001591 122.89291153 -35.82714844 120.65917969 C-37.25 118.4375 -37.25 118.4375 -37.375 114.5 C-37.4040376 112.36959003 -37.4040376 112.36959003 -38.25 110.4375 C-40.74316697 108.86081078 -43.28670581 107.79708877 -46.00390625 106.65625 C-48.25 105.4375 -48.25 105.4375 -49.1875 102.3125 C-49.208125 101.36375 -49.22875 100.415 -49.25 99.4375 C-49.745 98.963125 -50.24 98.48875 -50.75 98 C-53.3310318 95.31142521 -53.25 93.09325355 -53.25 89.4375 C-50.67830122 82.29073489 -45.18784813 75.96916744 -40.73046875 69.8828125 C-38.59274896 66.95307442 -36.64326731 63.92946176 -34.6875 60.875 C-31.44279574 56.21888774 -27.66049123 53.25374264 -22.25 51.4375 C-19.4765625 51.3203125 -19.4765625 51.3203125 -17.25 51.4375 C-19.87918859 47.85224283 -21.74601428 45.38099654 -25.9375 43.75 C-29.25 42.4375 -29.25 42.4375 -31.25 39.4375 C-30.95295038 35.27880536 -30.58061852 32.93342778 -28.25 29.4375 C-28.68570312 29.84742187 -29.12140625 30.25734375 -29.5703125 30.6796875 C-33.25521403 34.01364603 -36.23617591 36.49740798 -41.25 37.4375 C-45.125 37.0625 -45.125 37.0625 -48.25 36.4375 C-48.25 35.1175 -48.25 33.7975 -48.25 32.4375 C-47.59 32.4375 -46.93 32.4375 -46.25 32.4375 C-46.21261719 31.39851563 -46.17523438 30.35953125 -46.13671875 29.2890625 C-45.21534193 8.20370838 -45.21534193 8.20370838 -37.25 0.4375 C-32.6563917 -1.09370277 -28.09314937 -1.41664239 -23.6875 0.625 C-20.4983744 1.68804187 -19.1732063 0.6009511 -16.265625 -0.80859375 C-10.94400946 -2.79904297 -5.13609915 -2.27834608 0 0 Z M-31.25 84.4375 C-33.23 87.4075 -33.23 87.4075 -35.25 90.4375 C-34.5075 90.705625 -33.765 90.97375 -33 91.25 C-30.38363446 92.37979421 -28.44812889 93.64643202 -26.25 95.4375 C-26.70822468 91.96808454 -27.14131683 88.76354951 -28.25 85.4375 C-29.24 85.1075 -30.23 84.7775 -31.25 84.4375 Z " fill="#392E3B" transform="translate(56.25,3.5625)"/>
<path d="M0 0 C1.32 0 2.64 0 4 0 C4.04898438 0.97582031 4.09796875 1.95164063 4.1484375 2.95703125 C4.22320312 4.22933594 4.29796875 5.50164063 4.375 6.8125 C4.44460937 8.07707031 4.51421875 9.34164062 4.5859375 10.64453125 C4.76102939 14.12755234 4.76102939 14.12755234 7 17 C11.55777313 17.56265288 11.55777313 17.56265288 15.6796875 15.89453125 C17.61935609 13.11127898 17.52145476 10.66661384 17.6875 7.3125 C17.75324219 6.13300781 17.81898437 4.95351563 17.88671875 3.73828125 C17.92410156 2.83464844 17.96148437 1.93101563 18 1 C19.32 1 20.64 1 22 1 C22.02578125 2.15757813 22.0515625 3.31515625 22.078125 4.5078125 C22.13443349 6.04691128 22.1917802 7.58597233 22.25 9.125 C22.26417969 9.88554688 22.27835938 10.64609375 22.29296875 11.4296875 C22.5240756 16.79136634 23.76445196 19.58382792 27 24 C27.84363899 27.7332686 27.47771451 31.04457098 25.75 34.5 C24 36 24 36 20 36 C20 36.99 20 37.98 20 39 C21.65 39 23.3 39 25 39 C25 47.58 25 56.16 25 65 C15.76 65 6.52 65 -3 65 C-3 56.42 -3 47.84 -3 39 C-1.02 39 0.96 39 3 39 C3 38.01 3 37.02 3 36 C2.236875 36.0825 1.47375 36.165 0.6875 36.25 C-2 36 -2 36 -3.8125 34.5625 C-5.55598253 30.80024821 -5.86993693 27.06198895 -5 23 C-4.01966797 21.90945312 -4.01966797 21.90945312 -3.01953125 20.796875 C-0.16980687 16.85025477 -0.33257698 13.44318363 -0.25 8.6875 C-0.22035156 7.85154297 -0.19070312 7.01558594 -0.16015625 6.15429688 C-0.08983893 4.10337515 -0.04261027 2.05168438 0 0 Z " fill="#9CC1F7" transform="translate(36,58)"/>
<path d="M0 0 C12.21 0 24.42 0 37 0 C37.495 1.98 37.495 1.98 38 4 C36.35 4.33 34.7 4.66 33 5 C33 5.99 33 6.98 33 8 C33.99 8 34.98 8 36 8 C35.96519531 8.82242187 35.93039063 9.64484375 35.89453125 10.4921875 C35.73326953 17.14231385 36.09058482 22.6969077 38.34375 28.9765625 C39 31 39 31 39 34 C36.75 34.375 36.75 34.375 34 34 C30.570047 29.98205506 29.37855553 26.02188085 28 21 C27.34 20.67 26.68 20.34 26 20 C26.13277344 20.59167969 26.26554687 21.18335937 26.40234375 21.79296875 C27.31005178 25.85446525 28.2091113 29.91374171 29 34 C27.1875 34.625 27.1875 34.625 25 35 C24.01 34.34 23.02 33.68 22 33 C21.65942383 30.47802734 21.65942383 30.47802734 21.70703125 27.3359375 C21.71669922 26.21445312 21.72636719 25.09296875 21.73632812 23.9375 C21.76146484 22.761875 21.78660156 21.58625 21.8125 20.375 C21.83280273 18.59996094 21.83280273 18.59996094 21.85351562 16.7890625 C21.88896084 13.85892461 21.93837231 10.92968541 22 8 C23.32 8 24.64 8 26 8 C26 10.31 26 12.62 26 15 C26.99 15 27.98 15 29 15 C29 11.7 29 8.4 29 5 C24.545 5.495 24.545 5.495 20 6 C19.67 22.17 19.34 38.34 19 55 C19.66 55.33 20.32 55.66 21 56 C19.02 56.495 19.02 56.495 17 57 C17 39.84 17 22.68 17 5 C14.69 5.33 12.38 5.66 10 6 C8.9458482 9.16245541 8.68724328 11.86948218 8.4375 15.1875 C8.35371094 16.27417969 8.26992187 17.36085938 8.18359375 18.48046875 C8.12300781 19.31191406 8.06242187 20.14335938 8 21 C8.99 21 9.98 21 11 21 C11 16.71 11 12.42 11 8 C11.99 8 12.98 8 14 8 C14 17.24 14 26.48 14 36 C13.34 36 12.68 36 12 36 C12 35.34 12 34.68 12 34 C11.236875 33.9175 10.47375 33.835 9.6875 33.75 C7 33 7 33 5.25 31.25 C3.89922065 28.81859716 3.51325178 26.71290226 3 24 C2.34 23.67 1.68 23.34 1 23 C1.33 26.3 1.66 29.6 2 33 C-2 31 -2 31 -3.25 28.875 C-4.99236552 22.19593218 -4.48478859 15.06327684 -1 9 C2.1875 7.4375 2.1875 7.4375 5 7 C5 6.67 5 6.34 5 6 C2.03 5.505 2.03 5.505 -1 5 C-0.67 3.35 -0.34 1.7 0 0 Z " fill="#F1DCD2" transform="translate(84,16)"/>
<path d="M0 0 C1.35157448 0.00137466 1.35157448 0.00137466 2.73045349 0.0027771 C4.63440217 0.00881762 6.53834114 0.02457716 8.44213867 0.04931641 C11.36347273 0.08584221 14.28353953 0.09033572 17.20507812 0.08984375 C19.05339643 0.09967401 20.90170611 0.11133061 22.75 0.125 C23.62709122 0.12722565 24.50418243 0.12945129 25.40785217 0.13174438 C31.57645104 0.22879479 31.57645104 0.22879479 33.80859375 2.4609375 C34.14730343 8.78351815 34.14730343 8.78351815 32.80859375 11.4609375 C32.68370541 14.07778393 32.62342412 16.65642668 32.62109375 19.2734375 C32.60272461 20.34174805 32.60272461 20.34174805 32.58398438 21.43164062 C32.57240638 25.60357904 33.06646725 28.68633009 34.80859375 32.4609375 C35.12047691 35.57976914 35.25518957 37.5956581 33.80859375 40.3984375 C30.50159082 42.1552828 27.43952857 41.04657215 23.80859375 40.4609375 C23.47859375 40.7909375 23.14859375 41.1209375 22.80859375 41.4609375 C20.49859375 41.4609375 18.18859375 41.4609375 15.80859375 41.4609375 C15.80859375 47.0709375 15.80859375 52.6809375 15.80859375 58.4609375 C14.81859375 58.9559375 14.81859375 58.9559375 13.80859375 59.4609375 C13.14859375 59.1309375 12.48859375 58.8009375 11.80859375 58.4609375 C11.78332537 51.50090303 11.76576153 44.5408803 11.75366211 37.58081055 C11.74862034 35.21101438 11.7417871 32.84122135 11.7331543 30.47143555 C11.72108185 27.07339711 11.71536404 23.67539965 11.7109375 20.27734375 C11.70577621 19.21068985 11.70061493 18.14403595 11.69529724 17.0450592 C11.69518394 15.57364723 11.69518394 15.57364723 11.69506836 14.07250977 C11.69284775 13.20425064 11.69062714 12.33599152 11.68833923 11.44142151 C11.80859375 9.4609375 11.80859375 9.4609375 12.80859375 8.4609375 C15.81190393 8.31900413 18.80076509 8.41857372 21.80859375 8.4609375 C21.80859375 11.7609375 21.80859375 15.0609375 21.80859375 18.4609375 C20.81859375 18.4609375 19.82859375 18.4609375 18.80859375 18.4609375 C18.80859375 16.1509375 18.80859375 13.8409375 18.80859375 11.4609375 C17.48859375 11.4609375 16.16859375 11.4609375 14.80859375 11.4609375 C14.80859375 19.7109375 14.80859375 27.9609375 14.80859375 36.4609375 C16.78859375 36.7909375 18.76859375 37.1209375 20.80859375 37.4609375 C20.15274186 33.85101371 20.15274186 33.85101371 18.80859375 30.4609375 C18.76836984 28.1279509 18.76539128 25.79387084 18.80859375 23.4609375 C19.79859375 23.7909375 20.78859375 24.1209375 21.80859375 24.4609375 C22.89707661 27.22879391 23.65758092 30.02982556 24.453125 32.89453125 C25.62988255 35.77311828 25.62988255 35.77311828 28.9453125 36.80859375 C29.89019531 37.02386719 30.83507812 37.23914062 31.80859375 37.4609375 C31.51984375 36.65011719 31.23109375 35.83929688 30.93359375 35.00390625 C28.48489542 27.70032339 26.95042361 21.18446875 27.80859375 13.4609375 C28.13859375 12.8009375 28.46859375 12.1409375 28.80859375 11.4609375 C27.81859375 11.4609375 26.82859375 11.4609375 25.80859375 11.4609375 C25.80859375 10.4709375 25.80859375 9.4809375 25.80859375 8.4609375 C27.12859375 8.1309375 28.44859375 7.8009375 29.80859375 7.4609375 C29.80859375 6.4709375 29.80859375 5.4809375 29.80859375 4.4609375 C17.59859375 4.4609375 5.38859375 4.4609375 -7.19140625 4.4609375 C-7.52140625 5.7809375 -7.85140625 7.1009375 -8.19140625 8.4609375 C-6.21140625 8.4609375 -4.23140625 8.4609375 -2.19140625 8.4609375 C-2.19140625 9.4509375 -2.19140625 10.4409375 -2.19140625 11.4609375 C-3.84140625 11.7909375 -5.49140625 12.1209375 -7.19140625 12.4609375 C-9.9590048 19.57761948 -11.77603965 25.49935399 -8.81640625 32.8984375 C-7.4441496 35.54950322 -7.4441496 35.54950322 -5.19140625 36.4609375 C-5.52140625 33.1609375 -5.85140625 29.8609375 -6.19140625 26.4609375 C-5.20140625 26.7909375 -4.21140625 27.1209375 -3.19140625 27.4609375 C-2.47478555 29.77941624 -1.80898598 32.11413453 -1.19140625 34.4609375 C0.94714225 36.599486 1.94134689 36.88748813 4.80859375 37.4609375 C4.80859375 38.4509375 4.80859375 39.4409375 4.80859375 40.4609375 C-0.94140625 40.5859375 -0.94140625 40.5859375 -3.19140625 39.4609375 C-4.14015625 39.5434375 -5.08890625 39.6259375 -6.06640625 39.7109375 C-9.19140625 39.4609375 -9.19140625 39.4609375 -11.50390625 37.0859375 C-15.12941338 31.44625974 -14.53103174 26.04809229 -14.19140625 19.4609375 C-13.57572083 17.11363685 -12.9178158 14.77636793 -12.19140625 12.4609375 C-12.1728301 11.0650723 -12.19515297 9.66818937 -12.25390625 8.2734375 C-12.19140625 4.4609375 -12.19140625 4.4609375 -11.26196289 2.25146484 C-7.90033321 -0.65552633 -4.29633637 -0.07055779 0 0 Z " fill="#362C3A" transform="translate(91.19140625,12.5390625)"/>
<path d="M0 0 C5.03359633 2.3843351 8.49996787 5.99993573 11 11 C11.07181821 13.71760108 11.09299506 16.40859388 11.0625 19.125 C11.05798828 19.87910156 11.05347656 20.63320313 11.04882812 21.41015625 C11.03703499 23.27347127 11.01909942 25.13674555 11 27 C8.53352921 27.89486468 7.33374346 28.11463103 4.81640625 27.25 C-1.92021248 23.51392029 -5.55852399 19.7752943 -8.3125 12.5625 C-8.539375 11.716875 -8.76625 10.87125 -9 10 C-13.69008081 11.34002309 -16.47291815 13.91424358 -19 18 C-19.90930575 20.33888437 -20.45805834 22.53662882 -21 25 C-23.98201229 20.52698157 -23.60189295 16.24399237 -23 11 C-21.375 7.625 -21.375 7.625 -19 5 C-18.195625 4.05125 -17.39125 3.1025 -16.5625 2.125 C-11.89245581 -1.56564874 -5.57882057 -0.767532 0 0 Z " fill="#FAC05E" transform="translate(53,6)"/>
<path d="M0 0 C0.99 0 1.98 0 3 0 C3.30292969 0.60328125 3.60585938 1.2065625 3.91796875 1.828125 C7.73443857 9.10877512 11.48545353 12.50486211 19 16 C18.88192841 20.92680554 18.74997195 24.07695761 15.5625 28 C11.62539401 31.07286321 9.14880228 31.34415662 4.2578125 31.28125 C0.8492497 30.85665394 -0.74615278 29.52704082 -3 27 C-5.10799511 22.84359974 -5.32839879 19.18999968 -5.375 14.5625 C-5.40335938 13.28503906 -5.43171875 12.00757813 -5.4609375 10.69140625 C-4.89700036 6.17513003 -3.2238195 3.2238195 0 0 Z " fill="#F4C8B6" transform="translate(40,20)"/>
<path d="M0 0 C-0.33 4.95 -0.66 9.9 -1 15 C-0.01 15 0.98 15 2 15 C2 10.71 2 6.42 2 2 C2.99 2 3.98 2 5 2 C5 11.24 5 20.48 5 30 C4.34 30 3.68 30 3 30 C3 29.34 3 28.68 3 28 C2.236875 27.9175 1.47375 27.835 0.6875 27.75 C-2 27 -2 27 -3.75 25.25 C-5.10077935 22.81859716 -5.48674822 20.71290226 -6 18 C-6.66 17.67 -7.32 17.34 -8 17 C-7.67 20.3 -7.34 23.6 -7 27 C-11 25 -11 25 -12.25 22.875 C-13.98940848 16.20726748 -13.52055197 9.03523196 -10 3 C-6.91061415 0.69209 -3.85610493 0 0 0 Z " fill="#E7E4ED" transform="translate(93,22)"/>
<path d="M0 0 C4.73267465 4.3024315 9.02472345 9.31740658 12 15 C11.68995772 18.82385478 9.78420492 20.48523426 7 23 C7.7425 22.87625 8.485 22.7525 9.25 22.625 C10.1575 22.74875 11.065 22.8725 12 23 C13.38123963 24.96722008 14.71488126 26.96868328 16 29 C18.12119128 29.95231597 18.12119128 29.95231597 20 30 C20.33 32.31 20.66 34.62 21 37 C17.47427193 39.35048538 16.14986355 39.66397817 12 39 C10.26526288 37.05874656 8.5954349 35.05727132 7 33 C4.83468832 32.05563651 4.83468832 32.05563651 3 32 C3.165 31.319375 3.33 30.63875 3.5 29.9375 C4.55720268 23.72643426 4.35104197 20.47606781 0.890625 15.17578125 C-1.04195529 10.45452151 -0.27113838 5.00852838 0 0 Z " fill="#F9CBB8" transform="translate(61,62)"/>
<path d="M0 0 C1.32 0 2.64 0 4 0 C4 0.66 4 1.32 4 2 C4.99 2 5.98 2 7 2 C6.96519531 2.82242187 6.93039063 3.64484375 6.89453125 4.4921875 C6.73326953 11.14231385 7.09058482 16.6969077 9.34375 22.9765625 C10 25 10 25 10 28 C7.75 28.375 7.75 28.375 5 28 C1.570047 23.98205506 0.37855553 20.02188085 -1 15 C-1.66 14.67 -2.32 14.34 -3 14 C-2.86722656 14.59167969 -2.73445313 15.18335938 -2.59765625 15.79296875 C-1.68994822 19.85446525 -0.7908887 23.91374171 0 28 C-1.8125 28.625 -1.8125 28.625 -4 29 C-4.99 28.34 -5.98 27.68 -7 27 C-7.34057617 24.47802734 -7.34057617 24.47802734 -7.29296875 21.3359375 C-7.28330078 20.21445312 -7.27363281 19.09296875 -7.26367188 17.9375 C-7.23853516 16.761875 -7.21339844 15.58625 -7.1875 14.375 C-7.17396484 13.19164062 -7.16042969 12.00828125 -7.14648438 10.7890625 C-7.11103916 7.85892461 -7.06162769 4.92968541 -7 2 C-5.68 2 -4.36 2 -3 2 C-3 4.31 -3 6.62 -3 9 C-2.01 9 -1.02 9 0 9 C0 6.03 0 3.06 0 0 Z " fill="#E9E7F0" transform="translate(113,22)"/>
<path d="M0 0 C3.88618301 1.39545991 6.10121043 4.20872091 8.0859375 7.74902344 C8.77569695 11.27157297 8.6615098 14.61479363 8.4609375 18.18652344 C8.43386719 19.10884766 8.40679688 20.03117187 8.37890625 20.98144531 C8.30869869 23.23978864 8.21046644 25.49313381 8.0859375 27.74902344 C7.4259375 27.74902344 6.7659375 27.74902344 6.0859375 27.74902344 C6.0859375 27.08902344 6.0859375 26.42902344 6.0859375 25.74902344 C5.4671875 25.62527344 4.8484375 25.50152344 4.2109375 25.37402344 C2.0859375 24.74902344 2.0859375 24.74902344 0.0859375 22.74902344 C0.11881333 20.02032936 0.64991521 17.45236164 1.0859375 14.74902344 C-2.8740625 13.09902344 -6.8340625 11.44902344 -10.9140625 9.74902344 C-9.18842492 6.29774828 -8.29055015 4.85759226 -5.5390625 2.43652344 C-4.66121094 1.63794922 -4.66121094 1.63794922 -3.765625 0.82324219 C-1.9140625 -0.25097656 -1.9140625 -0.25097656 0 0 Z " fill="#9DC3F9" transform="translate(21.9140625,97.2509765625)"/>
<path d="M0 0 C0.66 0.66 1.32 1.32 2 2 C1.43410156 2.19335938 0.86820313 2.38671875 0.28515625 2.5859375 C-0.44832031 2.84632812 -1.18179687 3.10671875 -1.9375 3.375 C-3.03384766 3.75785156 -3.03384766 3.75785156 -4.15234375 4.1484375 C-6.18682116 4.85271413 -6.18682116 4.85271413 -7 7 C-7.4167552 9.95788569 -7.4167552 9.95788569 -7 13 C-6.34 13.495 -5.68 13.99 -5 14.5 C-3 16 -3 16 -2.578125 18.81640625 C-3 22 -3 22 -5.046875 24.37109375 C-5.93890625 25.05300781 -6.8309375 25.73492187 -7.75 26.4375 C-8.63171875 27.13746094 -9.5134375 27.83742188 -10.421875 28.55859375 C-13 30 -13 30 -15.16113281 29.59008789 C-16.07137207 29.29799438 -16.07137207 29.29799438 -17 29 C-16.74253792 26.16488812 -16.46943783 23.33269821 -16.1875 20.5 C-16.11724609 19.70851563 -16.04699219 18.91703125 -15.97460938 18.1015625 C-15.35186533 12.02358066 -14.36943392 5.80821798 -10.3125 1 C-6.7245987 -0.55152489 -3.89776639 -0.314336 0 0 Z " fill="#F6A22C" transform="translate(30,7)"/>
<path d="M0 0 C0.72582862 14.71819154 0.72582862 14.71819154 -4 20 C-4.66 21.32 -5.32 22.64 -6 24 C-8.97 22.02 -11.94 20.04 -15 18 C-13.95455237 13.81820948 -12.50969279 11.43020134 -10.125 7.875 C-9.07699219 6.29332031 -9.07699219 6.29332031 -8.0078125 4.6796875 C-5.53481007 1.3791434 -4.20594665 0 0 0 Z " fill="#F0EFF0" transform="translate(33,61)"/>
<path d="M0 0 C3 1 3 1 3.9921875 2.890625 C4.28351562 3.66921875 4.57484375 4.4478125 4.875 5.25 C7.62589268 11.81463025 11.43553551 15.24292491 18 18 C19.8871875 18.5259375 19.8871875 18.5259375 21.8125 19.0625 C23.3903125 19.5265625 23.3903125 19.5265625 25 20 C26.52491998 23.04983996 26.23562548 25.6423369 26 29 C24.8125 31 24.8125 31 23 32 C20.32520673 31.73904456 18.39904859 31.1995243 16 30 C16 27.03 16 24.06 16 21 C14.783125 20.46375 13.56625 19.9275 12.3125 19.375 C7.96323916 17.18882287 5.73789753 15.0263199 3 11 C2.649375 9.906875 2.29875 8.81375 1.9375 7.6875 C1.628125 6.800625 1.31875 5.91375 1 5 C-1.03243548 4.03122943 -1.03243548 4.03122943 -3 4 C-2.01 2.68 -1.02 1.36 0 0 Z " fill="#3C2F3A" transform="translate(42,15)"/>
<path d="M0 0 C3.35594194 1.2632842 5.63290296 2.25915079 8 5 C7.21625 5.886875 6.4325 6.77375 5.625 7.6875 C3.88903837 9.74260777 2.98167976 11.05129667 2.0625 13.625 C0.5479864 17.01038333 -1.87025632 18.16297654 -5 20 C-6.5 18.875 -6.5 18.875 -8 17 C-8.47893948 13.16848414 -8.2183955 11.37341731 -6.25 8.0078125 C-5.5075 7.05648437 -4.765 6.10515625 -4 5.125 C-3.2575 4.15820312 -2.515 3.19140625 -1.75 2.1953125 C-1.1725 1.47085938 -0.595 0.74640625 0 0 Z " fill="#F9CBB8" transform="translate(15,81)"/>
<path d="M0 0 C0.33 2.64 0.66 5.28 1 8 C-0.0725 8.433125 -1.145 8.86625 -2.25 9.3125 C-5.17750767 10.55447295 -7.48458941 12.04356954 -10 14 C-10.66 14 -11.32 14 -12 14 C-13.10228696 9.59085217 -13.07654536 5.51617599 -13 1 C-7.84596189 -1.68009982 -5.54675294 -2.57044649 0 0 Z " fill="#9DC3F9" transform="translate(97,86)"/>
<path d="M0 0 C4.73267465 4.3024315 9.02472345 9.31740658 12 15 C11.86222868 17.59865213 11.37584593 18.60437271 9.58984375 20.484375 C8.05989583 21.65625 6.52994792 22.828125 5 24 C4.70996094 23.18595703 4.70996094 23.18595703 4.4140625 22.35546875 C4.15367188 21.64003906 3.89328125 20.92460938 3.625 20.1875 C3.36976562 19.47980469 3.11453125 18.77210937 2.8515625 18.04296875 C1.9734231 15.75226641 1.9734231 15.75226641 0 13 C-0.1953125 9.86328125 -0.1953125 9.86328125 -0.125 6.3125 C-0.09792969 4.54326172 -0.09792969 4.54326172 -0.0703125 2.73828125 C-0.04710937 1.83464844 -0.02390625 0.93101563 0 0 Z " fill="#F1F1F2" transform="translate(61,62)"/>
<path d="M0 0 C3 0.125 3 0.125 4 1.125 C4.12514928 3.10119447 4.1757276 5.08238173 4.1875 7.0625 C4.20167969 8.14402344 4.21585938 9.22554687 4.23046875 10.33984375 C4 13.125 4 13.125 2 15.125 C-2.55555556 14.56944444 -2.55555556 14.56944444 -4 13.125 C-4.09873816 11.12700428 -4.12971799 9.12542842 -4.125 7.125 C-4.12757812 6.031875 -4.13015625 4.93875 -4.1328125 3.8125 C-3.94533097 0.01875601 -3.83780055 0.15990836 0 0 Z " fill="#9EC3F9" transform="translate(104,75.875)"/>
<path d="M0 0 C0.125 3.375 0.125 3.375 0 7 C-2 9 -2 9 -4.5625 9.1875 C-7 9 -7 9 -8 8 C-8.04092937 5.66702567 -8.04241723 3.33294775 -8 1 C-1.125 0 -1.125 0 0 0 Z " fill="#EFEEEF" transform="translate(51,64)"/>
<path d="M0 0 C2.64 0 5.28 0 8 0 C8.125 2.875 8.125 2.875 8 6 C6 8 6 8 3.4375 8.1875 C1 8 1 8 0 7 C-0.04092937 4.66702567 -0.04241723 2.33294775 0 0 Z " fill="#F4BCAA" transform="translate(43,54)"/>
<path d="M0 0 C0.33 0 0.66 0 1 0 C1.33 7.26 1.66 14.52 2 22 C3.65 22.33 5.3 22.66 7 23 C6.67 24.32 6.34 25.64 6 27 C3.83125748 26.49396008 2.00032373 26.00016187 0 25 C0 16.75 0 8.5 0 0 Z " fill="#9F9AAC" transform="translate(106,24)"/>
<path d="M0 0 C1.98 0 3.96 0 6 0 C4.73046875 1.49739583 3.4609375 2.99479167 2.19140625 4.4921875 C0.9121848 6.00594079 0.9121848 6.00594079 0 8 C-0.99 7.67 -1.98 7.34 -3 7 C-2.01 4.69 -1.02 2.38 0 0 Z " fill="#EC9D8C" transform="translate(67,85)"/>
<path d="M0 0 C0.33 0 0.66 0 1 0 C1 6.6 1 13.2 1 20 C0.34 20 -0.32 20 -1 20 C-1 19.34 -1 18.68 -1 18 C-1.99 17.67 -2.98 17.34 -4 17 C-3.01 16.34 -2.02 15.68 -1 15 C-0.61588725 12.390379 -0.39706803 9.9941926 -0.3125 7.375 C-0.27833984 6.66859375 -0.24417969 5.9621875 -0.20898438 5.234375 C-0.12648692 3.49014312 -0.06156665 1.74509605 0 0 Z " fill="#7BA7E0" transform="translate(29,105)"/>
<path d="M0 0 C2.3129482 2.3129482 2.49580975 3.47904875 3.125 6.625 C3.29257813 7.44226562 3.46015625 8.25953125 3.6328125 9.1015625 C3.81457031 10.04128906 3.81457031 10.04128906 4 11 C2.68 10.67 1.36 10.34 0 10 C0 6.7 0 3.4 0 0 Z " fill="#F1EFF6" transform="translate(108,37)"/>
<path d="M0 0 C0.66 0.33 1.32 0.66 2 1 C-1.44615385 7.76923077 -1.44615385 7.76923077 -4.25 8.9375 C-4.8275 8.958125 -5.405 8.97875 -6 9 C-4.68775452 5.06326356 -3.08089673 2.77280706 0 0 Z " fill="#403339" transform="translate(39,17)"/>
<path d="M0 0 C1.98 0.66 3.96 1.32 6 2 C6.33 4.31 6.66 6.62 7 9 C4.40007401 6.53007031 2.17472113 3.84963459 0 1 C0 0.67 0 0.34 0 0 Z " fill="#77A1D7" transform="translate(91,84)"/>
<path d="M0 0 C1.17219543 0.78345715 2.33763668 1.57702836 3.5 2.375 C4.47453125 3.03628906 4.47453125 3.03628906 5.46875 3.7109375 C5.9740625 4.13632812 6.479375 4.56171875 7 5 C7 5.66 7 6.32 7 7 C4.20171644 6.61402985 3.1794116 6.19863427 1.25 4.0625 C0 2 0 2 0 0 Z " fill="#C2BED2" transform="translate(88,43)"/>
<path d="M0 0 C0.66 0 1.32 0 2 0 C2 2.31 2 4.62 2 7 C1.01 6.67 0.02 6.34 -1 6 C-1.042721 4.33388095 -1.04063832 2.66617115 -1 1 C-0.67 0.67 -0.34 0.34 0 0 Z " fill="#90B0E1" transform="translate(95,76)"/>
<path d="M0 0 C0.66 0 1.32 0 2 0 C2 2.31 2 4.62 2 7 C1.01 6.67 0.02 6.34 -1 6 C-1.042721 4.33388095 -1.04063832 2.66617115 -1 1 C-0.67 0.67 -0.34 0.34 0 0 Z " fill="#E69786" transform="translate(30,37)"/>
<path d="M0 0 C1.485 0.99 1.485 0.99 3 2 C2.37611108 5.61855575 1.8290723 6.1709277 -1 9 C-0.67 6.03 -0.34 3.06 0 0 Z " fill="#EA9988" transform="translate(62,37)"/>
<path d="M0 0 C0 0.99 0 1.98 0 3 C-1.27875 3.144375 -2.5575 3.28875 -3.875 3.4375 C-6.25692894 3.70642746 -7.84452691 3.92226346 -10 5 C-9.67 4.01 -9.34 3.02 -9 2 C-5.82757352 0.68964993 -3.44118336 0 0 0 Z " fill="#D6D3DF" transform="translate(93,22)"/>
<path d="M0 0 C3.37503669 1.1858237 5.64722731 2.27573689 8 5 C6.68 5 5.36 5 4 5 C1.75 2.5 1.75 2.5 0 0 Z " fill="#EC9A89" transform="translate(15,81)"/>
<path d="M0 0 C2.97 0.495 2.97 0.495 6 1 C5.67 2.32 5.34 3.64 5 5 C3.68 4.67 2.36 4.34 1 4 C0.67 2.68 0.34 1.36 0 0 Z " fill="#BEBACE" transform="translate(107,46)"/>
<path d="M0 0 C0.33 0.99 0.66 1.98 1 3 C-0.32 4.32 -1.64 5.64 -3 7 C-3.33 6.01 -3.66 5.02 -4 4 C-2.68 2.68 -1.36 1.36 0 0 Z " fill="#3A3343" transform="translate(32,77)"/>
</svg>
