<?xml version="1.0" encoding="UTF-8"?>
<svg version="1.1" xmlns="http://www.w3.org/2000/svg" width="35" height="35">
<path d="M0 0 C5.94789841 2.09967694 11.27748376 5.19394908 16.7265625 8.3359375 C18.9319873 9.59688666 21.13772414 10.85729019 23.34375 12.1171875 C24.45975586 12.7565625 25.57576172 13.3959375 26.72558594 14.0546875 C30.01797167 15.91373782 33.33646101 17.71169599 36.671875 19.4921875 C37.71134277 20.05502441 38.75081055 20.61786133 39.82177734 21.19775391 C41.79046751 22.26221088 43.76704723 23.31224844 45.75244141 24.34521484 C46.64624512 24.8345752 47.54004883 25.32393555 48.4609375 25.828125 C49.62834473 26.44856689 49.62834473 26.44856689 50.81933594 27.08154297 C55.4313467 30.87949535 57.93771117 36.30885503 60.06622314 41.80236816 C68.49914466 62.76211182 84.53438775 76.96057402 100.39607906 92.47218132 C104.42175698 96.42190908 108.41259216 100.40655713 112.40753174 104.3873291 C119.94805328 111.89082367 127.51857677 119.36324697 135.10088468 126.82448816 C143.74412766 135.33275036 152.35257794 143.87586127 160.9585433 152.42180157 C178.63493853 169.97338001 196.35372042 187.48162845 214.1015625 204.9609375 C215.22768114 203.999805 216.35322151 203.03799494 217.47851562 202.07589722 C218.10536255 201.54036161 218.73220947 201.00482601 219.37805176 200.45306206 C221.18260471 198.89077544 222.91194988 197.27959116 224.6015625 195.59375 C225.17455078 195.02269531 225.74753906 194.45164063 226.33789062 193.86328125 C226.91990234 193.27675781 227.50191406 192.69023437 228.1015625 192.0859375 C228.71966797 191.46589844 229.33777344 190.84585938 229.97460938 190.20703125 C233.51282256 186.63512079 236.88778813 182.98948675 240.1328125 179.1484375 C243.58646811 175.31104238 247.30864563 171.73518545 250.97729492 168.10473633 C254.63128295 164.47423089 258.11656555 160.77693133 261.44140625 156.83984375 C264.22916086 153.68476147 267.26477654 150.77842079 270.28125 147.84375 C272.16540148 146.08340411 272.16540148 146.08340411 273.1015625 143.9609375 C272.51761719 143.69796875 271.93367188 143.435 271.33203125 143.1640625 C266.6016581 140.61247768 262.80138765 136.90489624 260.9765625 131.8359375 C261.1015625 128.9609375 261.1015625 128.9609375 262.5546875 126.62109375 C266.8655842 119.20765775 265.24199004 109.64023976 263.3046875 101.6796875 C259.69927679 90.53569075 254.02115481 80.60341349 246.1015625 71.9609375 C245.53824219 71.32929687 244.97492188 70.69765625 244.39453125 70.046875 C232.87593787 57.79993965 215.65948469 48.65026084 198.67822266 47.84619141 C195.42949056 47.81757662 192.19742404 47.85116853 188.95263672 48.02001953 C183.535191 48.25145146 183.535191 48.25145146 181.125 46.63671875 C179.41507109 43.83687333 179.54366532 42.18434341 180.1015625 38.9609375 C193.04081726 19.55205536 220.59640891 8.10555616 242.4140625 3.0234375 C275.02985533 -2.28611017 307.80064932 3.86533004 334.89453125 22.92578125 C337.38085319 24.8587088 339.74948583 26.86683053 342.1015625 28.9609375 C343.54789062 30.24484375 343.54789062 30.24484375 345.0234375 31.5546875 C350.8120371 36.75815123 356.35080874 42.17219951 361.8203125 47.7109375 C363.77389992 49.63776345 365.75977694 51.43823788 367.8515625 53.2109375 C371.81133552 56.59123154 375.44224353 60.2631601 379.1015625 63.9609375 C384.44621119 69.37589017 384.44621119 69.37589017 390.1015625 74.4609375 C394.65542465 78.30816587 398.76390385 82.59862326 402.95336914 86.83227539 C406.064498 89.96356548 409.18941267 93.01891396 412.5390625 95.8984375 C413.13589844 96.41277344 413.73273438 96.92710938 414.34765625 97.45703125 C415.60699302 98.53686345 416.87051761 99.61181889 418.13671875 100.68359375 C421.38520573 103.62208595 422.92932888 105.1428278 423.8515625 109.5234375 C423.05242602 113.18614637 421.8087973 114.6127066 419.296875 117.296875 C416.99260193 120.50478457 416.73608231 124.10615587 417.1015625 127.9609375 C419.05991484 131.80770103 420.51605512 133.57059925 424.1015625 135.9609375 C428.85177854 136.73906813 432.29797926 136.39925563 436.5390625 134.0859375 C439.07210718 132.05234578 439.07210718 132.05234578 441.1015625 129.9609375 C444.47190015 129.40889944 446.93486577 129.21955936 449.90039062 131.10400391 C451.81116334 132.74997414 453.58504724 134.47350858 455.3515625 136.2734375 C456.32283081 137.22923706 456.32283081 137.22923706 457.3137207 138.2043457 C458.62860106 139.50106069 459.9370299 140.80435169 461.23876953 142.11425781 C462.91482314 143.77581345 464.62640185 145.37311332 466.37890625 146.953125 C473.66436209 153.70072839 477.3234354 159.62475972 478.5390625 169.5234375 C477.19823647 180.05849918 473.50345526 185.44485004 466.1015625 192.9609375 C464.99187418 194.14972098 463.88666125 195.34269255 462.78515625 196.5390625 C456.57162144 203.28518601 450.26818666 209.89837988 443.69921875 216.30078125 C441.64141174 218.4080994 439.70361684 220.53796645 437.77734375 222.76171875 C434.05889557 227.04580988 430.19476744 231.15797478 426.2265625 235.2109375 C425.24236328 236.25121094 425.24236328 236.25121094 424.23828125 237.3125 C418.78778949 242.85861442 413.46756281 246.2273685 405.73046875 247.52734375 C395.7826174 247.51467133 389.06013954 245.15576002 381.9765625 238.0859375 C381.01363281 237.05339844 381.01363281 237.05339844 380.03125 236 C378.14696412 234.00891249 376.18696232 232.23799027 374.1015625 230.4609375 C372.7656053 229.29727636 371.43235611 228.13050035 370.1015625 226.9609375 C369.34875 226.29964844 368.5959375 225.63835937 367.8203125 224.95703125 C362.37753555 219.9071308 362.37753555 219.9071308 361.2265625 215.9609375 C362.12747278 212.87210226 363.10508981 211.54093024 365.1015625 209.0859375 C367.34635237 206.29856809 368.57480394 204.45055042 368.7265625 200.8359375 C367.92593444 195.87204354 366.33812268 192.65763833 362.2890625 189.5859375 C357.78597021 188.2993397 354.36043611 188.31810842 350.1640625 190.4609375 C347.56692998 192.58104568 345.396669 194.72267977 343.1015625 197.1484375 C340.73952707 199.52836714 339.15336732 200.93611436 336.1015625 202.3984375 C331.21976069 201.68650807 328.47457296 198.37700767 325.1015625 194.9609375 C323.8640625 193.754375 323.8640625 193.754375 322.6015625 192.5234375 C322.1065625 192.0078125 321.6115625 191.4921875 321.1015625 190.9609375 C317.02026808 192.57787037 314.2955442 195.50374962 311.2890625 198.5859375 C310.7513623 199.13008301 310.21366211 199.67422852 309.65966797 200.23486328 C306.35435312 203.60406824 303.2225037 207.07380125 300.16796875 210.671875 C295.06004079 216.33018462 289.52392452 221.606261 284.1015625 226.9609375 C284.51075928 227.35458496 284.91995605 227.74823242 285.34155273 228.15380859 C289.98166699 233.00575265 291.22386507 237.04388644 292.1640625 243.5859375 C296.23724749 267.18670405 308.94645792 288.24846703 328.421875 302.4765625 C337.52314279 308.7489695 348.59738835 315.558305 359.79446411 316.48446655 C376.81511641 317.97783743 385.30484859 326.87347655 396.71875 338.8125 C398.59666478 340.71457339 400.47757337 342.61315576 402.36282349 344.50790405 C406.28543604 348.46339425 410.17586668 352.44820636 414.04443359 356.45654297 C419.47521269 362.08340882 424.96300237 367.65195031 430.46293044 373.21112561 C434.76801439 377.56696242 439.05664468 381.93897904 443.34375 386.3125 C444.24554867 387.23206104 445.14734734 388.15162209 446.07647324 389.09904861 C448.64143721 391.72272871 451.19538093 394.35662819 453.74560547 396.99462891 C454.49161011 397.75655548 455.23761475 398.51848206 456.00622559 399.30349731 C469.20602302 413.04210444 477.55656812 428.68735098 477.3203125 448.08984375 C476.03425346 464.96936864 469.60001324 478.55455575 457.68359375 490.35546875 C445.36972297 500.86143028 429.74351782 505.73934752 413.67578125 504.75 C395.91063531 502.65533318 383.48166273 494.7051714 370.95166016 482.40551758 C370.09831085 481.57830704 369.24496155 480.7510965 368.36575317 479.89881897 C365.57328061 477.18523159 362.79243089 474.46006026 360.015625 471.73046875 C359.53922435 471.26266298 359.06282371 470.79485721 358.57198668 470.31287551 C354.06191717 465.8837889 349.55708844 461.44944749 345.06617165 457.00093555 C339.3703648 451.35942731 333.64928107 445.74666287 327.88948023 440.17048341 C323.81324867 436.21974717 319.76894173 432.23800639 315.74611318 428.2329151 C313.35479877 425.85374119 310.94990308 423.49494099 308.51607132 421.15882301 C296.83443757 409.92061566 289.72526814 401.59903683 288.39173508 385.1494503 C285.92177956 366.52078 270.32517394 348.1680246 256.1015625 336.9609375 C247.32229833 330.55761497 237.73859515 324.63979707 227.1015625 321.9609375 C223.87417245 323.14175712 222.16695173 324.85103704 219.97265625 327.43359375 C215.83711955 331.68348722 211.86518296 332.43207515 206.1640625 333.3984375 C191.12687627 336.48528076 179.43450208 342.50711296 168.1015625 352.9609375 C167.15603516 353.78658203 167.15603516 353.78658203 166.19140625 354.62890625 C154.14448233 365.74281101 143.94230036 383.6574973 142.90234375 400.11328125 C142.16985764 410.21198319 137.74674512 414.30815392 130.51708984 420.67529297 C128.75746722 422.27346005 127.2392672 424.00435932 125.7265625 425.8359375 C122.39420001 429.75926082 118.75740939 433.34302417 115.1015625 436.9609375 C109.68661249 442.30558836 109.68661249 442.30558836 104.6015625 447.9609375 C100.79066581 452.4717948 96.55424221 456.55986456 92.33789062 460.6875 C89.35705323 463.6247481 86.49282684 466.60828604 83.75390625 469.7734375 C55.51813688 502.4021362 55.51813688 502.4021362 34.1015625 503.9609375 C33.121875 504.04085938 32.1421875 504.12078125 31.1328125 504.203125 C16.57831297 504.80367474 3.12841845 500.28168666 -8.171875 491.1171875 C-18.87045786 481.1154472 -24.71705869 468.00712796 -26.13671875 453.53125 C-26.56685657 439.35934065 -22.23879795 425.13277241 -12.69140625 414.50390625 C-11.17299619 412.98549619 -9.63126476 411.49002643 -8.06640625 410.01953125 C-6.13281254 408.18348822 -4.42284834 406.31306931 -2.7109375 404.2734375 C0.69316312 400.29534333 4.38283679 396.64094161 8.1015625 392.9609375 C13.51651651 387.61628989 13.51651651 387.61628989 18.6015625 381.9609375 C22.45345026 377.40156015 26.74968458 373.28846886 30.98828125 369.09375 C33.96957227 366.13152907 36.88719566 363.17386152 39.6015625 359.9609375 C43.45345026 355.40156015 47.74968458 351.28846886 51.98828125 347.09375 C54.96957227 344.13152907 57.88719566 341.17386152 60.6015625 337.9609375 C64.45345026 333.40156015 68.74968458 329.28846886 72.98828125 325.09375 C75.96957227 322.13152907 78.88719566 319.17386152 81.6015625 315.9609375 C85.45345026 311.40156015 89.74968458 307.28846886 93.98828125 303.09375 C96.96957227 300.13152907 99.88719566 297.17386152 102.6015625 293.9609375 C106.45345026 289.40156015 110.74968458 285.28846886 114.98828125 281.09375 C117.96957227 278.13152907 120.88719566 275.17386152 123.6015625 271.9609375 C127.45345026 267.40156015 131.74968458 263.28846886 135.98828125 259.09375 C138.96957227 256.13152907 141.88719566 253.17386152 144.6015625 249.9609375 C147.98069074 246.01141933 151.54818651 242.25535092 155.1640625 238.5234375 C155.75445312 237.89501953 156.34484375 237.26660156 156.953125 236.61914062 C159.67927867 233.84114735 161.55567521 232.15320815 165.2734375 230.84375 C168.79577558 230.98970324 169.81932865 231.81356286 172.2890625 234.2734375 C174.53905811 236.46130305 176.46975796 238.20640114 179.1015625 239.9609375 C160.87394308 221.38102641 142.60207656 202.84561951 124.27830982 184.36050224 C115.76890593 175.77414847 107.27389301 167.17445849 98.81274414 158.54052734 C91.4275293 151.00457571 84.01524412 143.49645911 76.57087439 136.01892197 C72.6393215 132.06801732 68.72149245 128.10557409 64.83594704 124.10937119 C48.45066464 107.27504674 33.80279424 93.18474751 11.72660828 84.45388794 C4.80001071 81.67641991 1.90589017 77.90781913 -1.5546875 71.37109375 C-2.01367432 70.51507568 -2.47266113 69.65905762 -2.94555664 68.77709961 C-3.42500732 67.86839111 -3.90445801 66.95968262 -4.3984375 66.0234375 C-5.44762155 64.06685103 -6.49846146 62.11115175 -7.55078125 60.15625 C-8.09460449 59.1446582 -8.63842773 58.13306641 -9.19873047 57.09082031 C-12.05814364 51.82542576 -15.00683948 46.61113393 -17.9609375 41.3984375 C-18.50878906 40.4297876 -19.05664062 39.4611377 -19.62109375 38.46313477 C-22.45288904 33.39217154 -22.45288904 33.39217154 -25.63061523 28.53930664 C-27.30448858 25.13515175 -27.05100452 23.5472537 -25.8984375 19.9609375 C-23.98071289 17.4597168 -23.98071289 17.4597168 -21.49609375 15.03515625 C-20.60599609 14.15666016 -19.71589844 13.27816406 -18.79882812 12.37304688 C-17.86232422 11.47392578 -16.92582031 10.57480469 -15.9609375 9.6484375 C-15.02830078 8.72998047 -14.09566406 7.81152344 -13.13476562 6.86523438 C-4.57859626 -1.50533479 -4.57859626 -1.50533479 0 0 Z " fill="#020201" transform="translate(30.8984375,4.0390625)"/>
<path d="M0 0 C3.66434951 1.71025466 5.9345589 3.75997924 8.75 6.6875 C11.66568716 9.66675592 14.56236565 12.56386847 17.75 15.25 C22.37565961 19.19873381 26.58073972 23.55527047 30.85522461 27.87475586 C34.49391775 31.53697186 38.20259989 35.0265078 42.14453125 38.36328125 C45.15724698 41.02081365 47.92624599 43.91826332 50.74609375 46.77734375 C54.02674112 50.01250554 57.48608732 53.02227018 61 56 C57.58065861 63.35333621 50.44011764 71.58591539 42.95117188 74.90917969 C40.17331497 75.73727068 37.39986641 76.25523091 34.54418945 76.73535156 C21.68497993 78.91020941 9.93108976 85.71913624 0 94 C-0.98484375 94.81082031 -1.9696875 95.62164062 -2.984375 96.45703125 C-19.12305335 110.21400472 -29.89901034 129.24018792 -34 150 C-34.06574219 151.31355469 -34.13148438 152.62710938 -34.19921875 153.98046875 C-34.8027192 159.09268966 -37.82410991 161.8247451 -41.375 165.3125 C-42.0047876 165.95840088 -42.6345752 166.60430176 -43.28344727 167.26977539 C-45.17163127 169.19805735 -47.08183022 171.10159471 -49 173 C-50.04346326 174.04377671 -51.0864719 175.08800821 -52.12890625 176.1328125 C-53.95766089 177.95902367 -55.7907828 179.78087531 -57.62890625 181.59765625 C-59.63758306 183.63280656 -61.52401346 185.69816742 -63.375 187.875 C-66.56129433 191.61543247 -70.00880254 195.04803498 -73.5 198.5 C-76.92845382 201.89005591 -80.32260763 205.25194033 -83.4375 208.9375 C-87.31067819 213.50959757 -91.61463019 217.64781632 -95.87768555 221.8515625 C-98.99415459 224.93927183 -101.9677003 228.03911966 -104.75 231.4375 C-112.33861134 240.27510972 -122.3976034 245.26769367 -133.93359375 246.37890625 C-145.56989708 246.8989645 -154.9102678 244.48852308 -163.93359375 236.91796875 C-173.25519459 228.2659725 -178.26111213 219.44880855 -179.2578125 206.703125 C-179.6476399 194.80039518 -176.78530909 185.97230688 -169 177 C-168.36320312 176.25492188 -167.72640625 175.50984375 -167.0703125 174.7421875 C-162.16158056 169.15018885 -156.94303742 163.90351642 -151.65576172 158.67480469 C-148.84636131 155.8859709 -146.12098133 153.08733742 -143.5625 150.0625 C-140.25427342 146.15730021 -136.63486259 142.59719074 -133 139 C-127.58505132 133.65534806 -127.58505132 133.65534806 -122.5 128 C-118.64811224 123.44062265 -114.35187792 119.32753136 -110.11328125 115.1328125 C-107.13199023 112.17059157 -104.21436684 109.21292402 -101.5 106 C-97.64811224 101.44062265 -93.35187792 97.32753136 -89.11328125 93.1328125 C-86.13199023 90.17059157 -83.21436684 87.21292402 -80.5 84 C-76.64811224 79.44062265 -72.35187792 75.32753136 -68.11328125 71.1328125 C-65.13199023 68.17059157 -62.21436684 65.21292402 -59.5 62 C-55.64811224 57.44062265 -51.35187792 53.32753136 -47.11328125 49.1328125 C-44.13199023 46.17059157 -41.21436684 43.21292402 -38.5 40 C-34.64811224 35.44062265 -30.35187792 31.32753136 -26.11328125 27.1328125 C-22.5730818 23.61525825 -19.21634298 20.03286337 -15.99609375 16.21875 C-10.92066356 10.57717593 -5.39794754 5.33056678 0 0 Z " fill="#F5A930" transform="translate(196,250)"/>
<path d="M0 0 C2.55969455 1.58717902 4.58077325 2.92790285 5.70703125 5.80810547 C6.2197809 8.00969823 6.62630856 10.20810929 7 12.4375 C12.06921585 38.29179733 26.78245261 61.22829911 48.1875 76.6875 C59.44795664 84.14104069 72.97193378 92.00773894 86.64335823 93.23783875 C95.10819138 94.13776099 99.25706641 96.82599125 105.06982422 102.87109375 C105.89099228 103.68437637 106.71216034 104.497659 107.55821228 105.33558655 C110.24859082 108.01261201 112.90150475 110.72364634 115.5546875 113.4375 C117.42701011 115.31833237 119.30103734 117.19730978 121.17727661 119.07421875 C125.0991467 123.00531706 129.00160244 126.95485387 132.89160156 130.91748047 C137.36984985 135.47912202 141.87173872 140.01624557 146.38855922 144.53967762 C150.75667232 148.91432986 155.11309451 153.30041235 159.46252823 157.69363403 C161.3031377 159.55192791 163.14585143 161.40814011 164.99074936 163.26217651 C167.57306297 165.86270406 170.14158319 168.47611798 172.70654297 171.09375 C173.46093155 171.84946793 174.21532013 172.60518585 174.99256897 173.38380432 C186.69329669 185.41512188 191.48453312 198.58282562 191.34375 215.265625 C190.16598455 228.06044055 182.98865828 239.07966085 173.3671875 247.2109375 C162.72513447 255.25394127 151.22550571 257.92596011 138 257 C112.10452339 253.31031771 90.97141138 224.59227001 73.27646637 207.18759251 C68.95882382 202.94232793 64.62709302 198.71392077 60.25878906 194.52075195 C55.99442086 190.42643386 51.77158391 186.2931241 47.57371521 182.13068962 C45.98333506 180.56707287 44.37921807 179.01728581 42.76063538 177.48288155 C31.83196758 167.09834711 26.98905715 159.31527888 25.37052917 144.26486015 C22.04596008 123.9434264 3.87814214 102.51739088 -12 91 C-20.86288576 84.67431164 -29.84294076 79.93624636 -40 76 C-38.2109375 72.171875 -38.2109375 72.171875 -36.3125 70.625 C-34.7086463 68.99353897 -34.7086463 68.99353897 -35.0390625 66.265625 C-36.33008389 61.87825148 -38.63829112 60.00524884 -42.0625 57.125 C-42.63033203 56.62742187 -43.19816406 56.12984375 -43.78320312 55.6171875 C-45.17761693 54.39854014 -46.58734487 53.19745427 -48 52 C-46.38989473 47.92623969 -43.46177729 45.23492931 -40.375 42.25 C-39.859375 41.74339844 -39.34375 41.23679687 -38.8125 40.71484375 C-37.54616661 39.47196098 -36.2736856 38.23534724 -35 37 C-34.23504369 38.00748684 -34.23504369 38.00748684 -33.45463371 39.03532696 C-30.40780677 42.71524289 -27.09921226 46.05560342 -23.7258606 49.43476868 C-22.99163687 50.17408023 -22.25741314 50.91339177 -21.5009402 51.6751067 C-19.04224619 54.14948585 -16.57999382 56.62029202 -14.11767578 59.09106445 C-12.35327317 60.86500812 -10.58904613 62.63912642 -8.82498169 64.41340637 C-3.53522327 69.73179673 1.75894237 75.04577963 7.05455703 80.35833743 C8.5502685 81.85884807 10.04588801 83.35945031 11.54148722 84.86007285 C20.83288353 94.18242383 30.12642001 103.50263781 39.42490959 112.81791401 C41.57545754 114.97241125 43.72597858 117.12693534 45.87646484 119.28149414 C46.41093963 119.81697729 46.94541442 120.35246044 47.49608542 120.90417036 C56.16660403 129.59172016 64.82499523 138.29125544 73.4785987 146.99565098 C82.3652981 155.93408066 91.26324746 164.8611872 100.17221844 173.77741975 C105.17335957 178.78322666 110.16932197 183.79397908 115.15261459 188.8175602 C119.83562908 193.53839087 124.53363588 198.24390297 129.24226761 202.93920708 C130.97046003 204.66745367 132.69349581 206.400874 134.411026 208.1397171 C136.75107824 210.50725359 139.10874838 212.8556962 141.47189331 215.20014954 C142.15205848 215.89710963 142.83222364 216.59406973 143.53299987 217.31214982 C147.33441629 221.08691215 147.33441629 221.08691215 152.40800667 222.48749065 C154.92081602 222.26725897 154.92081602 222.26725897 156 221 C156.67350769 218.29987653 156.67350769 218.29987653 156 215 C154.67688243 213.10513705 154.67688243 213.10513705 152.92932224 211.25492668 C152.29079543 210.55153404 151.65226862 209.8481414 150.99439251 209.12343383 C147.92550756 205.85598568 144.80094256 202.65287052 141.63084412 199.4836731 C140.92264198 198.77179427 140.21443984 198.05991544 139.48477703 197.32646453 C137.13209486 194.9628469 134.77591983 192.60274421 132.41967773 190.24267578 C130.72378525 188.54051154 129.02808094 186.8381598 127.33255005 185.13563538 C122.26472571 180.04867824 117.19267205 174.9659501 112.11973509 169.88409263 C109.7268577 167.48681853 107.33446378 165.08906204 104.94200325 162.69137192 C96.98562433 154.7180056 89.02800123 146.74588409 81.06675625 138.77737617 C79.00714112 136.71585145 76.94753139 134.65432133 74.88793945 132.59277344 C74.37609547 132.08044572 73.86425149 131.56811799 73.33689708 131.04026519 C65.02826464 122.72331545 56.72819761 114.39787184 48.43163263 106.06888594 C39.90274932 97.50694676 31.36636844 88.9525416 22.82253987 80.40551555 C18.02978209 75.6105931 13.24036663 70.81243321 8.45931816 66.00583267 C3.96759693 61.49090134 -0.53346872 56.98550357 -5.04195786 52.48731804 C-6.69582582 50.83394707 -8.34626567 49.17713889 -9.99302864 47.51669121 C-12.23884506 45.25325694 -14.49660541 43.00245314 -16.75782776 40.75442505 C-17.40870993 40.09257363 -18.0595921 39.43072222 -18.73019797 38.7488147 C-22.2772401 35.25164794 -24.99491385 33.13536225 -30 32 C-26.53440626 27.80480758 -22.93494625 23.88764919 -19.0625 20.0625 C-15.42273292 16.46632295 -11.99620593 12.78083241 -8.671875 8.89453125 C-5.92746498 5.78462737 -2.97206494 2.89076226 0 0 Z " fill="#F5A930" transform="translate(305,240)"/>
<path d="M0 0 C6.72219103 4.6297213 12.31301257 10.10833789 18 15.9375 C23.23028969 21.27477289 28.45603207 26.4952129 34.1328125 31.35766602 C37.23837546 34.08924578 40.10833681 37.04567046 43 40 C47.36418497 44.42080962 51.74707636 48.71335204 56.546875 52.66796875 C58 54 58 54 60 57 C55.7590023 62.10461905 51.2152351 66.83849978 46.5 71.5 C43.07151564 74.89002688 39.67739 78.25194312 36.5625 81.9375 C32.686001 86.51351762 28.3747532 90.64986201 24.11572266 94.86474609 C20.54318081 98.41441758 17.15403123 102.03148977 13.90234375 105.87890625 C10.68050623 109.471222 7.20565092 112.81366289 3.77514648 116.20532227 C0.16441056 119.79089261 -3.27025562 123.46399165 -6.56640625 127.34375 C-8.59606558 129.68864253 -10.77435951 131.84180317 -13 134 C-16.25207092 132.58261511 -18.31361067 130.87473588 -20.75 128.3125 C-23.32993236 125.6614298 -25.92880963 123.14213433 -28.75 120.75 C-32.34516791 117.66438345 -35.6733717 114.36801715 -39 111 C-42.20342048 107.75701891 -45.3910732 104.57063768 -48.875 101.625 C-53.45288366 97.73811764 -57.61544804 93.43639918 -61.81396484 89.14892578 C-65.70533381 85.20015222 -69.74786634 81.55879212 -74 78 C-70.67757305 73.99604957 -67.26765814 70.21690255 -63.5625 66.5625 C-60.85856105 63.89437481 -58.26584103 61.21190304 -55.8125 58.3125 C-52.40839938 54.33440583 -48.71872571 50.68000411 -45 47 C-39.58504599 41.65535239 -39.58504599 41.65535239 -34.5 36 C-30.6507747 31.44377414 -26.35784126 27.33331873 -22.12207031 23.14160156 C-18.49250504 19.53534008 -15.03555714 15.86145574 -11.73046875 11.953125 C-8.02780341 7.77404448 -3.98241005 3.91029397 0 0 Z " fill="#CBCBCB" transform="translate(380,57)"/>
<path d="M0 0 C3.1165547 0.93637026 5.66811696 2.24804293 8.50683594 3.84155273 C9.62227783 4.46239746 10.73771973 5.08324219 11.88696289 5.72290039 C14.30750828 7.09223535 16.7209253 8.47370067 19.13256836 9.85864258 C20.3547921 10.55900396 21.57720327 11.25903836 22.79980469 11.95874023 C23.40064377 12.30366516 24.00148285 12.64859009 24.62052917 13.00396729 C27.93805674 14.88641007 31.25283634 16.55589125 34.77636719 18.01342773 C41.84598215 21.07895321 46.35690229 24.16731228 49.34463501 31.50163269 C49.77648291 32.60977735 50.2083308 33.717922 50.653265 34.8596468 C59.29717656 56.64990809 75.28604451 71.35926938 91.81305265 87.43820977 C95.92304032 91.45299295 99.98923346 95.51169883 104.06069946 99.56547546 C111.74041457 107.19898206 119.45745893 114.79351004 127.18946898 122.37400264 C136.00572788 131.02129344 144.77829251 139.71236669 153.54786181 148.40696394 C171.55446369 166.25771663 189.61392022 184.05416158 207.70996094 201.81420898 C206.75271861 202.93838442 205.79442737 204.06166676 204.83569336 205.18457031 C204.30215744 205.81019363 203.76862152 206.43581696 203.21891785 207.08039856 C201.56657022 208.97896671 199.83542532 210.75636098 198.02246094 212.50170898 C195.67680736 214.80584657 193.56640191 217.08414872 191.70996094 219.81420898 C187.63673631 218.2016738 184.95466943 215.28940966 181.96401978 212.20783997 C181.10859638 211.33910461 181.10859638 211.33910461 180.2358917 210.45281905 C178.32356677 208.50863755 176.41851953 206.55747475 174.51318359 204.60644531 C173.14311269 203.21125177 171.77248301 201.81660675 170.40133667 200.42247009 C167.44403171 197.41472585 164.48920218 194.40457723 161.53578568 191.39301491 C156.84207558 186.60999655 152.13359512 181.84170825 147.42123413 177.07707214 C146.62414744 176.2710579 145.82706075 175.46504367 145.00581992 174.63460475 C143.37503342 172.98570978 141.74418889 171.3368722 140.11328769 169.68809068 C129.14568154 158.60009509 118.18536378 147.50555752 107.27685547 136.359375 C99.91684552 128.83922012 92.52945555 121.34714273 85.11067998 113.88494128 C81.19589267 109.94516339 77.29525297 105.99355509 73.42781448 102.0072422 C58.09182738 86.21476219 43.91593016 71.63307895 23.15784645 63.34863758 C14.9764989 60.00351449 11.34091956 56.90911553 7.70996094 48.81420898 C7.1332666 47.81615234 6.55657227 46.8180957 5.96240234 45.78979492 C5.5001123 44.96769531 5.03782227 44.1455957 4.56152344 43.29858398 C3.77104614 41.89588257 3.77104614 41.89588257 2.96459961 40.46484375 C2.42681885 39.50763428 1.88903809 38.5504248 1.33496094 37.56420898 C0.19849801 35.54713774 -0.93822042 33.53021044 -2.07519531 31.51342773 C-2.62191895 30.54324707 -3.16864258 29.57306641 -3.73193359 28.57348633 C-6.89415221 22.97345581 -10.08992641 17.39265309 -13.29003906 11.81420898 C-11.31476383 9.45881206 -9.30783051 7.1332347 -7.29003906 4.81420898 C-6.44441406 3.82420898 -5.59878906 2.83420898 -4.72753906 1.81420898 C-2.29003906 -0.18579102 -2.29003906 -0.18579102 0 0 Z " fill="#CACACA" transform="translate(30.2900390625,17.185791015625)"/>
<path d="M0 0 C4.01555457 3.21483387 7.85592864 6.60237526 11.625 10.1015625 C10.20761511 13.35363342 8.49973588 15.41517317 5.9375 17.8515625 C3.32786927 20.39141701 0.84729863 22.94325165 -1.5 25.7265625 C-4.9278078 29.72303888 -8.635336 33.40088379 -12.375 37.1015625 C-17.78995534 42.44620902 -17.78995534 42.44620902 -22.875 48.1015625 C-26.72045618 52.65332696 -31.00765897 56.76177389 -35.24194336 60.94677734 C-38.96285346 64.64018442 -42.52805583 68.38868348 -45.84765625 72.453125 C-47.83282598 74.5956867 -50.0669359 76.31894301 -52.375 78.1015625 C-52.52195312 77.10898438 -52.66890625 76.11640625 -52.8203125 75.09375 C-56.41637413 52.60582042 -68.07826953 33.60108865 -86 19.4140625 C-98.85934902 10.17192391 -112.79864134 4.57631107 -128.375 2.1015625 C-119.46082163 -7.65107819 -105.78026581 -13.12152911 -93.375 -16.8984375 C-92.68599609 -17.10871582 -91.99699219 -17.31899414 -91.28710938 -17.53564453 C-60.1311439 -26.6192051 -25.78869809 -19.41649071 0 0 Z " fill="#CACACA" transform="translate(360.375,37.8984375)"/>
<path d="M0 0 C2.91834217 1.31483573 4.94920929 2.71633276 7.171875 5.01171875 C7.75018066 5.60162598 8.32848633 6.1915332 8.92431641 6.79931641 C9.82802979 7.73396729 9.82802979 7.73396729 10.75 8.6875 C15.17722535 13.19732712 19.6207076 17.57844314 24.4453125 21.66796875 C26.40228667 23.34467275 28.21594807 25.14161257 30 27 C28.66000502 30.006818 27.20154709 31.99762609 24.8125 34.25 C22.38753604 36.60073037 20.11497704 38.98158179 17.9375 41.5625 C14.48607977 45.57741741 10.76059312 49.27865638 7 53 C1.58504333 58.34464544 1.58504333 58.34464544 -3.5 64 C-7.35188776 68.55937735 -11.64812208 72.67246864 -15.88671875 76.8671875 C-18.86800977 79.82940843 -21.78563316 82.78707598 -24.5 86 C-28.35188776 90.55937735 -32.64812208 94.67246864 -36.88671875 98.8671875 C-40.4269182 102.38474175 -43.78365702 105.96713663 -47.00390625 109.78125 C-52.07933644 115.42282407 -57.60205246 120.66943322 -63 126 C-68.36977944 121.47323343 -73.52381525 116.76379758 -78.625 111.9375 C-79.36234375 111.24333984 -80.0996875 110.54917969 -80.859375 109.83398438 C-84.62991511 106.27629734 -88.35956323 102.69079855 -92 99 C-90.65525572 96.03179742 -89.14559865 93.8597265 -86.91015625 91.49609375 C-86.29591797 90.84318359 -85.68167969 90.19027344 -85.04882812 89.51757812 C-84.39333984 88.83115234 -83.73785156 88.14472656 -83.0625 87.4375 C-82.39025391 86.72658203 -81.71800781 86.01566406 -81.02539062 85.28320312 C-76.21585153 80.21739934 -71.30024423 75.27330139 -66.33203125 70.36328125 C-64.35680456 68.36158586 -62.50544476 66.33023886 -60.6875 64.1875 C-57.33111691 60.24598475 -53.67681813 56.63862238 -50 53 C-44.58504866 47.65535023 -44.58504866 47.65535023 -39.5 42 C-35.64811224 37.44062265 -31.35187792 33.32753136 -27.11328125 29.1328125 C-23.5710126 25.61320229 -20.21105392 22.03021423 -16.9921875 18.2109375 C-13.40153111 14.22601296 -9.53789827 10.50084927 -5.70898438 6.74609375 C-5.11666016 6.16214844 -4.52433594 5.57820312 -3.9140625 4.9765625 C-3.3773291 4.45143066 -2.8405957 3.92629883 -2.28759766 3.38525391 C-0.88723997 2.0089621 -0.88723997 2.0089621 0 0 Z " fill="#CACACA" transform="translate(312,157)"/>
<path d="M0 0 C4.98577577 2.21436451 8.3106442 5.94246774 12.125 9.75 C12.85332031 10.45382813 13.58164062 11.15765625 14.33203125 11.8828125 C19.41740012 16.93998154 21.94333209 20.48658954 22.0625 27.875 C21.13072504 33.27321797 17.7249372 36.20865388 14 40 C12.9326326 41.1477363 11.86914938 42.2990914 10.80859375 43.453125 C4.55726068 50.24372717 -1.79173832 56.89686065 -8.40234375 63.33984375 C-10.45569069 65.44259453 -12.382608 67.56717395 -14.30078125 69.7890625 C-18.11110585 74.18304805 -22.14053581 78.32420236 -26.25 82.4375 C-26.95640625 83.15615234 -27.6628125 83.87480469 -28.390625 84.61523438 C-29.07125 85.29779297 -29.751875 85.98035156 -30.453125 86.68359375 C-31.06317383 87.29775146 -31.67322266 87.91190918 -32.30175781 88.54467773 C-35.79018115 91.5341101 -39.99474533 91.52686912 -44.39453125 91.45703125 C-49.19806225 90.61443286 -51.70132017 87.37391288 -55 84 C-56.04776673 83.05606296 -57.10300609 82.12037964 -58.1640625 81.19140625 C-58.71465332 80.70583252 -59.26524414 80.22025879 -59.83251953 79.7199707 C-60.93226697 78.75048617 -62.03475443 77.78409978 -63.14013672 76.82104492 C-64.4843113 75.60825745 -65.74934684 74.30901697 -67 73 C-67 70 -67 70 -64.40234375 67.14453125 C-63.25395405 66.0270746 -62.09856471 64.91678122 -60.9375 63.8125 C-59.72469775 62.63212128 -58.51374236 61.44984186 -57.3046875 60.265625 C-56.72428711 59.69779297 -56.14388672 59.12996094 -55.54589844 58.54492188 C-53.7900875 56.7902201 -52.1579208 54.96377868 -50.5625 53.0625 C-46.68666792 48.48726965 -42.37624385 44.35158442 -38.11791992 40.13745117 C-34.52304465 36.56561075 -31.10882208 32.92566267 -27.8359375 29.0546875 C-24.8412392 25.70317408 -21.60959101 22.5897837 -18.4128418 19.43237305 C-14.97807055 16.0235777 -11.7392298 12.51059142 -8.6015625 8.82421875 C-5.88724289 5.73254251 -2.94790392 2.86726218 0 0 Z " fill="#CACACA" transform="translate(475,148)"/>
<path d="M0 0 C2.875 0.375 2.875 0.375 4.875 2.375 C5.42578125 5.01953125 5.42578125 5.01953125 4.875 8.375 C2.9153433 11.24292238 0.51795529 13.61646161 -1.9375 16.0625 C-2.61876953 16.76439453 -3.30003906 17.46628906 -4.00195312 18.18945312 C-6.02705075 20.26779275 -8.07159516 22.32466071 -10.125 24.375 C-10.67849121 24.93010254 -11.23198242 25.48520508 -11.80224609 26.05712891 C-14.12432143 28.38367407 -16.45500467 30.70113931 -18.79296875 33.01171875 C-20.76819544 35.01341414 -22.61955524 37.04476114 -24.4375 39.1875 C-27.79388309 43.12901525 -31.44818187 46.73637762 -35.125 50.375 C-40.53995134 55.71964977 -40.53995134 55.71964977 -45.625 61.375 C-49.47688776 65.93437735 -53.77312208 70.04746864 -58.01171875 74.2421875 C-60.99300977 77.20440843 -63.91063316 80.16207598 -66.625 83.375 C-70.47688776 87.93437735 -74.77312208 92.04746864 -79.01171875 96.2421875 C-81.99300977 99.20440843 -84.91063316 102.16207598 -87.625 105.375 C-91.47688776 109.93437735 -95.77312208 114.04746864 -100.01171875 118.2421875 C-102.99300977 121.20440843 -105.91063316 124.16207598 -108.625 127.375 C-112.47688776 131.93437735 -116.77312208 136.04746864 -121.01171875 140.2421875 C-123.99300977 143.20440843 -126.91063316 146.16207598 -129.625 149.375 C-133.46912417 153.9251878 -137.75467199 158.03232426 -141.98754883 162.21582031 C-145.77457058 165.97479761 -149.39709211 169.80023053 -152.79296875 173.921875 C-154.86813958 176.18569772 -156.57297003 177.30599625 -159.625 177.6875 C-162.125 177.375 -162.125 177.375 -164 176.25 C-165.125 174.375 -165.125 174.375 -165.046875 171.625 C-163.87045144 167.47760847 -161.58586736 165.32288572 -158.5 162.5 C-157.39006718 161.44074756 -156.28198342 160.37955411 -155.17578125 159.31640625 C-154.64291504 158.80867676 -154.11004883 158.30094727 -153.56103516 157.77783203 C-151.8262525 156.08315995 -150.24545006 154.29520754 -148.6875 152.4375 C-145.52489997 148.71542282 -142.09529022 145.30634196 -138.625 141.875 C-135.19654895 138.48494146 -131.80239258 135.12305992 -128.6875 131.4375 C-125.37927342 127.53230021 -121.75986259 123.97219074 -118.125 120.375 C-112.71005132 115.03034806 -112.71005132 115.03034806 -107.625 109.375 C-103.77311224 104.81562265 -99.47687792 100.70253136 -95.23828125 96.5078125 C-92.25699023 93.54559157 -89.33936684 90.58792402 -86.625 87.375 C-82.77311224 82.81562265 -78.47687792 78.70253136 -74.23828125 74.5078125 C-71.25699023 71.54559157 -68.33936684 68.58792402 -65.625 65.375 C-61.77311224 60.81562265 -57.47687792 56.70253136 -53.23828125 52.5078125 C-50.25699023 49.54559157 -47.33936684 46.58792402 -44.625 43.375 C-40.77377784 38.81641051 -36.47836869 34.70397829 -32.24047852 30.51000977 C-28.67271007 26.96508417 -25.2882115 23.35237949 -22.0390625 19.51171875 C-17.7614012 14.73645195 -13.12426061 10.28177922 -8.54882812 5.79345703 C-7.31141715 4.56071393 -6.11462586 3.28745696 -4.92578125 2.0078125 C-3.125 0.375 -3.125 0.375 0 0 Z " fill="#050301" transform="translate(211.125,289.625)"/>
<path d="M0 0 C2.25889216 2.08852878 3.21811316 3.44461529 4.625 6.3125 C7.19060909 10.99622822 11.35349584 13.56222141 16 16 C18.17286078 16.66968049 18.17286078 16.66968049 20 17 C18.34264193 21.34924537 15.08842506 24.09131761 11.8125 27.25 C6.51533004 32.43098388 6.51533004 32.43098388 1.5625 37.9375 C-2.3053285 42.50328251 -6.60586472 46.63106283 -10.85571289 50.83618164 C-15.1060759 55.05900078 -19.18164899 59.37778562 -23 64 C-24.12614593 62.31078111 -25.23784616 60.61099257 -26.296875 58.87890625 C-30.69502336 51.86787944 -34.90325362 48.31335611 -43 46 C-34.65102612 36.02761453 -25.71025968 26.63539299 -16.46484375 17.49609375 C-13.72242194 14.71890272 -11.16892075 11.82689502 -8.63671875 8.859375 C-5.90728152 5.75863008 -2.95999337 2.87902091 0 0 Z " fill="#C9C9C9" transform="translate(435,135)"/>
</svg>
