<?xml version="1.0" encoding="UTF-8"?>
<svg version="1.1" xmlns="http://www.w3.org/2000/svg" width="35" height="35">
<path d="M0 0 C0.639375 0.01289063 1.27875 0.02578125 1.9375 0.0390625 C2.576875 0.02617187 3.21625 0.01328125 3.875 0 C7.42752471 1.14380531 8.75943908 2.62377437 10.9375 5.6640625 C11.54602628 9.45444024 11.40912042 13.15032848 11.25 16.9765625 C11.22744141 18.00330078 11.20488281 19.03003906 11.18164062 20.08789062 C11.12287575 22.6147804 11.04077849 25.13866505 10.9375 27.6640625 C13.5775 27.6640625 16.2175 27.6640625 18.9375 27.6640625 C19.2675 43.1740625 19.5975 58.6840625 19.9375 74.6640625 C22.2475 72.3540625 24.5575 70.0440625 26.9375 67.6640625 C27.9275 67.6640625 28.9175 67.6640625 29.9375 67.6640625 C29.9375 87.1340625 29.9375 106.6040625 29.9375 126.6640625 C10.4675 126.6640625 -9.0025 126.6640625 -29.0625 126.6640625 C-28.0625 122.6640625 -28.0625 122.6640625 -22.0625 116.6640625 C-38.8925 116.3340625 -55.7225 116.0040625 -73.0625 115.6640625 C-73.3925 117.3140625 -73.7225 118.9640625 -74.0625 120.6640625 C-77.58800785 124.64155854 -79.41906633 126.52478846 -84.75 126.9765625 C-89.52674922 126.91565677 -92.20526675 125.44127044 -96.0625 122.6640625 C-97.80776063 119.87997038 -98.31458435 117.7574726 -98.32992554 114.49623108 C-98.33845551 113.67337112 -98.34698547 112.85051117 -98.35577393 112.00271606 C-98.35486755 111.10858002 -98.35396118 110.21444397 -98.35302734 109.29321289 C-98.35974457 108.34481033 -98.36646179 107.39640778 -98.37338257 106.41926575 C-98.39238458 103.2833635 -98.39628772 100.14767498 -98.3984375 97.01171875 C-98.40486328 94.83222871 -98.41159147 92.65273955 -98.41860962 90.47325134 C-98.43058746 85.90442911 -98.43428985 81.33568253 -98.43310547 76.7668457 C-98.43290211 70.91113427 -98.46021946 65.05590726 -98.49464989 59.20031071 C-98.51688021 54.69902821 -98.52094421 50.19786307 -98.51988602 45.6965313 C-98.52224722 43.53755458 -98.53109985 41.37857489 -98.54655075 39.21965218 C-98.56613455 36.20085763 -98.56040261 33.18311797 -98.54833984 30.16430664 C-98.55957886 29.27219482 -98.57081787 28.38008301 -98.58239746 27.4609375 C-98.54045368 23.33264755 -98.41125589 21.21517138 -96.15567017 17.65086365 C-92.84078676 14.50443329 -90.24988839 13.3691044 -85.6875 13.2890625 C-81.09945613 13.41734662 -78.49483432 14.47689491 -75.0625 17.6640625 C-73.11664211 20.90715899 -72.0625 23.83467793 -72.0625 27.6640625 C-50.6125 27.6640625 -29.1625 27.6640625 -7.0625 27.6640625 C-7.0625 20.4040625 -7.0625 13.1440625 -7.0625 5.6640625 C-2.0625 0.6640625 -2.0625 0.6640625 0 0 Z M12.65234375 102.81640625 C11.27755859 104.19505859 11.27755859 104.19505859 9.875 105.6015625 C8.95589844 106.51808594 8.03679687 107.43460937 7.08984375 108.37890625 C4.82322727 110.26218797 4.82322727 110.26218797 4.9375 111.6640625 C8.5675 111.6640625 12.1975 111.6640625 15.9375 111.6640625 C15.9375 108.0340625 15.9375 104.4040625 15.9375 100.6640625 C14.53562547 100.54978977 14.53562547 100.54978977 12.65234375 102.81640625 Z " fill="#D6E6F8" transform="translate(98.0625,0.3359375)"/>
<path d="M0 0 C0.639375 0.01289063 1.27875 0.02578125 1.9375 0.0390625 C2.576875 0.02617187 3.21625 0.01328125 3.875 0 C7.42752471 1.14380531 8.75943908 2.62377437 10.9375 5.6640625 C11.54602628 9.45444024 11.40912042 13.15032848 11.25 16.9765625 C11.22744141 18.00330078 11.20488281 19.03003906 11.18164062 20.08789062 C11.12287575 22.6147804 11.04077849 25.13866505 10.9375 27.6640625 C13.5775 27.6640625 16.2175 27.6640625 18.9375 27.6640625 C19.2675 43.1740625 19.5975 58.6840625 19.9375 74.6640625 C22.2475 72.3540625 24.5575 70.0440625 26.9375 67.6640625 C27.9275 67.6640625 28.9175 67.6640625 29.9375 67.6640625 C29.9375 87.1340625 29.9375 106.6040625 29.9375 126.6640625 C10.4675 126.6640625 -9.0025 126.6640625 -29.0625 126.6640625 C-28.0625 122.6640625 -28.0625 122.6640625 -22.0625 116.6640625 C-38.8925 116.3340625 -55.7225 116.0040625 -73.0625 115.6640625 C-73.3925 117.3140625 -73.7225 118.9640625 -74.0625 120.6640625 C-77.58800785 124.64155854 -79.41906633 126.52478846 -84.75 126.9765625 C-89.52674922 126.91565677 -92.20526675 125.44127044 -96.0625 122.6640625 C-97.80776063 119.87997038 -98.31458435 117.7574726 -98.32992554 114.49623108 C-98.33845551 113.67337112 -98.34698547 112.85051117 -98.35577393 112.00271606 C-98.35486755 111.10858002 -98.35396118 110.21444397 -98.35302734 109.29321289 C-98.35974457 108.34481033 -98.36646179 107.39640778 -98.37338257 106.41926575 C-98.39238458 103.2833635 -98.39628772 100.14767498 -98.3984375 97.01171875 C-98.40486328 94.83222871 -98.41159147 92.65273955 -98.41860962 90.47325134 C-98.43058746 85.90442911 -98.43428985 81.33568253 -98.43310547 76.7668457 C-98.43290211 70.91113427 -98.46021946 65.05590726 -98.49464989 59.20031071 C-98.51688021 54.69902821 -98.52094421 50.19786307 -98.51988602 45.6965313 C-98.52224722 43.53755458 -98.53109985 41.37857489 -98.54655075 39.21965218 C-98.56613455 36.20085763 -98.56040261 33.18311797 -98.54833984 30.16430664 C-98.55957886 29.27219482 -98.57081787 28.38008301 -98.58239746 27.4609375 C-98.54045368 23.33264755 -98.41125589 21.21517138 -96.15567017 17.65086365 C-92.84078676 14.50443329 -90.24988839 13.3691044 -85.6875 13.2890625 C-81.09945613 13.41734662 -78.49483432 14.47689491 -75.0625 17.6640625 C-73.11664211 20.90715899 -72.0625 23.83467793 -72.0625 27.6640625 C-50.6125 27.6640625 -29.1625 27.6640625 -7.0625 27.6640625 C-7.0625 20.4040625 -7.0625 13.1440625 -7.0625 5.6640625 C-2.0625 0.6640625 -2.0625 0.6640625 0 0 Z M-73.0625 30.6640625 C-73.0625 57.7240625 -73.0625 84.7840625 -73.0625 112.6640625 C-34.98282794 117.39313798 -34.98282794 117.39313798 -0.6015625 103.75 C11.83866991 92.20374603 17.21224646 80.98234477 17.99867249 63.9704895 C18.20490326 52.81383497 17.35274277 41.72445752 15.9375 30.6640625 C13.9575 30.6640625 11.9775 30.6640625 9.9375 30.6640625 C9.93339111 31.40978516 9.92928223 32.15550781 9.92504883 32.92382812 C9.89193479 36.33801762 9.8212689 39.75046484 9.75 43.1640625 C9.74129883 44.92363281 9.74129883 44.92363281 9.73242188 46.71875 C9.5657331 53.31221709 9.06839202 57.87473542 5.00268555 63.19335938 C3.74197341 64.63137196 3.74197341 64.63137196 3.9375 66.6640625 C-0.0625 64.6640625 -0.0625 64.6640625 -5.0625 56.6640625 C-5.5575 43.7940625 -5.5575 43.7940625 -6.0625 30.6640625 C-28.1725 30.6640625 -50.2825 30.6640625 -73.0625 30.6640625 Z M12.65234375 102.81640625 C11.27755859 104.19505859 11.27755859 104.19505859 9.875 105.6015625 C8.95589844 106.51808594 8.03679687 107.43460937 7.08984375 108.37890625 C4.82322727 110.26218797 4.82322727 110.26218797 4.9375 111.6640625 C8.5675 111.6640625 12.1975 111.6640625 15.9375 111.6640625 C15.9375 108.0340625 15.9375 104.4040625 15.9375 100.6640625 C14.53562547 100.54978977 14.53562547 100.54978977 12.65234375 102.81640625 Z " fill="#090706" transform="translate(98.0625,0.3359375)"/>
<path d="M0 0 C3.06476445 1.75861136 5.41835598 4.15294245 7.87524414 6.65283203 C8.69910614 7.47594627 8.69910614 7.47594627 9.53961182 8.31568909 C10.69627689 9.47469087 11.84925931 10.63737802 12.9987793 11.8034668 C14.76460867 13.59296092 16.54345522 15.36869146 18.32446289 17.14306641 C19.44635241 18.27053034 20.56747335 19.39875968 21.68774414 20.52783203 C22.22204041 21.06121689 22.75633667 21.59460175 23.30682373 22.14414978 C27.01586914 25.92570152 27.01586914 25.92570152 27.01586914 28.15673828 C25.36586914 28.48673828 23.71586914 28.81673828 22.01586914 29.15673828 C21.68586914 37.73673828 21.35586914 46.31673828 21.01586914 55.15673828 C15.05268684 55.17964423 9.08965603 55.19957224 3.12646484 55.21166992 C1.09618616 55.21671106 -0.93408888 55.22354385 -2.96435547 55.23217773 C-5.87590433 55.24425296 -8.78740536 55.24996862 -11.69897461 55.25439453 C-13.06928078 55.26213646 -13.06928078 55.26213646 -14.4672699 55.27003479 C-16.63988513 55.27022996 -18.81240382 55.21885633 -20.98413086 55.15673828 C-21.98413086 54.15673828 -21.98413086 54.15673828 -22.09765625 51.65649414 C-22.09241943 50.57247314 -22.08718262 49.48845215 -22.08178711 48.37158203 C-22.07856445 47.20175781 -22.0753418 46.03193359 -22.07202148 44.82666016 C-22.06364258 43.59496094 -22.05526367 42.36326172 -22.04663086 41.09423828 C-22.04211914 39.85867187 -22.03760742 38.62310547 -22.03295898 37.35009766 C-22.02112694 34.28559711 -22.00464259 31.22119107 -21.98413086 28.15673828 C-23.63413086 28.15673828 -25.28413086 28.15673828 -26.98413086 28.15673828 C-26.52461057 23.8256792 -23.70714816 21.412169 -20.77709961 18.48095703 C-20.25529617 17.95154007 -19.73349274 17.42212311 -19.19587708 16.87666321 C-18.09263475 15.76263434 -16.98541051 14.65253664 -15.87451172 13.54614258 C-14.17397193 11.84657801 -12.49588741 10.12679331 -10.81811523 8.40478516 C-9.74324605 7.32471113 -8.66711572 6.24589041 -7.58959961 5.16845703 C-7.0884111 4.65087326 -6.5872226 4.13328949 -6.07084656 3.60002136 C-2.60942889 0.20613429 -2.60942889 0.20613429 0 0 Z " fill="#0C0D10" transform="translate(59.984130859375,33.84326171875)"/>
<path d="M0 0 C3.1999131 1.14713866 4.24804413 2.90220336 6.0703125 5.7421875 C6.43740462 8.57678753 6.57869043 11.01113832 6.52441406 13.8371582 C6.52499817 14.63768112 6.52558228 15.43820404 6.52618408 16.26298523 C6.52340624 18.898427 6.49232951 21.53272555 6.4609375 24.16796875 C6.45347402 25.99927655 6.44778159 27.83059236 6.44378662 29.66191101 C6.42853871 34.47403137 6.38926419 39.28566623 6.3449707 44.09759521 C6.3039998 49.01096021 6.28577172 53.92440392 6.265625 58.83789062 C6.2227691 68.47286917 6.15452798 78.10748791 6.0703125 87.7421875 C4.90338867 87.25540527 4.90338867 87.25540527 3.71289062 86.75878906 C1.10560744 85.75576549 -0.66302434 85.47270396 -3.4296875 85.4921875 C-4.161875 85.48703125 -4.8940625 85.481875 -5.6484375 85.4765625 C-8.32433832 85.78813999 -10.45274315 86.70893027 -12.9296875 87.7421875 C-13.04555842 77.13718658 -13.1343913 66.53233635 -13.18874836 55.92683125 C-13.21483774 51.00218147 -13.25022379 46.0779649 -13.30688477 41.15356445 C-13.36122802 36.40083245 -13.391113 31.648517 -13.40407372 26.89549828 C-13.41330945 25.08256663 -13.43134502 23.26965768 -13.45833778 21.45690346 C-13.49465991 18.91648804 -13.49963169 16.37779168 -13.49731445 13.8371582 C-13.51529083 13.08837402 -13.53326721 12.33958984 -13.55178833 11.56811523 C-13.51250839 7.58581954 -13.07707378 5.92216104 -10.51921082 2.79875183 C-6.6757391 -0.25368133 -4.90581933 -0.31710619 0 0 Z " fill="#8FC7FA" transform="translate(15.9296875,17.2578125)"/>
<path d="M0 0 C0 16.5 0 33 0 50 C-1.32 50 -2.64 50 -4 50 C-4 48.35 -4 46.7 -4 45 C-4.66 45 -5.32 45 -6 45 C-6 46.65 -6 48.3 -6 50 C-7.32 50 -8.64 50 -10 50 C-10 48.35 -10 46.7 -10 45 C-10.99 45 -11.98 45 -13 45 C-13 46.65 -13 48.3 -13 50 C-13.99 50 -14.98 50 -16 50 C-16 48.35 -16 46.7 -16 45 C-16.99 45 -17.98 45 -19 45 C-19 46.65 -19 48.3 -19 50 C-20.32 50 -21.64 50 -23 50 C-23 48.35 -23 46.7 -23 45 C-23.66 45 -24.32 45 -25 45 C-25 46.65 -25 48.3 -25 50 C-26.32 50 -27.64 50 -29 50 C-29 48.35 -29 46.7 -29 45 C-29.99 45 -30.98 45 -32 45 C-32 46.65 -32 48.3 -32 50 C-32.99 50 -33.98 50 -35 50 C-35 48.35 -35 46.7 -35 45 C-35.99 45 -36.98 45 -38 45 C-38 46.65 -38 48.3 -38 50 C-41.96 50 -45.92 50 -50 50 C-45.00112452 43.96737 -39.58685492 38.44166238 -34.04296875 32.91015625 C-33.08972335 31.95623599 -32.13662634 31.00216744 -31.18367004 30.04795837 C-29.20096891 28.06379314 -27.21649566 26.08142273 -25.23071289 24.1003418 C-22.68058901 21.55596144 -20.1350441 19.00705427 -17.59076977 16.45682621 C-15.63069028 14.49314599 -13.66825138 12.53183772 -11.7050724 10.57125664 C-10.30717193 9.17434933 -8.91128843 7.77542457 -7.51542664 6.3764801 C-6.25325066 5.11903236 -6.25325066 5.11903236 -4.96557617 3.83618164 C-4.22200363 3.09340469 -3.47843109 2.35062775 -2.71232605 1.58534241 C-1 0 -1 0 0 0 Z M-14.28515625 29.15234375 C-15.65994141 30.53099609 -15.65994141 30.53099609 -17.0625 31.9375 C-17.98160156 32.85402344 -18.90070313 33.77054688 -19.84765625 34.71484375 C-22.11427273 36.59812547 -22.11427273 36.59812547 -22 38 C-18.37 38 -14.74 38 -11 38 C-11 34.37 -11 30.74 -11 27 C-12.40187453 26.88572727 -12.40187453 26.88572727 -14.28515625 29.15234375 Z " fill="#F7BA32" transform="translate(125,74)"/>
<path d="M0 0 C5.25111196 -0.02290839 10.50205178 -0.04283563 15.75317383 -0.05493164 C17.54094021 -0.05997218 19.32870245 -0.06680454 21.11645508 -0.07543945 C23.68051168 -0.0875173 26.24451397 -0.09323094 28.80859375 -0.09765625 C29.6127623 -0.10281754 30.41693085 -0.10797882 31.24546814 -0.11329651 C33.16401715 -0.11349215 35.08245368 -0.06201983 37 0 C38 1 38 1 38.11352539 3.22485352 C38.10828857 4.18319092 38.10305176 5.14152832 38.09765625 6.12890625 C38.09443359 7.16337891 38.09121094 8.19785156 38.08789062 9.26367188 C38.07532227 10.8965918 38.07532227 10.8965918 38.0625 12.5625 C38.05798828 13.65498047 38.05347656 14.74746094 38.04882812 15.87304688 C38.03699826 18.58208495 38.02051543 21.29101599 38 24 C35.03 24 32.06 24 29 24 C28.95101562 23.26394531 28.90203125 22.52789062 28.8515625 21.76953125 C28.77679688 20.79371094 28.70203125 19.81789063 28.625 18.8125 C28.55539063 17.84957031 28.48578125 16.88664062 28.4140625 15.89453125 C27.99426019 12.95987549 27.29682297 10.66014969 26 8 C24.27523089 7.04497842 24.27523089 7.04497842 22 7 C20.865625 6.87625 19.73125 6.7525 18.5625 6.625 C14.95211004 6.74829928 14.95211004 6.74829928 12.125 8.75 C8.97735164 13.56405043 9.09904151 18.35463366 9 24 C6.03 24 3.06 24 0 24 C0 16.08 0 8.16 0 0 Z " fill="#D2E2F3" transform="translate(41,62)"/>
<path d="M0 0 C2.79208398 1.3859768 4.60613613 3.22975048 6.79736328 5.44604492 C7.68681641 6.3406543 8.57626953 7.23526367 9.49267578 8.15698242 C10.41306641 9.09799805 11.33345703 10.03901367 12.28173828 11.00854492 C13.22641558 11.95969705 14.17172149 12.91022529 15.11767578 13.86010742 C22.03173828 20.85480039 22.03173828 20.85480039 22.03173828 22.00854492 C7.51173828 22.00854492 -7.00826172 22.00854492 -21.96826172 22.00854492 C-19.25966269 16.59134686 -15.33269679 12.96533516 -11.09326172 8.69604492 C-10.27728516 7.84719727 -9.46130859 6.99834961 -8.62060547 6.1237793 C-7.83041016 5.32649414 -7.04021484 4.52920898 -6.22607422 3.70776367 C-5.50564941 2.97388428 -4.78522461 2.24000488 -4.04296875 1.48388672 C-1.96826172 0.00854492 -1.96826172 0.00854492 0 0 Z " fill="#CFDFF1" transform="translate(59.96826171875,37.991455078125)"/>
<path d="M0 0 C3.3 0 6.6 0 10 0 C10 12.54 10 25.08 10 38 C6.7 38 3.4 38 0 38 C0 25.46 0 12.92 0 0 Z " fill="#D09C2B" transform="translate(95,16)"/>
<path d="M0 0 C2.86830829 2.01391859 4.61592935 3.45434983 5.48046875 6.93359375 C5.75669245 10.88284615 5.25523948 12.63647711 2.9375 15.9375 C-0.57823396 18.40599406 -2.71383323 19 -7 19 C-9.90900097 17.77175515 -11.46552692 16.73808187 -13.3125 14.1875 C-14.44543113 10.58271914 -14.44543113 7.41728086 -13.3125 3.8125 C-9.67978085 -1.20411216 -5.74256954 -1.64073415 0 0 Z " fill="#62A9EA" transform="translate(17,105)"/>
<path d="M0 0 C0.02888146 3.31248187 0.04675799 6.62493167 0.0625 9.9375 C0.07087891 10.88302734 0.07925781 11.82855469 0.08789062 12.80273438 C0.09272461 14.15141602 0.09272461 14.15141602 0.09765625 15.52734375 C0.10551147 16.77632446 0.10551147 16.77632446 0.11352539 18.05053711 C0 20 0 20 -1 21 C-2.41570123 21.08651611 -3.835595 21.10704904 -5.25390625 21.09765625 C-6.10791016 21.09443359 -6.96191406 21.09121094 -7.84179688 21.08789062 C-8.73962891 21.07951172 -9.63746094 21.07113281 -10.5625 21.0625 C-11.46419922 21.05798828 -12.36589844 21.05347656 -13.29492188 21.04882812 C-15.53001314 21.03700225 -17.76497437 21.0205222 -20 21 C-20 17 -20 17 -18.48706055 14.98535156 C-17.79394775 14.2940918 -17.10083496 13.60283203 -16.38671875 12.890625 C-15.63326172 12.13652344 -14.87980469 11.38242188 -14.10351562 10.60546875 C-13.30623047 9.82816406 -12.50894531 9.05085938 -11.6875 8.25 C-10.90181641 7.45722656 -10.11613281 6.66445312 -9.30664062 5.84765625 C-3.39356309 0 -3.39356309 0 0 0 Z M-6.28515625 8.15234375 C-7.65994141 9.53099609 -7.65994141 9.53099609 -9.0625 10.9375 C-9.98160156 11.85402344 -10.90070313 12.77054688 -11.84765625 13.71484375 C-14.11427273 15.59812547 -14.11427273 15.59812547 -14 17 C-10.37 17 -6.74 17 -3 17 C-3 13.37 -3 9.74 -3 6 C-4.40187453 5.88572727 -4.40187453 5.88572727 -6.28515625 8.15234375 Z " fill="#0C0904" transform="translate(117,95)"/>
<path d="M0 0 C2.4375 1.3125 2.4375 1.3125 4 4 C4.32773378 7.73401596 4.1791951 11.2369028 4 15 C-0.62 15 -5.24 15 -10 15 C-10.36998514 3.53046062 -10.36998514 3.53046062 -8.703125 1.140625 C-5.79990014 -0.8037366 -3.37189102 -0.41409188 0 0 Z " fill="#D4E5F6" transform="translate(63,71)"/>
<path d="M0 0 C0.99 0 1.98 0 3 0 C3 0.66 3 1.32 3 2 C18.84 2 34.68 2 51 2 C51 1.34 51 0.68 51 0 C51.99 0 52.98 0 54 0 C54 2.31 54 4.62 54 7 C53.01 7.33 52.02 7.66 51 8 C51 7.01 51 6.02 51 5 C35.16 5 19.32 5 3 5 C2.67 5.99 2.34 6.98 2 8 C1.34 8 0.68 8 0 8 C0 5.36 0 2.72 0 0 Z " fill="#121317" transform="translate(33,91)"/>
<path d="M0 0 C0.99 0 1.98 0 3 0 C3 18.81 3 37.62 3 57 C2.01 57 1.02 57 0 57 C0 38.19 0 19.38 0 0 Z " fill="#040509" transform="translate(11,36)"/>
<path d="M0 0 C1.8125 1.125 1.8125 1.125 3 3 C3.39769128 6.18153026 3.55198782 8.12844028 1.8125 10.875 C-0.65507108 12.40659584 -2.14519831 12.42822025 -5 12 C-6.8125 10.875 -6.8125 10.875 -8 9 C-8.39769128 5.81846974 -8.55198782 3.87155972 -6.8125 1.125 C-4.34492892 -0.40659584 -2.85480169 -0.42822025 0 0 Z " fill="#090E15" transform="translate(15,108)"/>
<path d="M0 0 C3 0.25 3 0.25 5 2.25 C5.125 5.875 5.125 5.875 5 9.25 C1.7 9.25 -1.6 9.25 -5 9.25 C-5.125 5.875 -5.125 5.875 -5 2.25 C-3 0.25 -3 0.25 0 0 Z " fill="#F2656C" transform="translate(100,3.75)"/>
<path d="M0 0 C0.66 0.33 1.32 0.66 2 1 C1.52433594 1.79664062 1.52433594 1.79664062 1.0390625 2.609375 C-0.2370349 5.54535848 -0.41707021 8.06174329 -0.625 11.25 C-0.69976562 12.32765625 -0.77453125 13.4053125 -0.8515625 14.515625 C-0.90054688 15.33546875 -0.94953125 16.1553125 -1 17 C-1.33 17 -1.66 17 -2 17 C-2.23226327 15.00917197 -2.46437259 13.01832572 -2.6953125 11.02734375 C-2.93883106 8.93570369 -2.93883106 8.93570369 -3.8125 6.8125 C-4 5 -4 5 -2.0625 2.25 C-1.381875 1.5075 -0.70125 0.765 0 0 Z " fill="#0F1013" transform="translate(54,69)"/>
<path d="M0 0 C2.0625 0.4375 2.0625 0.4375 4 1 C4 2.32 4 3.64 4 5 C2.68 5.33 1.36 5.66 0 6 C-0.38218767 4.34385343 -0.71395102 2.67542976 -1 1 C-0.67 0.67 -0.34 0.34 0 0 Z " fill="#8BC1F4" transform="translate(11,111)"/>
<path d="M0 0 C0.433125 0.61875 0.86625 1.2375 1.3125 1.875 C2.99740483 4.2197245 2.99740483 4.2197245 6 6 C5.67 6.66 5.34 7.32 5 8 C2.13275314 7.42655063 1.1385485 7.1385485 -1 5 C-0.625 2.375 -0.625 2.375 0 0 Z " fill="#04070C" transform="translate(8,112)"/>
</svg>
