<?xml version="1.0" encoding="UTF-8"?>
<svg version="1.1" xmlns="http://www.w3.org/2000/svg" width="35" height="35">
<path d="M0 0 C1.90570514 -0.00573832 1.90570514 -0.00573832 3.84990937 -0.01159257 C7.36037984 -0.02184679 10.87074789 -0.01969736 14.38122666 -0.01541197 C18.17339745 -0.01294008 21.96554388 -0.02196462 25.75770569 -0.02944946 C33.18054445 -0.04218526 40.60334702 -0.04399158 48.02619486 -0.0416492 C54.06044689 -0.03986476 60.09468795 -0.04161837 66.12893867 -0.04587364 C67.41812106 -0.04676643 67.41812106 -0.04676643 68.73334752 -0.04767724 C70.47943067 -0.04888902 72.22551382 -0.05010315 73.97159696 -0.05131962 C90.33840251 -0.06219068 106.70518743 -0.06003462 123.07199413 -0.05393478 C138.03867344 -0.04876502 153.00528767 -0.06002337 167.9719541 -0.07903299 C183.34833572 -0.09841298 198.72468656 -0.10666717 214.10108048 -0.10290974 C222.7303364 -0.10099807 231.35953693 -0.10348206 239.98878288 -0.11762428 C247.33427186 -0.12954103 254.67967134 -0.13093962 262.02516156 -0.11883412 C265.77110822 -0.11294772 269.51689119 -0.11183933 273.26282692 -0.12383652 C277.3275285 -0.13670314 281.39184093 -0.12622539 285.45654297 -0.11352539 C286.63495536 -0.12089968 287.81336775 -0.12827396 289.0274896 -0.13587171 C296.84881044 -0.08445917 303.33646131 0.88751522 310.10426331 4.94819641 C315.52315631 10.67674045 316.88487387 16.64144322 316.806427 24.33113098 C316.81337253 25.21028561 316.82031806 26.08944024 316.82747406 26.99523592 C316.84568123 29.92317815 316.83549732 32.85030436 316.82521057 35.77827454 C316.83227216 37.88468021 316.84101818 39.99108081 316.85131836 42.09747314 C316.87379354 47.80611556 316.87087711 53.51448048 316.86199689 59.22315025 C316.85688239 63.99216161 316.86418323 68.76112104 316.87146896 73.53012705 C316.88846162 84.78102068 316.88490793 96.03177866 316.86817932 107.28266907 C316.85125202 118.88440829 316.86710259 130.48577142 316.8994022 142.08746958 C316.92610065 152.05542994 316.93337357 162.02327325 316.92488712 171.99126577 C316.91995952 177.94168033 316.92216506 183.89186852 316.94267464 189.84225464 C316.96103595 195.43698368 316.95506699 201.03117165 316.93047523 206.62587166 C316.92546916 208.67691338 316.92895177 210.72799637 316.94162369 212.77900505 C316.95757727 215.58337734 316.94258176 218.3859728 316.91995239 221.19026184 C316.93178812 221.99805604 316.94362385 222.80585023 316.95581824 223.63812304 C316.85789642 229.62854291 314.99751347 233.5769872 311.29176331 238.26069641 C306.70938146 242.61395916 302.37319678 244.51421121 296.05889893 244.50120544 C295.02549881 244.50395477 293.99209869 244.5067041 292.92738342 244.50953674 C291.8045697 244.50234619 290.68175598 244.49515564 289.5249176 244.48774719 C288.33425186 244.48803925 287.14358612 244.4883313 285.9168396 244.4886322 C282.66097206 244.4874794 279.40527748 244.47746381 276.14944434 244.46348429 C272.74350727 244.45096344 269.33756664 244.44980536 265.93161011 244.44743347 C259.48603793 244.44122267 253.04053376 244.4248173 246.59499151 244.40473449 C239.25524245 244.38236301 231.9154901 244.37137893 224.57571542 244.36134362 C209.48102685 244.3404507 194.38640189 244.30528253 179.29176331 244.26069641 C179.42625885 244.84943039 179.56075439 245.43816437 179.69932556 246.04473877 C180.63528367 250.18906424 181.53042332 254.30786287 182.14332581 258.51460266 C182.27223206 259.3879425 182.40113831 260.26128235 182.53395081 261.16108704 C182.66027893 262.03958313 182.78660706 262.91807922 182.91676331 263.82319641 C183.05082581 264.73649719 183.18488831 265.64979797 183.32301331 266.59077454 C183.64888261 268.81366873 183.97174948 271.03695306 184.29176331 273.26069641 C185.05660538 273.26434204 185.82144745 273.26798767 186.60946655 273.27174377 C193.86137712 273.30980643 201.11278428 273.36686309 208.36436939 273.44459915 C212.09140447 273.48390021 215.81820943 273.51617272 219.54542542 273.5316925 C223.15080519 273.54697512 226.75555158 273.58162109 230.3606472 273.62900543 C231.72750491 273.64370098 233.0944531 273.65173054 234.46138954 273.65258026 C244.64467932 273.66526222 254.26431089 274.44395259 262.22926331 281.38569641 C267.58223176 287.40778593 269.77236375 294.37961202 269.62770081 302.35054016 C269.29176331 304.26069641 269.29176331 304.26069641 267.29176331 307.26069641 C264.54737781 308.17549158 262.94712455 308.38663503 260.12315464 308.38933086 C259.26969977 308.39255531 258.4162449 308.39577976 257.53692776 308.39910191 C256.59900338 308.39755331 255.661079 308.39600471 254.69473267 308.39440918 C253.69860488 308.39667474 252.70247709 308.39894029 251.67616361 308.4012745 C248.32283951 308.40762807 244.96955567 308.40678427 241.6162262 308.40596008 C239.21836291 308.40895071 236.8205001 308.41235301 234.42263794 308.4161377 C228.57628769 308.42407078 222.72994696 308.42719275 216.88359243 308.42775007 C212.13255216 308.42822497 207.38151522 308.43027838 202.630476 308.4334507 C189.16610448 308.44225831 175.70174093 308.44686986 162.2373665 308.44612022 C161.14824678 308.44606029 161.14824678 308.44606029 160.03712463 308.44599915 C158.94667825 308.44593782 158.94667825 308.44593782 157.83420264 308.44587526 C146.04860417 308.44546868 134.26303764 308.45504108 122.47744841 308.46913751 C110.3816791 308.48349103 98.28592538 308.49040827 86.19014734 308.48954374 C79.39701549 308.48921143 72.60391712 308.49197326 65.81079292 308.50272179 C59.42426787 308.51276208 53.03779534 308.51250194 46.6512661 308.50520515 C44.30344668 308.50415573 41.95562291 308.50654328 39.60781097 308.51256561 C36.41038204 308.52023793 33.21320086 308.51567237 30.01577759 308.50793457 C28.6122371 308.51564992 28.6122371 308.51564992 27.18034226 308.52352113 C25.89624833 308.51662293 25.89624833 308.51662293 24.58621311 308.50958538 C23.47910963 308.50991143 23.47910963 308.50991143 22.34964043 308.51024407 C19.94288363 308.21838965 18.34817744 307.53235417 16.29176331 306.26069641 C13.72468644 301.12654268 15.50182038 294.94027585 17.19020081 289.75679016 C20.10490013 283.15220552 24.9064233 278.90006672 31.39723206 275.95210266 C35.55761602 274.43377697 39.17994832 274.13842906 43.62086487 274.14717102 C45.54240387 274.14728432 45.54240387 274.14728432 47.50276184 274.1473999 C48.89597106 274.15250615 50.28917988 274.15772214 51.68238831 274.16304016 C53.11156668 274.16490609 54.54074569 274.16632917 55.96992493 274.16732788 C59.72476478 274.17113926 63.47956573 274.18095774 67.23439026 274.19203186 C71.06861342 274.20227566 74.90284289 274.20683186 78.73707581 274.21186829 C86.25532268 274.22258128 93.77353753 274.2396411 101.29176331 274.26069641 C101.32914612 273.51948547 101.36652893 272.77827454 101.40504456 272.01460266 C101.99232682 262.60657116 103.53045507 253.51033402 105.29176331 244.26069641 C104.67038231 244.26438358 104.04900131 244.26807076 103.40879059 244.27186966 C88.26782667 244.36032494 73.12694239 244.42645654 57.98578644 244.4679451 C50.6635305 244.48854355 43.34144737 244.51661178 36.01930237 244.56245422 C29.63503096 244.60240568 23.25088474 244.62814897 16.86649179 244.63705039 C13.48800559 244.64225121 10.10987745 244.65441726 6.73150635 244.68361664 C2.95385078 244.71269041 -0.8230652 244.71665055 -4.60081482 244.71479797 C-5.71284271 244.72917908 -6.82487061 244.74356018 -7.97059631 244.75837708 C-15.48655136 244.71854411 -21.20393408 243.72510184 -26.76683044 238.22554016 C-27.22186951 237.55651672 -27.67690857 236.88749329 -28.14573669 236.19819641 C-28.8553656 235.19079407 -28.8553656 235.19079407 -29.57933044 234.16304016 C-32.12132571 229.87947028 -31.85649758 225.68283633 -31.85540771 220.86746216 C-31.8590844 220.00074676 -31.86276109 219.13403136 -31.86654919 218.24105185 C-31.87759656 215.32547496 -31.88143167 212.40993369 -31.88523865 209.49433899 C-31.89150251 207.40837999 -31.89814925 205.32242211 -31.90515137 203.23646545 C-31.92256841 197.56067101 -31.93311512 191.88488499 -31.9413569 186.20907044 C-31.94650572 182.66364727 -31.95258151 179.11822673 -31.95886803 175.5728054 C-31.97792234 164.48188327 -31.9921528 153.3909678 -32.00048 142.30003244 C-32.01025334 129.49405968 -32.03657454 116.68825974 -32.07698089 103.88234788 C-32.10713383 93.98670136 -32.12194811 84.09110439 -32.12526101 74.19541281 C-32.12761247 68.28405482 -32.13658558 62.37288139 -32.16172218 56.46157265 C-32.18499328 50.89902011 -32.18923985 45.33677377 -32.1789608 39.77418518 C-32.1784651 37.7344225 -32.18479569 35.6946448 -32.19851685 33.65492821 C-32.21622647 30.86586881 -32.20913407 28.07790942 -32.19598389 25.28884888 C-32.21243776 24.08371453 -32.21243776 24.08371453 -32.22922403 22.85423404 C-32.15536269 16.3464917 -30.17306695 11.30065373 -26.06761169 6.23725891 C-25.53651794 5.79124329 -25.00542419 5.34522766 -24.45823669 4.88569641 C-23.93745544 4.42421204 -23.41667419 3.96272766 -22.88011169 3.48725891 C-15.84091404 -0.4881153 -7.82870476 -0.02506025 0 0 Z " fill="#67BFDF" transform="translate(33.70823669433594,83.73930358886719)"/>
<path d="M0 0 C1.66233925 -0.0076664 1.66233925 -0.0076664 3.35826111 -0.01548767 C7.01054328 -0.02935276 10.66263609 -0.02842914 14.31494141 -0.02612305 C16.86170522 -0.03001173 19.40846838 -0.03434675 21.95523071 -0.03910828 C27.28967662 -0.04656392 32.62405346 -0.04642293 37.95849609 -0.04101562 C44.10641941 -0.0349791 50.25411367 -0.04728389 56.40199792 -0.06858569 C62.33775962 -0.08838898 68.27345095 -0.09136793 74.20924759 -0.08785057 C76.7249569 -0.08836289 79.24066993 -0.0935838 81.7563591 -0.10366249 C85.27915676 -0.11604403 88.80142905 -0.10922427 92.32421875 -0.09765625 C93.35619888 -0.10529999 94.38817902 -0.11294373 95.45143127 -0.12081909 C102.5417632 -0.06954097 109.4250102 0.58820747 115.13134766 5.1418457 C115.65857422 5.80442383 116.18580078 6.46700195 116.72900391 7.1496582 C117.27427734 7.80708008 117.81955078 8.46450195 118.38134766 9.1418457 C121.14150428 13.31648702 122.04153391 16.90242952 122.04877281 21.88072681 C122.0552217 23.00391845 122.0616706 24.12711008 122.06831491 25.28433782 C122.0636691 27.12779768 122.0636691 27.12779768 122.05892944 29.00849915 C122.06346056 30.31794705 122.06799167 31.62739496 122.07266009 32.9765231 C122.08489659 36.60971199 122.08462886 40.24280884 122.08227134 43.87601364 C122.08186333 47.7950119 122.09290075 51.71398059 122.10238647 55.63296509 C122.11900106 63.3105469 122.12449623 70.98809801 122.12561123 78.6656963 C122.1265615 84.90645546 122.13067072 91.14720448 122.13701248 97.38796043 C122.15462622 115.08124615 122.16385116 132.7745076 122.16235153 150.46780214 C122.16227162 151.42169892 122.16219171 152.3755957 122.16210938 153.35839844 C122.16202761 154.31345979 122.16194585 155.26852114 122.16186161 156.25252374 C122.1610487 171.73094076 122.1801874 187.20926047 122.20838611 202.68764935 C122.23711116 218.58034762 122.25092661 234.47299842 122.24919856 250.36572331 C122.24853452 259.28844161 122.25403282 268.2110579 122.27555466 277.13375282 C122.29376149 284.73078589 122.29811793 292.32767072 122.28453581 299.92471615 C122.27800357 303.80018073 122.27789793 307.67536086 122.29524231 311.55079842 C122.31386012 315.75403656 122.30142529 319.95661549 122.28598022 324.15986633 C122.29626735 325.38214741 122.30655448 326.60442848 122.31715333 327.86374837 C122.25315026 335.73411629 121.22038058 341.0457103 116.15087891 347.2980957 C115.61978516 347.74411133 115.08869141 348.19012695 114.54150391 348.6496582 C113.76033203 349.34188477 113.76033203 349.34188477 112.96337891 350.0480957 C106.38000822 353.76604246 98.98939538 353.56724533 91.65307617 353.54931641 C90.01977859 353.5569828 90.01977859 353.5569828 88.35348511 353.56480408 C84.77157012 353.57864878 81.18984864 353.57774725 77.60791016 353.57543945 C75.10741607 353.57932893 72.60692264 353.58366412 70.10643005 353.58842468 C64.87211971 353.5958757 59.63787682 353.5956035 54.40356445 353.59033203 C49.03890794 353.58496043 43.67444017 353.59200845 38.30981445 353.61083984 C31.81665535 353.63333756 25.32365361 353.64108693 18.83045769 353.63716698 C16.36219675 353.63767917 13.89393201 353.64289776 11.4256916 353.6529789 C7.9700553 353.6653624 4.51495439 353.65853981 1.05932617 353.64697266 C0.04761856 353.65461639 -0.96408905 353.66226013 -2.00645447 353.6701355 C-10.82448758 353.60513783 -17.80844383 351.90658505 -24.70068359 346.26293945 C-29.95999079 339.32773903 -29.63531488 331.56608883 -29.58944702 323.25598145 C-29.59412699 321.95213737 -29.59880697 320.64829329 -29.60362875 319.30493879 C-29.61611379 315.70127693 -29.60997988 312.09785443 -29.6006701 308.49419188 C-29.59386965 304.60182968 -29.60436576 300.70950802 -29.61260986 296.81715393 C-29.62593878 289.19811303 -29.62307321 281.57916086 -29.61437194 273.96011651 C-29.60759249 267.76709969 -29.60667981 261.57410772 -29.60994339 255.38108826 C-29.61040309 254.49914172 -29.61086279 253.61719519 -29.61133642 252.70852301 C-29.61229561 250.91677812 -29.61326825 249.12503324 -29.61425419 247.33328837 C-29.62280562 230.53825063 -29.61297783 213.74326204 -29.59685309 196.94823235 C-29.58345014 182.54220516 -29.5857783 168.13625049 -29.59960938 153.73022461 C-29.61566955 136.99464299 -29.62198167 120.25910443 -29.61277258 103.52351618 C-29.61181695 101.73842018 -29.61087384 99.95332417 -29.60994339 98.16822815 C-29.60948056 97.28996257 -29.60901774 96.411697 -29.60854089 95.50681731 C-29.60595231 89.32235966 -29.61031914 83.13792936 -29.61738205 76.95347595 C-29.6258021 69.41508258 -29.62350629 61.8767829 -29.60753982 54.33840024 C-29.59966389 50.49334518 -29.59655388 46.64844626 -29.60648727 42.80339241 C-29.61709749 38.63323774 -29.60441518 34.46347619 -29.58944702 30.29333496 C-29.59613919 29.08088214 -29.60283135 27.86842933 -29.60972631 26.61923552 C-29.55853473 19.2761053 -29.17795202 12.98002277 -24.41162109 7.0324707 C-23.76708984 6.49364258 -23.12255859 5.95481445 -22.45849609 5.3996582 C-21.82427734 4.84536133 -21.19005859 4.29106445 -20.53662109 3.7199707 C-14.12834076 -0.25832414 -7.30579406 -0.01747008 0 0 Z " fill="#020202" transform="translate(388.20849609375,37.725341796875)"/>
<path d="M0 0 C1.90570514 -0.00573832 1.90570514 -0.00573832 3.84990937 -0.01159257 C7.36037984 -0.02184679 10.87074789 -0.01969736 14.38122666 -0.01541197 C18.17339745 -0.01294008 21.96554388 -0.02196462 25.75770569 -0.02944946 C33.18054445 -0.04218526 40.60334702 -0.04399158 48.02619486 -0.0416492 C54.06044689 -0.03986476 60.09468795 -0.04161837 66.12893867 -0.04587364 C67.41812106 -0.04676643 67.41812106 -0.04676643 68.73334752 -0.04767724 C70.47943067 -0.04888902 72.22551382 -0.05010315 73.97159696 -0.05131962 C90.33840251 -0.06219068 106.70518743 -0.06003462 123.07199413 -0.05393478 C138.03867344 -0.04876502 153.00528767 -0.06002337 167.9719541 -0.07903299 C183.34833572 -0.09841298 198.72468656 -0.10666717 214.10108048 -0.10290974 C222.7303364 -0.10099807 231.35953693 -0.10348206 239.98878288 -0.11762428 C247.33427186 -0.12954103 254.67967134 -0.13093962 262.02516156 -0.11883412 C265.77110822 -0.11294772 269.51689119 -0.11183933 273.26282692 -0.12383652 C277.3275285 -0.13670314 281.39184093 -0.12622539 285.45654297 -0.11352539 C286.63495536 -0.12089968 287.81336775 -0.12827396 289.0274896 -0.13587171 C296.84881044 -0.08445917 303.33646131 0.88751522 310.10426331 4.94819641 C315.52315631 10.67674045 316.88487387 16.64144322 316.806427 24.33113098 C316.81337253 25.21028561 316.82031806 26.08944024 316.82747406 26.99523592 C316.84568123 29.92317815 316.83549732 32.85030436 316.82521057 35.77827454 C316.83227216 37.88468021 316.84101818 39.99108081 316.85131836 42.09747314 C316.87379354 47.80611556 316.87087711 53.51448048 316.86199689 59.22315025 C316.85688239 63.99216161 316.86418323 68.76112104 316.87146896 73.53012705 C316.88846162 84.78102068 316.88490793 96.03177866 316.86817932 107.28266907 C316.85125202 118.88440829 316.86710259 130.48577142 316.8994022 142.08746958 C316.92610065 152.05542994 316.93337357 162.02327325 316.92488712 171.99126577 C316.91995952 177.94168033 316.92216506 183.89186852 316.94267464 189.84225464 C316.96103595 195.43698368 316.95506699 201.03117165 316.93047523 206.62587166 C316.92546916 208.67691338 316.92895177 210.72799637 316.94162369 212.77900505 C316.95757727 215.58337734 316.94258176 218.3859728 316.91995239 221.19026184 C316.93178812 221.99805604 316.94362385 222.80585023 316.95581824 223.63812304 C316.85789642 229.62854291 314.99751347 233.5769872 311.29176331 238.26069641 C306.70938146 242.61395916 302.37319678 244.51421121 296.05889893 244.50120544 C295.02549881 244.50395477 293.99209869 244.5067041 292.92738342 244.50953674 C291.8045697 244.50234619 290.68175598 244.49515564 289.5249176 244.48774719 C288.33425186 244.48803925 287.14358612 244.4883313 285.9168396 244.4886322 C282.66097206 244.4874794 279.40527748 244.47746381 276.14944434 244.46348429 C272.74350727 244.45096344 269.33756664 244.44980536 265.93161011 244.44743347 C259.48603793 244.44122267 253.04053376 244.4248173 246.59499151 244.40473449 C239.25524245 244.38236301 231.9154901 244.37137893 224.57571542 244.36134362 C209.48102685 244.3404507 194.38640189 244.30528253 179.29176331 244.26069641 C179.42625885 244.84943039 179.56075439 245.43816437 179.69932556 246.04473877 C180.63528367 250.18906424 181.53042332 254.30786287 182.14332581 258.51460266 C182.27223206 259.3879425 182.40113831 260.26128235 182.53395081 261.16108704 C182.66027893 262.03958313 182.78660706 262.91807922 182.91676331 263.82319641 C183.05082581 264.73649719 183.18488831 265.64979797 183.32301331 266.59077454 C183.64888261 268.81366873 183.97174948 271.03695306 184.29176331 273.26069641 C185.05660538 273.26434204 185.82144745 273.26798767 186.60946655 273.27174377 C193.86137712 273.30980643 201.11278428 273.36686309 208.36436939 273.44459915 C212.09140447 273.48390021 215.81820943 273.51617272 219.54542542 273.5316925 C223.15080519 273.54697512 226.75555158 273.58162109 230.3606472 273.62900543 C231.72750491 273.64370098 233.0944531 273.65173054 234.46138954 273.65258026 C244.64467932 273.66526222 254.26431089 274.44395259 262.22926331 281.38569641 C267.58223176 287.40778593 269.77236375 294.37961202 269.62770081 302.35054016 C269.29176331 304.26069641 269.29176331 304.26069641 267.29176331 307.26069641 C264.54737781 308.17549158 262.94712455 308.38663503 260.12315464 308.38933086 C259.26969977 308.39255531 258.4162449 308.39577976 257.53692776 308.39910191 C256.59900338 308.39755331 255.661079 308.39600471 254.69473267 308.39440918 C253.69860488 308.39667474 252.70247709 308.39894029 251.67616361 308.4012745 C248.32283951 308.40762807 244.96955567 308.40678427 241.6162262 308.40596008 C239.21836291 308.40895071 236.8205001 308.41235301 234.42263794 308.4161377 C228.57628769 308.42407078 222.72994696 308.42719275 216.88359243 308.42775007 C212.13255216 308.42822497 207.38151522 308.43027838 202.630476 308.4334507 C189.16610448 308.44225831 175.70174093 308.44686986 162.2373665 308.44612022 C161.14824678 308.44606029 161.14824678 308.44606029 160.03712463 308.44599915 C158.94667825 308.44593782 158.94667825 308.44593782 157.83420264 308.44587526 C146.04860417 308.44546868 134.26303764 308.45504108 122.47744841 308.46913751 C110.3816791 308.48349103 98.28592538 308.49040827 86.19014734 308.48954374 C79.39701549 308.48921143 72.60391712 308.49197326 65.81079292 308.50272179 C59.42426787 308.51276208 53.03779534 308.51250194 46.6512661 308.50520515 C44.30344668 308.50415573 41.95562291 308.50654328 39.60781097 308.51256561 C36.41038204 308.52023793 33.21320086 308.51567237 30.01577759 308.50793457 C28.6122371 308.51564992 28.6122371 308.51564992 27.18034226 308.52352113 C25.89624833 308.51662293 25.89624833 308.51662293 24.58621311 308.50958538 C23.47910963 308.50991143 23.47910963 308.50991143 22.34964043 308.51024407 C19.94288363 308.21838965 18.34817744 307.53235417 16.29176331 306.26069641 C13.72468644 301.12654268 15.50182038 294.94027585 17.19020081 289.75679016 C20.10490013 283.15220552 24.9064233 278.90006672 31.39723206 275.95210266 C35.55761602 274.43377697 39.17994832 274.13842906 43.62086487 274.14717102 C45.54240387 274.14728432 45.54240387 274.14728432 47.50276184 274.1473999 C48.89597106 274.15250615 50.28917988 274.15772214 51.68238831 274.16304016 C53.11156668 274.16490609 54.54074569 274.16632917 55.96992493 274.16732788 C59.72476478 274.17113926 63.47956573 274.18095774 67.23439026 274.19203186 C71.06861342 274.20227566 74.90284289 274.20683186 78.73707581 274.21186829 C86.25532268 274.22258128 93.77353753 274.2396411 101.29176331 274.26069641 C101.32914612 273.51948547 101.36652893 272.77827454 101.40504456 272.01460266 C101.99232682 262.60657116 103.53045507 253.51033402 105.29176331 244.26069641 C104.67038231 244.26438358 104.04900131 244.26807076 103.40879059 244.27186966 C88.26782667 244.36032494 73.12694239 244.42645654 57.98578644 244.4679451 C50.6635305 244.48854355 43.34144737 244.51661178 36.01930237 244.56245422 C29.63503096 244.60240568 23.25088474 244.62814897 16.86649179 244.63705039 C13.48800559 244.64225121 10.10987745 244.65441726 6.73150635 244.68361664 C2.95385078 244.71269041 -0.8230652 244.71665055 -4.60081482 244.71479797 C-5.71284271 244.72917908 -6.82487061 244.74356018 -7.97059631 244.75837708 C-15.48655136 244.71854411 -21.20393408 243.72510184 -26.76683044 238.22554016 C-27.22186951 237.55651672 -27.67690857 236.88749329 -28.14573669 236.19819641 C-28.8553656 235.19079407 -28.8553656 235.19079407 -29.57933044 234.16304016 C-32.12132571 229.87947028 -31.85649758 225.68283633 -31.85540771 220.86746216 C-31.8590844 220.00074676 -31.86276109 219.13403136 -31.86654919 218.24105185 C-31.87759656 215.32547496 -31.88143167 212.40993369 -31.88523865 209.49433899 C-31.89150251 207.40837999 -31.89814925 205.32242211 -31.90515137 203.23646545 C-31.92256841 197.56067101 -31.93311512 191.88488499 -31.9413569 186.20907044 C-31.94650572 182.66364727 -31.95258151 179.11822673 -31.95886803 175.5728054 C-31.97792234 164.48188327 -31.9921528 153.3909678 -32.00048 142.30003244 C-32.01025334 129.49405968 -32.03657454 116.68825974 -32.07698089 103.88234788 C-32.10713383 93.98670136 -32.12194811 84.09110439 -32.12526101 74.19541281 C-32.12761247 68.28405482 -32.13658558 62.37288139 -32.16172218 56.46157265 C-32.18499328 50.89902011 -32.18923985 45.33677377 -32.1789608 39.77418518 C-32.1784651 37.7344225 -32.18479569 35.6946448 -32.19851685 33.65492821 C-32.21622647 30.86586881 -32.20913407 28.07790942 -32.19598389 25.28884888 C-32.21243776 24.08371453 -32.21243776 24.08371453 -32.22922403 22.85423404 C-32.15536269 16.3464917 -30.17306695 11.30065373 -26.06761169 6.23725891 C-25.53651794 5.79124329 -25.00542419 5.34522766 -24.45823669 4.88569641 C-23.93745544 4.42421204 -23.41667419 3.96272766 -22.88011169 3.48725891 C-15.84091404 -0.4881153 -7.82870476 -0.02506025 0 0 Z M3.29176331 36.26069641 C1.85259762 39.13902779 2.15245031 41.62082552 2.13786316 44.83876038 C2.13348091 45.52227263 2.12909865 46.20578488 2.1245836 46.91000962 C2.11117732 49.21147826 2.10501265 51.5129086 2.09889221 53.81440735 C2.09099266 55.46012038 2.0827238 57.10583168 2.07411194 58.75154114 C2.04787398 64.16603436 2.03258215 69.58053538 2.01832581 74.99507141 C2.01296678 76.85784663 2.00758927 78.7206218 2.00219345 80.58339691 C1.98056178 88.33143315 1.96182469 96.07946729 1.95057106 103.82752609 C1.93432992 114.93703036 1.90115152 126.04618496 1.84417021 137.15555739 C1.80548493 144.96369489 1.78594002 152.77173882 1.7806505 160.57996964 C1.77699497 165.24498242 1.76495268 169.90962241 1.73254776 174.57453156 C1.70249202 178.96425853 1.69614623 183.35338669 1.70793152 187.74319458 C1.70815247 189.35325603 1.69982967 190.96334506 1.68227768 192.57331085 C1.65958895 194.77449329 1.66787638 196.9735037 1.6837616 199.17469788 C1.68045145 200.40545925 1.6771413 201.63622063 1.67373085 202.9042778 C2.4995743 207.38927903 4.10979915 209.03860384 7.29176331 212.26069641 C9.64901513 213.43932232 11.04946955 213.38805172 13.67811298 213.39212418 C14.60559481 213.39596532 15.53307664 213.39980647 16.48866397 213.40376401 C18.02729792 213.40246429 18.02729792 213.40246429 19.59701538 213.40113831 C21.2236243 213.40559499 21.2236243 213.40559499 22.88309401 213.41014171 C26.54121606 213.41885991 30.1993055 213.42033958 33.85743713 213.42182922 C36.4702766 213.42645518 39.08311538 213.43147953 41.69595337 213.43687439 C48.81164449 213.45046897 55.92732998 213.45648423 63.04303193 213.46088505 C67.48443551 213.46364567 71.9258369 213.4678827 76.367239 213.47238922 C88.65923965 213.48458355 100.95123855 213.49488241 113.24324512 213.49826431 C114.03030167 213.49848388 114.81735821 213.49870344 115.62826495 213.49892966 C116.41722761 213.49914794 117.20619028 213.49936622 118.01906091 213.49959111 C119.61785559 213.50003458 121.21665027 213.50048114 122.81544495 213.50093079 C123.60850592 213.50115222 124.40156689 213.50137365 125.21866002 213.50160179 C138.07063583 213.50555024 150.92255496 213.52300496 163.77450887 213.54629031 C176.96297332 213.56999286 190.15140932 213.58246567 203.33989543 213.58363223 C210.74733769 213.58454963 218.15470612 213.59031819 225.56212807 213.60845184 C232.52813723 213.62544452 239.49400391 213.62711364 246.46002769 213.61831284 C249.02028656 213.61753964 251.58055281 213.62192207 254.14079285 213.63177109 C257.62921794 213.64440626 261.11713932 213.63865942 264.6055603 213.62818909 C266.134156 213.64027369 266.134156 213.64027369 267.69363242 213.65260243 C274.52640201 213.65645212 274.52640201 213.65645212 280.29176331 210.26069641 C283.38260115 206.35607798 283.67107163 203.30519735 283.68617249 198.39779663 C283.69530914 197.380934 283.69530914 197.380934 283.70463037 196.34352869 C283.7212392 194.07884837 283.71648783 191.81473161 283.71168518 189.55000305 C283.71902673 187.92354754 283.72761322 186.29709723 283.73735046 184.6706543 C283.75956528 180.25741897 283.7624972 175.84437035 283.76060295 171.43108678 C283.76048326 167.74564279 283.76904687 164.06023837 283.77738047 160.37480539 C283.79661412 151.67992255 283.79949837 142.98513571 283.79273987 134.29023743 C283.78609755 125.32248385 283.80897111 116.35514144 283.8460536 107.38747126 C283.87674617 99.68540547 283.88811116 91.98347198 283.88421679 84.28134626 C283.88214896 79.68236274 283.88763363 75.08369922 283.91210938 70.48477364 C283.93436701 66.15979889 283.93250724 61.83549297 283.91218185 57.51051521 C283.90877012 55.92465699 283.91386806 54.33875383 283.92816544 52.75295639 C283.94636292 50.5847189 283.93360986 48.41874939 283.91322327 46.25057983 C283.91429203 44.43240549 283.91429203 44.43240549 283.91538239 42.57750034 C283.07369617 38.10087635 281.51149884 36.45244075 278.29176331 33.26069641 C275.45299328 32.31443974 273.70805901 32.13299234 270.76674843 32.12647533 C269.83379216 32.12201749 268.90083589 32.11755965 267.93960822 32.11296672 C266.39950711 32.11324326 266.39950711 32.11324326 264.82829285 32.11352539 C263.73894892 32.1098487 262.649605 32.10617201 261.52725065 32.10238391 C257.85841813 32.09132587 254.18961392 32.08749967 250.52076721 32.08369446 C247.89792795 32.07743154 245.27508958 32.0707849 242.6522522 32.06378174 C234.76910031 32.04402172 226.88594714 32.03395274 219.00277668 32.02505395 C215.29159306 32.02067121 211.58041086 32.01530444 207.86922836 32.01006508 C195.53515481 31.99305498 183.20108215 31.97855957 170.86699867 31.97131634 C167.66646448 31.96940642 164.46593029 31.96748608 161.26539612 31.9655304 C160.46991003 31.96504666 159.67442394 31.96456292 158.85483222 31.96406452 C145.96086939 31.95575948 133.06699918 31.93041365 120.17307682 31.89794972 C106.93938061 31.86490146 93.70573151 31.8468697 80.4719938 31.8436721 C73.03994716 31.84150517 65.60803568 31.83272965 58.17602921 31.80721092 C51.18781685 31.78327147 44.19985182 31.77966415 37.21160698 31.78997231 C34.64328007 31.79046972 32.07494149 31.78408912 29.50665092 31.77041626 C26.00720505 31.75282476 22.50864622 31.75974133 19.00920105 31.77294922 C17.98692842 31.76197997 16.96465579 31.75101073 15.91140521 31.73970908 C10.46022153 31.78956778 7.1589204 31.98109996 3.29176331 36.26069641 Z " fill="#464744" transform="translate(33.70823669433594,83.73930358886719)"/>
<path d="M0 0 C1.90570514 -0.00573832 1.90570514 -0.00573832 3.84990937 -0.01159257 C7.36037984 -0.02184679 10.87074789 -0.01969736 14.38122666 -0.01541197 C18.17339745 -0.01294008 21.96554388 -0.02196462 25.75770569 -0.02944946 C33.18054445 -0.04218526 40.60334702 -0.04399158 48.02619486 -0.0416492 C54.06044689 -0.03986476 60.09468795 -0.04161837 66.12893867 -0.04587364 C67.41812106 -0.04676643 67.41812106 -0.04676643 68.73334752 -0.04767724 C70.47943067 -0.04888902 72.22551382 -0.05010315 73.97159696 -0.05131962 C90.33840251 -0.06219068 106.70518743 -0.06003462 123.07199413 -0.05393478 C138.03867344 -0.04876502 153.00528767 -0.06002337 167.9719541 -0.07903299 C183.34833572 -0.09841298 198.72468656 -0.10666717 214.10108048 -0.10290974 C222.7303364 -0.10099807 231.35953693 -0.10348206 239.98878288 -0.11762428 C247.33427186 -0.12954103 254.67967134 -0.13093962 262.02516156 -0.11883412 C265.77110822 -0.11294772 269.51689119 -0.11183933 273.26282692 -0.12383652 C277.3275285 -0.13670314 281.39184093 -0.12622539 285.45654297 -0.11352539 C286.63495536 -0.12089968 287.81336775 -0.12827396 289.0274896 -0.13587171 C296.84881044 -0.08445917 303.33646131 0.88751522 310.10426331 4.94819641 C315.52315631 10.67674045 316.88487387 16.64144322 316.806427 24.33113098 C316.81337253 25.21028561 316.82031806 26.08944024 316.82747406 26.99523592 C316.84568123 29.92317815 316.83549732 32.85030436 316.82521057 35.77827454 C316.83227216 37.88468021 316.84101818 39.99108081 316.85131836 42.09747314 C316.87379354 47.80611556 316.87087711 53.51448048 316.86199689 59.22315025 C316.85688239 63.99216161 316.86418323 68.76112104 316.87146896 73.53012705 C316.88846162 84.78102068 316.88490793 96.03177866 316.86817932 107.28266907 C316.85125202 118.88440829 316.86710259 130.48577142 316.8994022 142.08746958 C316.92610065 152.05542994 316.93337357 162.02327325 316.92488712 171.99126577 C316.91995952 177.94168033 316.92216506 183.89186852 316.94267464 189.84225464 C316.96103595 195.43698368 316.95506699 201.03117165 316.93047523 206.62587166 C316.92546916 208.67691338 316.92895177 210.72799637 316.94162369 212.77900505 C316.95757727 215.58337734 316.94258176 218.3859728 316.91995239 221.19026184 C316.93178812 221.99805604 316.94362385 222.80585023 316.95581824 223.63812304 C316.85789642 229.62854291 314.99751347 233.5769872 311.29176331 238.26069641 C306.70938146 242.61395916 302.37319678 244.51421121 296.05889893 244.50120544 C295.02549881 244.50395477 293.99209869 244.5067041 292.92738342 244.50953674 C291.8045697 244.50234619 290.68175598 244.49515564 289.5249176 244.48774719 C288.33425186 244.48803925 287.14358612 244.4883313 285.9168396 244.4886322 C282.66097206 244.4874794 279.40527748 244.47746381 276.14944434 244.46348429 C272.74350727 244.45096344 269.33756664 244.44980536 265.93161011 244.44743347 C259.48603793 244.44122267 253.04053376 244.4248173 246.59499151 244.40473449 C239.25524245 244.38236301 231.9154901 244.37137893 224.57571542 244.36134362 C209.48102685 244.3404507 194.38640189 244.30528253 179.29176331 244.26069641 C179.42625885 244.84943039 179.56075439 245.43816437 179.69932556 246.04473877 C180.63528367 250.18906424 181.53042332 254.30786287 182.14332581 258.51460266 C182.27223206 259.3879425 182.40113831 260.26128235 182.53395081 261.16108704 C182.66027893 262.03958313 182.78660706 262.91807922 182.91676331 263.82319641 C183.05082581 264.73649719 183.18488831 265.64979797 183.32301331 266.59077454 C183.64888261 268.81366873 183.97174948 271.03695306 184.29176331 273.26069641 C185.05660538 273.26434204 185.82144745 273.26798767 186.60946655 273.27174377 C193.86137712 273.30980643 201.11278428 273.36686309 208.36436939 273.44459915 C212.09140447 273.48390021 215.81820943 273.51617272 219.54542542 273.5316925 C223.15080519 273.54697512 226.75555158 273.58162109 230.3606472 273.62900543 C231.72750491 273.64370098 233.0944531 273.65173054 234.46138954 273.65258026 C244.64467932 273.66526222 254.26431089 274.44395259 262.22926331 281.38569641 C267.58223176 287.40778593 269.77236375 294.37961202 269.62770081 302.35054016 C269.29176331 304.26069641 269.29176331 304.26069641 267.29176331 307.26069641 C264.54737781 308.17549158 262.94712455 308.38663503 260.12315464 308.38933086 C259.26969977 308.39255531 258.4162449 308.39577976 257.53692776 308.39910191 C256.59900338 308.39755331 255.661079 308.39600471 254.69473267 308.39440918 C253.69860488 308.39667474 252.70247709 308.39894029 251.67616361 308.4012745 C248.32283951 308.40762807 244.96955567 308.40678427 241.6162262 308.40596008 C239.21836291 308.40895071 236.8205001 308.41235301 234.42263794 308.4161377 C228.57628769 308.42407078 222.72994696 308.42719275 216.88359243 308.42775007 C212.13255216 308.42822497 207.38151522 308.43027838 202.630476 308.4334507 C189.16610448 308.44225831 175.70174093 308.44686986 162.2373665 308.44612022 C161.14824678 308.44606029 161.14824678 308.44606029 160.03712463 308.44599915 C158.94667825 308.44593782 158.94667825 308.44593782 157.83420264 308.44587526 C146.04860417 308.44546868 134.26303764 308.45504108 122.47744841 308.46913751 C110.3816791 308.48349103 98.28592538 308.49040827 86.19014734 308.48954374 C79.39701549 308.48921143 72.60391712 308.49197326 65.81079292 308.50272179 C59.42426787 308.51276208 53.03779534 308.51250194 46.6512661 308.50520515 C44.30344668 308.50415573 41.95562291 308.50654328 39.60781097 308.51256561 C36.41038204 308.52023793 33.21320086 308.51567237 30.01577759 308.50793457 C28.6122371 308.51564992 28.6122371 308.51564992 27.18034226 308.52352113 C25.89624833 308.51662293 25.89624833 308.51662293 24.58621311 308.50958538 C23.47910963 308.50991143 23.47910963 308.50991143 22.34964043 308.51024407 C19.94288363 308.21838965 18.34817744 307.53235417 16.29176331 306.26069641 C13.72468644 301.12654268 15.50182038 294.94027585 17.19020081 289.75679016 C20.10490013 283.15220552 24.9064233 278.90006672 31.39723206 275.95210266 C35.55761602 274.43377697 39.17994832 274.13842906 43.62086487 274.14717102 C45.54240387 274.14728432 45.54240387 274.14728432 47.50276184 274.1473999 C48.89597106 274.15250615 50.28917988 274.15772214 51.68238831 274.16304016 C53.11156668 274.16490609 54.54074569 274.16632917 55.96992493 274.16732788 C59.72476478 274.17113926 63.47956573 274.18095774 67.23439026 274.19203186 C71.06861342 274.20227566 74.90284289 274.20683186 78.73707581 274.21186829 C86.25532268 274.22258128 93.77353753 274.2396411 101.29176331 274.26069641 C101.32914612 273.51948547 101.36652893 272.77827454 101.40504456 272.01460266 C101.99232682 262.60657116 103.53045507 253.51033402 105.29176331 244.26069641 C104.67038231 244.26438358 104.04900131 244.26807076 103.40879059 244.27186966 C88.26782667 244.36032494 73.12694239 244.42645654 57.98578644 244.4679451 C50.6635305 244.48854355 43.34144737 244.51661178 36.01930237 244.56245422 C29.63503096 244.60240568 23.25088474 244.62814897 16.86649179 244.63705039 C13.48800559 244.64225121 10.10987745 244.65441726 6.73150635 244.68361664 C2.95385078 244.71269041 -0.8230652 244.71665055 -4.60081482 244.71479797 C-5.71284271 244.72917908 -6.82487061 244.74356018 -7.97059631 244.75837708 C-15.48655136 244.71854411 -21.20393408 243.72510184 -26.76683044 238.22554016 C-27.22186951 237.55651672 -27.67690857 236.88749329 -28.14573669 236.19819641 C-28.8553656 235.19079407 -28.8553656 235.19079407 -29.57933044 234.16304016 C-32.12132571 229.87947028 -31.85649758 225.68283633 -31.85540771 220.86746216 C-31.8590844 220.00074676 -31.86276109 219.13403136 -31.86654919 218.24105185 C-31.87759656 215.32547496 -31.88143167 212.40993369 -31.88523865 209.49433899 C-31.89150251 207.40837999 -31.89814925 205.32242211 -31.90515137 203.23646545 C-31.92256841 197.56067101 -31.93311512 191.88488499 -31.9413569 186.20907044 C-31.94650572 182.66364727 -31.95258151 179.11822673 -31.95886803 175.5728054 C-31.97792234 164.48188327 -31.9921528 153.3909678 -32.00048 142.30003244 C-32.01025334 129.49405968 -32.03657454 116.68825974 -32.07698089 103.88234788 C-32.10713383 93.98670136 -32.12194811 84.09110439 -32.12526101 74.19541281 C-32.12761247 68.28405482 -32.13658558 62.37288139 -32.16172218 56.46157265 C-32.18499328 50.89902011 -32.18923985 45.33677377 -32.1789608 39.77418518 C-32.1784651 37.7344225 -32.18479569 35.6946448 -32.19851685 33.65492821 C-32.21622647 30.86586881 -32.20913407 28.07790942 -32.19598389 25.28884888 C-32.21243776 24.08371453 -32.21243776 24.08371453 -32.22922403 22.85423404 C-32.15536269 16.3464917 -30.17306695 11.30065373 -26.06761169 6.23725891 C-25.53651794 5.79124329 -25.00542419 5.34522766 -24.45823669 4.88569641 C-23.93745544 4.42421204 -23.41667419 3.96272766 -22.88011169 3.48725891 C-15.84091404 -0.4881153 -7.82870476 -0.02506025 0 0 Z M-20.70823669 16.26069641 C-22.29686458 19.43795219 -21.85621251 22.86772394 -21.85540771 26.35731506 C-21.8590844 27.20416941 -21.86276109 28.05102376 -21.86654919 28.92354035 C-21.87761361 31.77779372 -21.88143453 34.63201072 -21.88523865 37.48628235 C-21.89150121 39.52607846 -21.89814782 41.56587342 -21.90515137 43.60566711 C-21.92258024 49.15948946 -21.93311824 54.71330318 -21.9413569 60.26714611 C-21.94650299 63.73499133 -21.95257889 67.20283386 -21.95886803 70.67067719 C-21.97792525 81.51492015 -21.99215533 92.35915628 -22.00048 103.20341277 C-22.01025577 115.73208478 -22.03658207 128.26058026 -22.07698089 140.78919005 C-22.10711498 150.46567873 -22.1219463 160.14211674 -22.12526101 169.81865144 C-22.12761456 175.60141207 -22.13661473 181.38398423 -22.16172218 187.16669464 C-22.18496051 192.60693417 -22.18925313 198.04686059 -22.1789608 203.48713684 C-22.1784643 205.48419993 -22.18481825 207.48127821 -22.19851685 209.47829437 C-22.21617211 212.20462104 -22.20916106 214.9298163 -22.19598389 217.65614319 C-22.20695313 218.44661915 -22.21792238 219.2370951 -22.22922403 220.05152488 C-22.1690424 225.20822543 -21.18011706 228.21364145 -17.70823669 232.26069641 C-14.54693572 234.26774657 -12.06961776 234.51242346 -8.36018562 234.51796532 C-7.2691022 234.52441421 -6.17801878 234.5308631 -5.05387223 234.53750741 C-3.85564044 234.53441021 -2.65740866 234.53131301 -1.42286682 234.52812195 C0.48701214 234.53491862 0.48701214 234.53491862 2.43547451 234.54185259 C5.97217047 234.55410243 9.50877197 234.55381981 13.0454843 234.55146384 C16.85880353 234.55105618 20.67209227 234.56208998 24.48539734 234.57157898 C31.9572373 234.58820063 39.42904571 234.59368904 46.90090261 234.59480374 C52.97341541 234.59575362 59.04591778 234.59986095 65.11842728 234.60620499 C82.32971486 234.6238203 99.54097748 234.63304336 116.75227414 234.63154404 C117.68037881 234.63146413 118.60848347 234.63138421 119.56471252 234.63130188 C120.95856643 234.63117924 120.95856643 234.63117924 122.38057901 234.63105412 C137.44332092 234.63024106 152.50596287 234.64938305 167.56867586 234.67757861 C183.02966827 234.70629169 198.49061191 234.72011979 213.95163167 234.71839106 C222.6339694 234.71772663 231.31620234 234.72324214 239.99851608 234.74474716 C247.39031816 234.76293821 254.78196794 234.76732343 262.17378269 234.75372832 C265.94570677 234.74718819 269.71733848 234.74711875 273.48923492 234.76443481 C277.57718774 234.78300896 281.66446062 234.77063851 285.75242615 234.75517273 C287.54308166 234.77060342 287.54308166 234.77060342 289.36991203 234.78634584 C295.59412938 234.73412668 299.67034608 234.64091358 304.29176331 230.26069641 C307.10571831 226.67777125 306.57918425 222.28273962 306.56591797 217.92356873 C306.57115465 217.07500553 306.57639133 216.22644233 306.58178669 215.3521651 C306.59680825 212.5040825 306.59749232 209.65617922 306.59815979 206.80805969 C306.60577978 204.76796667 306.61420699 202.72787653 306.62338257 200.68778992 C306.64534916 195.14234071 306.65412928 189.59694664 306.65920901 184.05145884 C306.66284976 180.58795293 306.66908832 177.12446153 306.6762104 173.66096115 C306.70071153 161.58108128 306.71375842 149.50124439 306.71730042 137.42134094 C306.72093712 126.155944 306.75084064 114.89081928 306.792705 103.62550557 C306.82737584 93.95746109 306.84284829 84.28950696 306.84354645 74.62140071 C306.8443403 68.84534256 306.85312874 63.06956166 306.88154411 57.29356766 C306.90766993 51.86144344 306.90996046 46.42982744 306.89388847 40.99766922 C306.89206967 39.00382888 306.89880342 37.00995969 306.91470718 35.01618195 C306.93509684 32.29411391 306.92465826 29.57383591 306.90649414 26.85179138 C306.92629409 25.6681238 306.92629409 25.6681238 306.94649404 24.46054375 C306.85948249 18.75218927 305.38112702 16.25358357 301.29176331 12.26069641 C298.75641815 10.99302383 296.99802215 11.1306492 294.15857315 11.12368202 C293.06450504 11.11860748 291.97043692 11.11353294 290.84321523 11.10830462 C289.63137586 11.10780686 288.4195365 11.10730911 287.17097473 11.10679626 C285.89126384 11.10241401 284.61155294 11.09803176 283.29306293 11.09351671 C279.72907203 11.08153219 276.16509468 11.07589842 272.60108757 11.07133555 C268.76183556 11.06538658 264.92259982 11.053775 261.08335876 11.04304504 C251.8056327 11.01850514 242.52790125 11.00389171 233.25015271 10.99098498 C230.63071636 10.98727425 228.01128056 10.98330092 225.39184475 10.97923231 C209.13351023 10.9539974 192.87517489 10.93193927 176.6168251 10.91950417 C172.84961697 10.91657436 169.08240887 10.91361271 165.31520081 10.91059875 C164.37885263 10.9098527 163.44250446 10.90910665 162.4777821 10.908338 C147.30496777 10.89568077 132.13227053 10.86245371 116.95951095 10.82079692 C101.39010701 10.77840074 85.82076305 10.75481183 70.25130153 10.7495836 C61.50629874 10.74616688 52.76147895 10.7343811 44.0165329 10.70148087 C36.56977483 10.67351097 29.12323725 10.66246749 21.67643073 10.67367633 C17.87609725 10.67887089 14.0762257 10.67592532 10.27595901 10.65121078 C6.15714588 10.62464793 2.03935399 10.63675129 -2.07951355 10.6526947 C-3.28243003 10.63881261 -4.4853465 10.62493053 -5.72471499 10.61062777 C-12.50241307 10.67550191 -16.14222208 11.06438533 -20.70823669 16.26069641 Z " fill="#000000" transform="translate(33.70823669433594,83.73930358886719)"/>
<path d="M0 0 C1.68029152 -0.0083016 1.68029152 -0.0083016 3.39452833 -0.0167709 C7.16187795 -0.03042395 10.92857043 -0.01538225 14.69590759 -0.00050354 C17.39112172 -0.004285 20.08629138 -0.00963063 22.78149414 -0.01687622 C29.35000952 -0.03082066 35.91833287 -0.02324395 42.48683912 -0.00820064 C50.13236475 0.0086441 57.77784234 0.00545119 65.42338078 0.00170528 C79.06211348 -0.0041754 92.7007539 0.01000693 106.33946228 0.03465271 C119.58135944 0.05857882 132.82313332 0.06565542 146.06504822 0.05516052 C160.47753667 0.04375839 174.88996809 0.04181215 189.30245584 0.05625862 C190.83841129 0.0577845 192.37436673 0.05930485 193.91032219 0.06081963 C194.66608632 0.06157744 195.42185044 0.06233525 196.20051651 0.06311603 C201.53317218 0.06786395 206.86580243 0.06600387 212.19845772 0.06175423 C218.69406668 0.05683416 225.18955896 0.06278245 231.68514115 0.08264852 C235.00096869 0.09253889 238.31658134 0.09600507 241.6324234 0.08975601 C245.22218269 0.08383726 248.81141168 0.09624313 252.40112305 0.11352539 C253.45577588 0.10751535 254.51042871 0.1015053 255.59704071 0.09531313 C256.55499745 0.10375307 257.51295419 0.11219301 258.49993992 0.12088871 C259.32897943 0.12191784 260.15801894 0.12294697 261.01218086 0.12400728 C263.64683628 0.5916963 264.53652075 1.39081694 266.1370697 3.50120544 C266.47764587 5.86131287 266.47764587 5.86131287 266.43003845 8.60667419 C266.42037048 9.58958435 266.41070251 10.57249451 266.40074158 11.58518982 C266.37560486 12.60934998 266.35046814 13.63351013 266.3245697 14.68870544 C266.31103455 15.72446716 266.29749939 16.76022888 266.28355408 17.82737732 C266.24818359 20.38584243 266.19882515 22.94326324 266.1370697 25.50120544 C266.96851501 25.45479919 267.79996033 25.40839294 268.65660095 25.36058044 C269.74328064 25.32448669 270.82996033 25.28839294 271.9495697 25.25120544 C273.02851501 25.20479919 274.10746033 25.15839294 275.21910095 25.11058044 C278.1370697 25.50120544 278.1370697 25.50120544 279.79454041 27.12718201 C281.53088406 30.19759585 281.52493901 32.35750037 281.5355072 35.87620544 C281.53937439 37.10854919 281.54324158 38.34089294 281.54722595 39.61058044 C281.52982361 41.53643982 281.52982361 41.53643982 281.5120697 43.50120544 C281.52367126 44.78511169 281.53527283 46.06901794 281.54722595 47.39183044 C281.54335876 48.62417419 281.53949158 49.85651794 281.5355072 51.12620544 C281.53212341 52.25284607 281.52873962 53.37948669 281.5252533 54.54026794 C281.08420999 57.90440205 280.48315562 59.09388548 278.1370697 61.50120544 C275.79187053 62.00030077 275.79187053 62.00030077 272.96336269 61.99898338 C271.88573711 62.00818097 270.80811152 62.01737857 269.69783062 62.02685487 C268.50952131 62.01656775 267.32121199 62.00628062 266.09689331 61.99568176 C264.20856391 62.00292501 264.20856391 62.00292501 262.28208643 62.01031458 C258.78087734 62.02317216 255.280129 62.01098261 251.7789501 61.99478602 C248.00590787 61.98165469 244.23291812 61.99152395 240.45986938 61.99855042 C233.066042 62.00864541 225.67239319 61.99733775 218.27858799 61.97884981 C209.67501297 61.95810801 201.07147683 61.95822148 192.46788151 61.95919497 C177.12148914 61.96019678 161.77518006 61.9418575 146.42881775 61.91282654 C131.52417992 61.88464564 116.6196154 61.87048516 101.71495056 61.87181091 C100.7968749 61.87189083 99.87879924 61.87197074 98.9329031 61.87205307 C97.55821242 61.87217414 97.55821242 61.87217414 96.15575022 61.87229764 C79.20574134 61.87367606 62.25576374 61.8619051 45.30576498 61.84399121 C39.30290174 61.83794942 33.30004422 61.83583102 27.29717827 61.83492661 C19.98650622 61.83356466 12.67588685 61.82466777 5.36523717 61.80626099 C1.63238395 61.7970045 -2.10040173 61.79094151 -5.83326721 61.7934494 C-9.87216628 61.7960314 -13.91086395 61.78318615 -17.94973755 61.76863098 C-19.14027758 61.77172819 -20.33081761 61.77482539 -21.55743462 61.77801645 C-22.63245246 61.77156756 -23.70747029 61.76511866 -24.81506443 61.75847435 C-25.74830967 61.7570655 -26.6815549 61.75565665 -27.64308029 61.75420511 C-29.8629303 61.50120544 -29.8629303 61.50120544 -31.8629303 59.50120544 C-32.12171936 56.36839294 -32.12171936 56.36839294 -32.1285553 52.37620544 C-32.13046875 51.67350525 -32.1323822 50.97080505 -32.13435364 50.24681091 C-32.13571505 48.76064191 -32.13202162 47.274461 -32.12367249 45.78831482 C-32.11297183 43.51004899 -32.12356869 41.23257167 -32.1363678 38.95433044 C-32.13504619 37.51162037 -32.13248378 36.06891078 -32.1285553 34.62620544 C-32.12629944 33.30878357 -32.12404358 31.99136169 -32.12171936 30.63401794 C-31.8629303 27.50120544 -31.8629303 27.50120544 -29.8629303 25.50120544 C-27.28228901 25.3562256 -24.81349145 25.31442999 -22.2379303 25.37620544 C-21.17832092 25.3897406 -21.17832092 25.3897406 -20.0973053 25.40354919 C-18.35236932 25.42712941 -16.60760735 25.46300084 -14.8629303 25.50120544 C-14.88387756 24.88600037 -14.90482483 24.27079529 -14.92640686 23.63694763 C-15.00970046 20.84186735 -15.06163043 18.0470483 -15.1129303 15.25120544 C-15.16320374 13.79907654 -15.16320374 13.79907654 -15.2144928 12.31761169 C-15.22738342 11.38304138 -15.24027405 10.44847107 -15.2535553 9.48558044 C-15.27450256 8.62674255 -15.29544983 7.76790466 -15.31703186 6.88304138 C-13.79350122 -1.10812253 -6.49974808 -0.05932042 0 0 Z " fill="#010102" transform="translate(51.86293029785156,407.49879455566406)"/>
<path d="M0 0 C42.9 0 85.8 0 130 0 C130.061875 20.026875 130.12375 40.05375 130.1875 60.6875 C130.22846802 70.17310669 130.22846802 70.17310669 130.27026367 79.8503418 C130.28381348 87.57189941 130.28381348 87.57189941 130.28633118 91.18659973 C130.29093818 93.71139613 130.30148991 96.23618593 130.31672668 98.76094055 C130.33865196 102.58512848 130.34171914 106.40891303 130.34057617 110.2331543 C130.3513705 111.35810397 130.36216482 112.48305365 130.37328625 113.6420927 C130.36915376 114.67335687 130.36502127 115.70462103 130.36076355 116.76713562 C130.36352893 117.66219661 130.36629431 118.5572576 130.36914349 119.47944164 C129.78543156 123.46510043 127.97320427 126.12659033 125.00854492 128.7872467 C120.35124598 130.66461759 115.83891668 130.42520632 110.86328125 130.40405273 C109.7391684 130.41091599 108.61505554 130.41777924 107.45687866 130.42485046 C103.74195722 130.44314854 100.02745683 130.43927683 96.3125 130.43359375 C93.73087425 130.43815375 91.14924971 130.44345877 88.56762695 130.44947815 C83.15733324 130.45841495 77.74720124 130.4562129 72.33691406 130.44604492 C66.08776981 130.43455976 59.83905452 130.44864794 53.58996677 130.4754414 C47.57085935 130.50027996 41.5519725 130.50277503 35.5328064 130.49632454 C32.97471401 130.49617101 30.41661349 130.50224157 27.85855103 130.51461601 C24.28428086 130.52947108 20.71095896 130.51888837 17.13671875 130.50170898 C15.54843765 130.51621094 15.54843765 130.51621094 13.92807007 130.53100586 C6.75397614 130.45869696 6.75397614 130.45869696 2.86645508 128.09364319 C0.04553068 124.92935103 -0.12444727 123.2027966 -0.12025452 119.05197144 C-0.12163201 118.0080467 -0.12300951 116.96412197 -0.12442875 115.88856316 C-0.12083064 114.73408243 -0.11723253 113.57960171 -0.11352539 112.39013672 C-0.11364593 111.16078463 -0.11376646 109.93143253 -0.11389065 108.66482735 C-0.11326627 105.33335604 -0.10831251 102.0019466 -0.10128021 98.67048645 C-0.09559378 95.54668271 -0.09531755 92.42288057 -0.09460449 89.29907227 C-0.08935296 80.15771009 -0.07539186 71.0163546 -0.0625 61.875 C-0.041875 41.45625 -0.02125 21.0375 0 0 Z " fill="#484946" transform="translate(370,250)"/>
<path d="M0 0 C0.94902185 -0.00706559 1.89804371 -0.01413118 2.8758238 -0.02141088 C4.42746253 -0.01778826 4.42746253 -0.01778826 6.0104475 -0.01409245 C7.11571779 -0.01932912 8.22098808 -0.0245658 9.3597514 -0.02996117 C13.07067963 -0.0449867 16.78147029 -0.04566689 20.49242687 -0.04633427 C23.15010691 -0.053954 25.80777534 -0.06233224 28.46544933 -0.07155704 C35.690666 -0.0943924 42.91585326 -0.10232594 50.14110112 -0.10738349 C54.65373913 -0.11064194 59.16636862 -0.11716529 63.67900181 -0.12438488 C76.17699725 -0.14394821 88.67498478 -0.16035421 101.17299652 -0.16326141 C102.37229834 -0.16354277 102.37229834 -0.16354277 103.59582848 -0.16382981 C105.21662374 -0.16419605 106.837419 -0.16455975 108.45821426 -0.16492092 C109.26276126 -0.16510373 110.06730826 -0.16528654 110.89623547 -0.16547489 C112.10453138 -0.16574572 112.10453138 -0.16574572 113.33723732 -0.16602201 C126.39073915 -0.16956393 139.44407604 -0.19658858 152.49752066 -0.23397278 C165.90419355 -0.27206093 179.31078459 -0.29141892 192.71751279 -0.29172093 C200.24298792 -0.29230535 207.76826624 -0.30078776 215.29369068 -0.32971859 C221.70132801 -0.35423924 228.10869673 -0.36151086 234.51636831 -0.34647106 C237.78437514 -0.3393049 241.05174169 -0.34287131 244.31971073 -0.36288166 C247.86633807 -0.38327431 251.41159203 -0.37282825 254.95820141 -0.35466862 C256.4998019 -0.37446857 256.4998019 -0.37446857 258.07254583 -0.39466852 C265.47317632 -0.30813101 270.36166386 1.55724327 275.69690305 6.73812968 C280.30126737 11.9177794 281.42400242 16.33626104 281.43549633 23.14746761 C281.43932188 23.82804846 281.44314742 24.5086293 281.4470889 25.2098338 C281.45738305 27.48357317 281.45343361 29.75705832 281.44945812 32.03081417 C281.45380666 33.66387318 281.45899028 35.29693015 281.46494579 36.92998409 C281.47833363 41.361925 281.47891457 45.79378062 281.47638249 50.22573781 C281.47531237 53.92838069 281.48019734 57.63100634 281.48498791 61.33364552 C281.49608292 70.0717448 281.49652091 78.8098011 281.49047375 87.54790401 C281.48443668 96.55414048 281.4967382 105.5602206 281.51804382 114.56643039 C281.53567575 122.30503118 281.54165856 130.04358229 281.53840607 137.78220242 C281.5365952 142.40128783 281.53920964 147.02026178 281.55312061 151.63932896 C281.5657198 155.98551039 281.56373512 160.3314488 281.55070972 164.67762661 C281.54834873 166.26909054 281.5510615 167.86057169 281.55933285 169.45201588 C281.60367747 178.65041881 281.41420253 185.98103573 276.48729992 194.01006222 C270.12981942 200.19571892 263.46470313 200.84300027 254.90246105 200.77472591 C253.78646039 200.78167144 252.67045972 200.78861697 251.52064085 200.79577297 C247.79122335 200.81402968 244.06244291 200.8037818 240.33300304 200.79350948 C237.6551622 200.80056857 234.9773662 200.80917702 232.29954052 200.81961727 C225.78739727 200.84122526 219.27542898 200.84113876 212.76326168 200.83299173 C207.46935806 200.82668452 202.17550537 200.82783535 196.88160229 200.8342638 C195.75018241 200.83561628 195.75018241 200.83561628 194.59590557 200.83699609 C193.06346268 200.83884734 191.5310198 200.8407099 189.99857694 200.84258365 C175.63853919 200.8591507 161.27859978 200.85045197 146.91856796 200.83359807 C133.7876465 200.81889939 120.65695383 200.83353372 107.52606183 200.86236823 C94.03339691 200.8917759 80.54083752 200.9027307 67.04814196 200.89318603 C65.52142717 200.89216351 63.99471237 200.8911689 62.46799755 200.89020252 C61.34132279 200.88948794 61.34132279 200.88948794 60.19188693 200.88875892 C54.90608557 200.88659674 49.62038437 200.89638828 44.33460522 200.91097355 C37.89041989 200.92850773 31.44652628 200.92836408 25.00235236 200.90562189 C21.71611558 200.8944896 18.43049776 200.89400469 15.14426517 200.9099226 C11.57806562 200.92583014 8.01327186 200.91092112 4.44713879 200.8882513 C3.41366959 200.90008703 2.3802004 200.91192276 1.31541395 200.92411715 C-5.29557626 200.83874788 -9.7311312 199.5738727 -14.82520008 195.26006222 C-21.51491041 188.37962408 -20.53250934 179.5683017 -20.47217274 170.59795284 C-20.47895487 168.9053316 -20.48786135 167.21271774 -20.49872303 165.52011776 C-20.52145225 160.93943668 -20.51270654 156.35932079 -20.4968276 151.77863026 C-20.48413546 146.97640534 -20.49591791 142.17422759 -20.50375843 137.37200069 C-20.51284535 129.30872093 -20.50089223 121.24567043 -20.47705555 113.1824255 C-20.4498461 103.87096454 -20.45866095 94.56005104 -20.48618758 85.24860334 C-20.50890494 77.24239093 -20.51206589 69.23634298 -20.49899423 61.23010874 C-20.49121416 56.45340633 -20.49011832 51.67696095 -20.50667667 46.90027523 C-20.52116049 42.4085993 -20.5110287 37.91762661 -20.48220539 33.42602634 C-20.4756154 31.78135818 -20.47745647 30.13663044 -20.48851871 28.49198627 C-20.58688935 12.37666216 -20.58688935 12.37666216 -14.82520008 6.26006222 C-10.41077161 2.06635517 -6.10684778 0.01458263 0 0 Z M-8.82520008 14.26006222 C-10.26436577 17.1383936 -9.96451308 19.62019132 -9.97910023 22.83812618 C-9.98348248 23.52163843 -9.98786474 24.20515069 -9.99237978 24.90937543 C-10.00578607 27.21084407 -10.01195073 29.51227441 -10.01807117 31.81377316 C-10.02597073 33.45948619 -10.03423959 35.10519748 -10.04285145 36.75090694 C-10.06908941 42.16540016 -10.08438124 47.57990119 -10.09863758 52.99443722 C-10.10399661 54.85721244 -10.10937411 56.7199876 -10.11476994 58.58276272 C-10.13640161 66.33079896 -10.15513869 74.0788331 -10.16639233 81.8268919 C-10.18263346 92.93639616 -10.21581186 104.04555077 -10.27279317 115.1549232 C-10.31147846 122.9630607 -10.33102336 130.77110462 -10.33631289 138.57933545 C-10.33996841 143.24434823 -10.3520107 147.90898821 -10.38441563 152.57389736 C-10.41447136 156.96362434 -10.42081716 161.35275249 -10.40903187 165.74256039 C-10.40881092 167.35262184 -10.41713371 168.96271087 -10.43468571 170.57267666 C-10.45737444 172.77385909 -10.449087 174.97286951 -10.43320179 177.17406368 C-10.43651194 178.40482506 -10.43982208 179.63558643 -10.44323254 180.90364361 C-9.61738909 185.38864484 -8.00716423 187.03796965 -4.82520008 190.26006222 C-2.46794825 191.43868813 -1.06749384 191.38741753 1.5611496 191.39148998 C2.48863142 191.39533113 3.41611325 191.39917227 4.37170058 191.40312982 C5.91033453 191.40183009 5.91033453 191.40183009 7.48005199 191.40050411 C9.10666092 191.4049608 9.10666092 191.4049608 10.76613063 191.40950751 C14.42425267 191.41822571 18.08234211 191.41970539 21.74047375 191.42119503 C24.35331321 191.42582099 26.96615199 191.43084534 29.57898998 191.4362402 C36.6946811 191.44983478 43.8103666 191.45585004 50.92606854 191.46025085 C55.36747212 191.46301148 59.80887351 191.46724851 64.25027561 191.47175503 C76.54227627 191.48394935 88.83427517 191.49424822 101.12628174 191.49763012 C101.91333828 191.49784969 102.70039482 191.49806925 103.51130156 191.49829547 C104.30026423 191.49851375 105.0892269 191.49873203 105.90209752 191.49895692 C107.5008922 191.49940039 109.09968688 191.49984695 110.69848156 191.50029659 C111.49154253 191.50051802 112.28460351 191.50073945 113.10169663 191.50096759 C125.95367245 191.50491605 138.80559157 191.52237077 151.65754548 191.54565611 C164.84600994 191.56935867 178.03444594 191.58183148 191.22293204 191.58299804 C198.63037431 191.58391544 206.03774273 191.58968399 213.44516468 191.60781765 C220.41117384 191.62481033 227.37704052 191.62647945 234.34306431 191.61767864 C236.90332317 191.61690545 239.46358942 191.62128788 242.02382946 191.63113689 C245.51225455 191.64377207 249.00017593 191.63802523 252.48859692 191.62755489 C254.01719262 191.6396395 254.01719262 191.6396395 255.57666904 191.65196824 C262.40943863 191.65581793 262.40943863 191.65581793 268.17479992 188.26006222 C271.26563777 184.35544379 271.55410825 181.30456316 271.5692091 176.39716244 C271.57834575 175.38029981 271.57834575 175.38029981 271.58766699 174.34289449 C271.60427581 172.07821418 271.59952445 169.81409742 271.59472179 167.54936886 C271.60206335 165.92291334 271.61064983 164.29646304 271.62038708 162.6700201 C271.64260189 158.25678477 271.64553381 153.84373615 271.64363956 149.43045259 C271.64351987 145.74500859 271.65208348 142.05960418 271.66041708 138.3741712 C271.67965073 129.67928835 271.68253498 120.98450152 271.67577648 112.28960323 C271.66913416 103.32184966 271.69200773 94.35450724 271.72909021 85.38683707 C271.75978278 77.68477128 271.77114777 69.98283779 271.7672534 62.28071207 C271.76518558 57.68172854 271.77067024 53.08306502 271.79514599 48.48413944 C271.81740362 44.1591647 271.81554385 39.83485878 271.79521847 35.50988102 C271.79180673 33.9240228 271.79690468 32.33811964 271.81120205 30.7523222 C271.82939953 28.58408471 271.81664648 26.4181152 271.79625988 24.24994564 C271.79732864 22.43177129 271.79732864 22.43177129 271.798419 20.57686615 C270.95673279 16.10024216 269.39453546 14.45180656 266.17479992 11.26006222 C263.3360299 10.31380554 261.59109562 10.13235814 258.64978504 10.12584114 C257.71682877 10.1213833 256.7838725 10.11692545 255.82264483 10.11233252 C254.28254372 10.11260907 254.28254372 10.11260907 252.71132946 10.1128912 C251.62198553 10.10921451 250.53264161 10.10553782 249.41028726 10.10174972 C245.74145475 10.09069167 242.07265053 10.08686547 238.40380383 10.08306026 C235.78096457 10.07679735 233.1581262 10.0701507 230.53528881 10.06314754 C222.65213692 10.04338752 214.76898376 10.03331854 206.8858133 10.02441975 C203.17462967 10.02003701 199.46344747 10.01467025 195.75226498 10.00943089 C183.41819143 9.99242079 171.08411877 9.97792537 158.75003529 9.97068214 C155.54950109 9.96877222 152.3489669 9.96685189 149.14843273 9.9648962 C148.35294664 9.96441246 147.55746056 9.96392872 146.73786883 9.96343032 C133.843906 9.95512529 120.9500358 9.92977945 108.05611344 9.89731552 C94.82241722 9.86426727 81.58876813 9.8462355 68.35503042 9.8430379 C60.92298377 9.84087097 53.49107229 9.83209546 46.05906582 9.80657673 C39.07085347 9.78263727 32.08288843 9.77902996 25.09464359 9.78933811 C22.52631668 9.78983553 19.9579781 9.78345493 17.38968754 9.76978207 C13.89024167 9.75219056 10.39168283 9.75910714 6.89223766 9.77231503 C5.86996503 9.76134578 4.84769241 9.75037653 3.79444182 9.73907489 C-1.65674185 9.78893358 -4.95804299 9.98046576 -8.82520008 14.26006222 Z " fill="#010101" transform="translate(45.82520008087158,105.7399377822876)"/>
<path d="M0 0 C1.46780159 -0.0129007 1.46780159 -0.0129007 2.96525574 -0.02606201 C4.58138512 -0.03245193 4.58138512 -0.03245193 6.23016357 -0.03897095 C7.36198563 -0.04714844 8.49380768 -0.05532593 9.65992737 -0.06375122 C13.41868556 -0.08863556 17.17740591 -0.10512894 20.93621826 -0.11953735 C22.85844837 -0.12752287 22.85844837 -0.12752287 24.81951141 -0.13566971 C30.20506816 -0.15690574 35.59061256 -0.17603533 40.9762001 -0.1872921 C48.69105572 -0.20352391 56.40540708 -0.23668056 64.1200726 -0.29369295 C70.20053644 -0.3370936 76.2808028 -0.35304035 82.36141205 -0.35942459 C84.94661803 -0.36614996 87.53181631 -0.38140507 90.11692047 -0.4053154 C93.73448656 -0.43686639 97.35077777 -0.43701795 100.96844482 -0.42959595 C102.03776749 -0.44600128 103.10709015 -0.46240662 104.20881653 -0.47930908 C112.31399105 -0.41119248 112.31399105 -0.41119248 116.00744629 2.56536865 C126.37622024 13.98345833 119.35809326 21.04516166 119.35809326 43.15390015 C76.45809326 43.15390015 33.55809326 43.15390015 -10.64190674 43.15390015 C-10.64190674 6.15390015 -10.64190674 6.15390015 -6.64190674 1.15390015 C-4.22927649 -0.05241498 -2.69582444 0.01760738 0 0 Z " fill="#484946" transform="translate(380.64190673828125,48.846099853515625)"/>
<path d="M0 0 C42.57 0 85.14 0 129 0 C129 14.19 129 28.38 129 43 C86.43 43 43.86 43 0 43 C0 28.81 0 14.62 0 0 Z " fill="#363634" transform="translate(370,197)"/>
<path d="M0 0 C42.57 0 85.14 0 129 0 C129 14.19 129 28.38 129 43 C86.43 43 43.86 43 0 43 C0 28.81 0 14.62 0 0 Z " fill="#333331" transform="translate(370,102)"/>
<path d="M0 0 C1.27734261 -0.01441132 1.27734261 -0.01441132 2.58049011 -0.02911377 C3.49405777 -0.03336365 4.40762543 -0.03761353 5.34887695 -0.04199219 C6.29849808 -0.04769226 7.2481192 -0.05339233 8.22651672 -0.05926514 C10.23628632 -0.06870459 12.24607131 -0.07524493 14.25585938 -0.07910156 C17.30862994 -0.08877677 20.36071828 -0.1197978 23.41333008 -0.15136719 C25.3710084 -0.1579009 27.3286915 -0.16314992 29.28637695 -0.16699219 C30.18982346 -0.17933899 31.09326996 -0.19168579 32.02409363 -0.20440674 C41.10752542 -0.17297636 48.24812261 1.91631249 54.9230957 8.19238281 C60.73309804 14.81736286 61.80657876 21.95640876 61.88793945 30.50488281 C61.8960112 31.31098999 61.90408295 32.11709717 61.91239929 32.94763184 C61.92620124 34.64882275 61.93694071 36.3500409 61.94482422 38.05126953 C61.95638076 39.79126086 61.9768902 41.53121575 62.00634766 43.27099609 C62.04893434 45.78670303 62.06517658 48.30136064 62.07543945 50.81738281 C62.09294754 51.59351929 62.11045563 52.36965576 62.12849426 53.16931152 C62.11534158 56.44023323 62.0086952 58.64919582 60.10368347 61.36547852 C56.7786712 63.79844962 53.88153064 63.72286089 49.9152832 63.67871094 C49.14083862 63.68572021 48.36639404 63.69272949 47.56848145 63.69995117 C45.01184089 63.7175378 42.45630976 63.7059067 39.8996582 63.69238281 C38.12133573 63.69507755 36.34301469 63.69895982 34.56469727 63.70397949 C30.83896853 63.70987542 27.11362356 63.70130868 23.38793945 63.68261719 C18.61266533 63.6598274 13.83829044 63.67295 9.06304932 63.69690704 C5.39128852 63.71136256 1.71974085 63.7067602 -1.95202637 63.69639587 C-3.71268826 63.6937279 -5.47336951 63.69700086 -7.23400879 63.70631409 C-9.69518267 63.71647589 -12.1549013 63.70098534 -14.6159668 63.67871094 C-15.3433606 63.68680786 -16.07075439 63.69490479 -16.82019043 63.70324707 C-20.1901428 63.64675502 -22.0550835 63.37795052 -24.80238342 61.36051941 C-27.10993134 58.08188476 -26.90350007 54.85597956 -26.84643555 50.99316406 C-26.84789078 50.19891525 -26.84934601 49.40466644 -26.85084534 48.58634949 C-26.84918734 46.90608046 -26.83763702 45.2257961 -26.81689453 43.5456543 C-26.78813387 40.9994895 -26.79624821 38.4554345 -26.80932617 35.90917969 C-26.79584046 24.66603548 -26.43264554 15.51694103 -18.3190918 6.88769531 C-13.07741263 2.29082588 -6.92852678 0.06344728 0 0 Z " fill="#484946" transform="translate(385.350341796875,410.8388671875)"/>
<path d="M0 0 C96.36 0 192.72 0 292 0 C292 5.28 292 10.56 292 16 C195.64 16 99.28 16 0 16 C0 10.72 0 5.44 0 0 Z " fill="#484946" transform="translate(30,443)"/>
<path d="M0 0 C43.23 0 86.46 0 131 0 C131 10.56 131 21.12 131 32 C87.77 32 44.54 32 0 32 C0 21.44 0 10.88 0 0 Z " fill="#474845" transform="translate(369,155)"/>
<path d="M0 0 C0 59.4 0 118.8 0 180 C83.82 180 167.64 180 254 180 C254 180.33 254 180.66 254 181 C220.21533687 181.11442578 186.43072193 181.20253886 152.64590808 181.25532665 C148.65798137 181.26158024 144.67005505 181.26805184 140.68212891 181.2746582 C139.49123441 181.27662553 139.49123441 181.27662553 138.27628143 181.2786326 C125.41835438 181.30039359 112.56053902 181.3398189 99.70267825 181.38576398 C86.51089148 181.4325094 73.31916324 181.46029133 60.12729704 181.47044247 C51.98609759 181.47730564 43.84521382 181.49898774 35.70411153 181.53958233 C29.46315747 181.56911825 23.22244446 181.57227897 16.98143005 181.56553841 C14.41996439 181.56691639 11.85848701 181.57689425 9.29709244 181.59602737 C5.80425727 181.62084308 2.31278129 181.6149455 -1.18008423 181.60127258 C-2.70635703 181.62311889 -2.70635703 181.62311889 -4.26346362 181.64540654 C-8.80214421 181.5972635 -11.99472189 181.50317836 -15.61374474 178.58742046 C-19.23205025 174.66408591 -19.12886377 172.68679228 -19.14717102 167.41520691 C-19.15268605 166.38888018 -19.15268605 166.38888018 -19.1583125 165.34181958 C-19.16936815 163.0380122 -19.17319634 160.73424989 -19.17700195 158.43041992 C-19.18326515 156.78308468 -19.18991183 155.13575085 -19.19691467 153.48841858 C-19.21433698 149.00487813 -19.22487965 144.52134835 -19.2331202 140.03778243 C-19.23826745 137.23797339 -19.24434329 134.43816767 -19.25063133 131.63836098 C-19.26968632 122.88234421 -19.28391714 114.1263359 -19.2922433 105.37030238 C-19.30201972 95.25553307 -19.32834846 85.14098237 -19.36874419 75.02629012 C-19.39887999 67.21307092 -19.41370974 59.39991447 -19.41702431 51.58663827 C-19.41937759 46.91780522 -19.42837393 42.24920563 -19.45348549 37.5804348 C-19.47672715 33.18830714 -19.4810153 28.79656731 -19.47072411 24.40439415 C-19.47022769 22.79230969 -19.47657929 21.1802064 -19.49028015 19.56818008 C-19.50794242 17.3669014 -19.50092252 15.1670231 -19.48774719 12.96574402 C-19.49013555 11.73406085 -19.4925239 10.50237768 -19.49498463 9.23337078 C-18.90645087 5.3889123 -17.70173666 3.74382023 -15 1 C-10.51793698 -1.24103151 -5.01109879 0 0 0 Z " fill="#317E9C" transform="translate(55,116)"/>
<path d="M0 0 C0.86423155 -0.00724325 1.7284631 -0.01448649 2.61888349 -0.02194923 C5.49665824 -0.03877273 8.37240859 -0.01294505 11.25009155 0.01295471 C13.32033325 0.00973383 15.39057228 0.00391419 17.46080017 -0.00430298 C23.07032295 -0.01881772 28.67912732 0.00407829 34.28856325 0.03455615 C40.16207313 0.06094548 46.03556157 0.05562442 51.90911865 0.05447388 C61.76980583 0.05728145 71.63021566 0.08330302 81.49081421 0.12428284 C92.89030386 0.17148316 104.28949003 0.1872761 115.68907034 0.18507618 C127.82946153 0.18304973 139.96973578 0.20387115 152.11009169 0.23141599 C155.60732054 0.23780877 159.10453052 0.23993935 162.60176468 0.24113274 C168.0962757 0.24414684 173.59053207 0.26246746 179.08495903 0.29263115 C181.10135145 0.3013911 183.11777318 0.30508528 185.13418388 0.30334854 C187.8863572 0.30187512 190.63781853 0.31885432 193.38989258 0.34057617 C194.18794866 0.33593037 194.98600475 0.33128456 195.80824435 0.32649797 C200.61932672 0.38921853 203.88258323 1.12436022 208.06796265 3.74171448 C211.03669109 6.87091473 212.00578193 8.49299161 213.06796265 12.74171448 C136.50796265 12.74171448 59.94796265 12.74171448 -18.93203735 12.74171448 C-15.69435055 3.02865408 -9.97803734 -0.1940134 0 0 Z " fill="#484946" transform="translate(78.93203735351563,368.25828552246094)"/>
<path d="M0 0 C1.27734261 -0.01441132 1.27734261 -0.01441132 2.58049011 -0.02911377 C3.49405777 -0.03336365 4.40762543 -0.03761353 5.34887695 -0.04199219 C6.29849808 -0.04769226 7.2481192 -0.05339233 8.22651672 -0.05926514 C10.23628632 -0.06870459 12.24607131 -0.07524493 14.25585938 -0.07910156 C17.30862994 -0.08877677 20.36071828 -0.1197978 23.41333008 -0.15136719 C25.3710084 -0.1579009 27.3286915 -0.16314992 29.28637695 -0.16699219 C30.18982346 -0.17933899 31.09326996 -0.19168579 32.02409363 -0.20440674 C41.10752542 -0.17297636 48.24812261 1.91631249 54.9230957 8.19238281 C60.73309804 14.81736286 61.80657876 21.95640876 61.88793945 30.50488281 C61.8960112 31.31098999 61.90408295 32.11709717 61.91239929 32.94763184 C61.92620124 34.64882275 61.93694071 36.3500409 61.94482422 38.05126953 C61.95638076 39.79126086 61.9768902 41.53121575 62.00634766 43.27099609 C62.04893434 45.78670303 62.06517658 48.30136064 62.07543945 50.81738281 C62.09294754 51.59351929 62.11045563 52.36965576 62.12849426 53.16931152 C62.11534158 56.44023323 62.0086952 58.64919582 60.10368347 61.36547852 C56.7786712 63.79844962 53.88153064 63.72286089 49.9152832 63.67871094 C49.14083862 63.68572021 48.36639404 63.69272949 47.56848145 63.69995117 C45.01184089 63.7175378 42.45630976 63.7059067 39.8996582 63.69238281 C38.12133573 63.69507755 36.34301469 63.69895982 34.56469727 63.70397949 C30.83896853 63.70987542 27.11362356 63.70130868 23.38793945 63.68261719 C18.61266533 63.6598274 13.83829044 63.67295 9.06304932 63.69690704 C5.39128852 63.71136256 1.71974085 63.7067602 -1.95202637 63.69639587 C-3.71268826 63.6937279 -5.47336951 63.69700086 -7.23400879 63.70631409 C-9.69518267 63.71647589 -12.1549013 63.70098534 -14.6159668 63.67871094 C-15.3433606 63.68680786 -16.07075439 63.69490479 -16.82019043 63.70324707 C-20.1901428 63.64675502 -22.0550835 63.37795052 -24.80238342 61.36051941 C-27.10993134 58.08188476 -26.90350007 54.85597956 -26.84643555 50.99316406 C-26.84789078 50.19891525 -26.84934601 49.40466644 -26.85084534 48.58634949 C-26.84918734 46.90608046 -26.83763702 45.2257961 -26.81689453 43.5456543 C-26.78813387 40.9994895 -26.79624821 38.4554345 -26.80932617 35.90917969 C-26.79584046 24.66603548 -26.43264554 15.51694103 -18.3190918 6.88769531 C-13.07741263 2.29082588 -6.92852678 0.06344728 0 0 Z M-11.3503418 15.16113281 C-18.21629281 24.25820891 -18.21629281 24.25820891 -15.3503418 52.16113281 C6.4296582 52.16113281 28.2096582 52.16113281 50.6496582 52.16113281 C53.51560922 24.25820891 53.51560922 24.25820891 46.6496582 15.16113281 C41.48158756 10.5020977 36.83172592 10.57384149 30.2121582 10.62988281 C28.71471069 10.62414246 28.71471069 10.62414246 27.18701172 10.61828613 C25.08242786 10.61557171 22.97780999 10.62289989 20.87329102 10.63964844 C17.6599576 10.66106417 14.44885994 10.63983016 11.2355957 10.61425781 C9.18611162 10.61690117 7.13662893 10.62202632 5.0871582 10.62988281 C3.65255249 10.61773743 3.65255249 10.61773743 2.18896484 10.60534668 C-3.47218036 10.68455716 -6.97511074 11.21684557 -11.3503418 15.16113281 Z " fill="#010101" transform="translate(385.350341796875,410.8388671875)"/>
<path d="M0 0 C42.57 0 85.14 0 129 0 C129 14.19 129 28.38 129 43 C86.43 43 43.86 43 0 43 C0 28.81 0 14.62 0 0 Z M8 7 C8 16.57 8 26.14 8 36 C45.29 36 82.58 36 121 36 C121 26.43 121 16.86 121 7 C83.71 7 46.42 7 8 7 Z " fill="#C7C7C0" transform="translate(370,102)"/>
<path d="M0 0 C42.57 0 85.14 0 129 0 C129 14.19 129 28.38 129 43 C86.43 43 43.86 43 0 43 C0 28.81 0 14.62 0 0 Z M7 6 C7 15.9 7 25.8 7 36 C44.95 36 82.9 36 122 36 C122 26.1 122 16.2 122 6 C84.05 6 46.1 6 7 6 Z " fill="#CBCBC4" transform="translate(370,197)"/>
<path d="M0 0 C48.84 0 97.68 0 148 0 C148 4.62 148 9.24 148 14 C99.16 14 50.32 14 0 14 C0 9.38 0 4.76 0 0 Z " fill="#67BFDF" transform="translate(76,419)"/>
<path d="M0 0 C17.82 0 35.64 0 54 0 C54.66 4.95 55.32 9.9 56 15 C56.79032284 19.32144208 56.79032284 19.32144208 57.6328125 23.6328125 C58 26 58 26 58 31 C37.54 31 17.08 31 -4 31 C-2.96327078 20.63270778 -1.47346907 10.31428352 0 0 Z " fill="#313130" transform="translate(149,328)"/>
<path d="M0 0 C1.18439415 0.00136711 1.18439415 0.00136711 2.39271545 0.00276184 C3.2040242 -0.00152328 4.01533295 -0.00580841 4.85122681 -0.01022339 C6.56857876 -0.01597091 8.28595506 -0.01646385 10.00331116 -0.01213074 C12.63288391 -0.0089734 15.26132901 -0.03241439 17.89076233 -0.05778503 C19.55807861 -0.06005823 21.22539793 -0.06076143 22.89271545 -0.05973816 C23.68028732 -0.06894791 24.46785919 -0.07815765 25.27929688 -0.08764648 C28.22277089 -0.06267082 30.59815719 -0.03779249 33.20399475 1.41804504 C34.71240983 4.24765146 34.59840508 6.6421825 34.6075592 9.83479309 C34.61335999 11.76258606 34.61335999 11.76258606 34.61927795 13.72932434 C34.61299377 14.39786438 34.60670959 15.06640442 34.60023499 15.75520325 C34.58417525 17.79673639 34.60008842 19.83629017 34.61927795 21.87776184 C34.61541077 23.16295715 34.61154358 24.44815247 34.6075592 25.77229309 C34.60417542 26.95242981 34.60079163 28.13256653 34.5973053 29.34846497 C34.2091217 32.30354309 34.2091217 32.30354309 33.20399475 34.18904114 C29.94885293 36.00763401 26.52334956 35.70928043 22.89271545 35.66682434 C21.67431725 35.6675721 21.67431725 35.6675721 20.43130493 35.66833496 C18.71569876 35.66599592 17.00008907 35.65627737 15.28456116 35.63972473 C12.65298435 35.61610021 10.02241844 35.61916871 7.39076233 35.62580872 C5.72474064 35.62023299 4.05872323 35.61312377 2.39271545 35.60432434 C1.60311935 35.60523575 0.81352325 35.60614716 0 35.60708618 C-5.55984037 35.53458101 -5.55984037 35.53458101 -7.7908783 33.30354309 C-8.04966736 30.26252747 -8.04966736 30.26252747 -8.0565033 26.39729309 C-8.05841675 25.71678894 -8.0603302 25.03628479 -8.06230164 24.3351593 C-8.06366293 22.89606863 -8.05997035 21.45696565 -8.05162048 20.01789856 C-8.04091958 17.81205222 -8.05151701 15.60702028 -8.0643158 13.40119934 C-8.06299419 12.00406212 -8.06043177 10.60692541 -8.0565033 9.20979309 C-8.05424744 7.93426575 -8.05199158 6.6587384 -8.04966736 5.34455872 C-7.57895207 -0.18679003 -4.9311509 0.06430651 0 0 Z " fill="#010000" transform="translate(453.79087829589844,309.6964569091797)"/>
<path d="M0 0 C7.26 0 14.52 0 22 0 C22 4.95 22 9.9 22 15 C14.74 15 7.48 15 0 15 C0 10.05 0 5.1 0 0 Z " fill="#E15F4F" transform="translate(456,320)"/>
<path d="M0 0 C5.94 0 11.88 0 18 0 C18 4.62 18 9.24 18 14 C12.06 14 6.12 14 0 14 C0 9.38 0 4.76 0 0 Z " fill="#66BDDC" transform="translate(290,419)"/>
<path d="M0 0 C5.94 0 11.88 0 18 0 C18 4.62 18 9.24 18 14 C12.06 14 6.12 14 0 14 C0 9.38 0 4.76 0 0 Z " fill="#66BDDC" transform="translate(262,419)"/>
<path d="M0 0 C5.94 0 11.88 0 18 0 C18 4.62 18 9.24 18 14 C12.06 14 6.12 14 0 14 C0 9.38 0 4.76 0 0 Z " fill="#66BDDC" transform="translate(234,419)"/>
<path d="M0 0 C5.94 0 11.88 0 18 0 C18 4.62 18 9.24 18 14 C12.06 14 6.12 14 0 14 C0 9.38 0 4.76 0 0 Z " fill="#66BDDC" transform="translate(48,419)"/>
</svg>
