<?xml version="1.0" encoding="UTF-8"?>
<svg version="1.1" xmlns="http://www.w3.org/2000/svg" width="35" height="35">
<path d="M0 0 C38.61 0 77.22 0 117 0 C117 48.84 117 97.68 117 148 C157.92 148 198.84 148 241 148 C257.92994815 184.11722272 257.92994815 184.11722272 263.5 196.5 C269.24646631 209.22360324 275.12274507 221.88267469 281.078125 234.50976562 C281.37838089 235.1470459 281.67863678 235.78432617 281.98799133 236.44091797 C282.79325545 238.14926602 283.60005481 239.85689018 284.40698242 241.56445312 C285.19552612 243.26504883 285.19552612 243.26504883 286 245 C286.33481919 245.64098601 286.66963839 246.28197203 287.01460361 246.94238186 C289.95471606 252.86673088 290.55747392 257.73721206 290.45410156 264.29321289 C290.45468567 265.27963776 290.45526978 266.26606262 290.45587158 267.28237915 C290.45310544 270.51284112 290.42208274 273.74235732 290.390625 276.97265625 C290.38315739 279.22423295 290.37746692 281.47581619 290.37347412 283.72740173 C290.35825884 289.63103424 290.31901219 295.53426823 290.2746582 301.43774414 C290.23361693 307.47081106 290.21544421 313.50394286 290.1953125 319.53710938 C290.15251414 331.35824726 290.08431251 343.17909039 290 355 C292.64 355 295.28 355 298 355 C298 366.22 298 377.44 298 389 C276.22 389 254.44 389 232 389 C232 391.97 232 394.94 232 398 C229.25538018 411.02887174 222.14879691 422.39488832 211.171875 429.9453125 C198.05082192 437.98616298 184.62845627 440.26927978 169.45703125 437.30859375 C155.53762862 433.00492334 144.33445868 424.29524173 137.21484375 411.53515625 C133.59007484 403.97092788 132.84852318 397.48523183 132 389 C75.24 389 18.48 389 -40 389 C-40.33 392.63 -40.66 396.26 -41 400 C-42.81923693 407.55683033 -46.37504817 413.82125857 -51 420 C-52.11375 421.546875 -52.11375 421.546875 -53.25 423.125 C-62.19886507 432.48063167 -74.13467175 437.97503528 -87.09155273 438.29272461 C-101.9672962 438.41812114 -114.24215167 434.98306238 -125.47265625 424.74609375 C-135.35622521 414.46652203 -140 403.10313885 -140 389 C-159.14 389 -178.28 389 -198 389 C-198 378.11 -198 367.22 -198 356 C-203.28 356 -208.56 356 -214 356 C-214 320.03 -214 284.06 -214 247 C-208.72 247 -203.44 247 -198 247 C-198 206.41 -198 165.82 -198 124 C-165.33 124 -132.66 124 -99 124 C-99 104.86 -99 85.72 -99 66 C-66.33 66 -33.66 66 0 66 C0 44.22 0 22.44 0 0 Z " fill="#A0D368" transform="translate(214,37)"/>
<path d="M0 0 C38.61 0 77.22 0 117 0 C117.04030303 33.37539045 117.04030303 33.37539045 117.04882812 48.13085938 C117.05637537 61.67115761 117.05637537 61.67115761 117.07165909 75.21144867 C117.15351762 132.81821342 116.58191937 190.38998212 116 248 C12.38 248 -91.24 248 -198 248 C-198 207.08 -198 166.16 -198 124 C-165.33 124 -132.66 124 -99 124 C-99 104.86 -99 85.72 -99 66 C-66.33 66 -33.66 66 0 66 C0 44.22 0 22.44 0 0 Z " fill="#F6C191" transform="translate(214,37)"/>
<path d="M0 0 C38.61 0 77.22 0 117 0 C117.04217371 34.92451848 117.04217371 34.92451848 117.05078125 47.97387695 C117.05131248 48.7765099 117.05184372 49.57914285 117.05239105 50.40609801 C117.05624526 56.37489844 117.05951426 62.34369907 117.0625 68.3125 C117.0629343 69.15583625 117.06336861 69.99917251 117.06381607 70.8680644 C117.09340626 129.92205059 116.73470405 188.94816213 116 248 C78.05 248 40.1 248 1 248 C0.74922556 205.01905306 0.74922556 205.01905306 0.64453125 186.52734375 C0.57319628 173.93082025 0.50152666 161.33429949 0.42724609 148.73779297 C-0.01088248 74.34159901 -0.01088248 74.34159901 -0.03125 45.32714844 C-0.03176865 44.58873356 -0.03228729 43.85031869 -0.03282166 43.08952761 C-0.04102289 28.72633394 -0.01659046 14.36318966 0 0 Z " fill="#FED1A5" transform="translate(214,37)"/>
<path d="M0 0 C33 0 66 0 100 0 C100 40.92 100 81.84 100 124 C67 124 34 124 0 124 C0 83.08 0 42.16 0 0 Z " fill="#FED1A5" transform="translate(16,161)"/>
<path d="M0 0 C27.39 0 54.78 0 83 0 C99.92994815 36.11722272 99.92994815 36.11722272 105.5 48.5 C111.24646631 61.22360324 117.12274507 73.88267469 123.078125 86.50976562 C128.06465918 97.08533353 128.06465918 97.08533353 130.42578125 102.28125 C130.890448 103.3031543 130.890448 103.3031543 131.36450195 104.34570312 C132 106 132 106 132 108 C118.35208221 108.0928394 104.70424005 108.163836 91.05607033 108.20724869 C84.71809326 108.22808869 78.38033286 108.25634131 72.04248047 108.30175781 C65.92165381 108.34534271 59.80103507 108.36916407 53.68006516 108.37950897 C51.34936629 108.3868776 49.01867831 108.40126669 46.68806839 108.42292023 C43.41370649 108.45212152 40.14019463 108.45594892 36.86572266 108.45410156 C35.91049713 108.46848267 34.95527161 108.48286377 33.97109985 108.49768066 C24.18964836 108.43829235 14.97351596 105.03337446 8 98 C2.39584662 90.35344405 -0.31879119 83.30969329 -0.22705078 73.79150391 C-0.22729185 72.97798147 -0.22753292 72.16445904 -0.2277813 71.32628441 C-0.22629612 68.7095967 -0.21110011 66.09319882 -0.1953125 63.4765625 C-0.19236959 61.8544122 -0.19033068 60.23226 -0.18920898 58.61010742 C-0.17875034 52.61504253 -0.15082779 46.62001838 -0.125 40.625 C-0.08375 27.21875 -0.0425 13.8125 0 0 Z " fill="#5D9BEB" transform="translate(372,185)"/>
<path d="M0 0 C32.67 0 65.34 0 99 0 C99 27.39 99 54.78 99 83 C66.33 83 33.66 83 0 83 C0 55.61 0 28.22 0 0 Z " fill="#EAAF81" transform="translate(116,202)"/>
<path d="M0 0 C10.44396719 7.8917437 17.24887761 18.85330361 19.4296875 31.8359375 C21.57326322 47.27638133 18.96060522 59.35171871 9.8359375 72.0546875 C1.93040104 81.75015674 -8.49614091 87.12252953 -20.5703125 89.8359375 C-36.33144929 90.80609829 -49.79969478 88.96301792 -62.5703125 78.8359375 C-71.25677219 70.91794818 -78.76178059 59.87790207 -79.5703125 47.8359375 C-79.86052447 31.40421727 -76.42234652 17.03029992 -64.9453125 4.6484375 C-46.6645823 -12.55285911 -20.47542129 -14.06572419 0 0 Z " fill="#656D78" transform="translate(153.5703125,385.1640625)"/>
<path d="M0 0 C9.8315106 7.98228194 17.66393488 18.67382621 19.78515625 31.47265625 C21.16528812 47.70802576 18.81415131 61.11076822 8.2578125 74.15234375 C-0.2928655 83.39488158 -11.84058404 89.57513754 -24.42578125 90.3125 C-39.30445296 90.84707197 -51.80961436 87.76043909 -63.41015625 77.96484375 C-73.33350081 68.57162778 -78.99053678 57.36270207 -79.99609375 43.69140625 C-80.01686186 29.38218056 -74.81476064 15.29566899 -64.96875 4.84375 C-47.19684958 -11.9269166 -20.12443896 -14.04967984 0 0 Z " fill="#656D78" transform="translate(426,385)"/>
<path d="M0 0 C10.89 0 21.78 0 33 0 C33 32.67 33 65.34 33 99 C35.64 99 38.28 99 41 99 C41 109.89 41 120.78 41 132 C27.47 132 13.94 132 0 132 C0 88.44 0 44.88 0 0 Z " fill="#8CC152" transform="translate(471,293)"/>
<path d="M0 0 C11.22 0 22.44 0 34 0 C41.91154707 16.80261901 49.77006533 33.61785242 57.42230225 50.53952026 C62.86948872 62.5793733 68.44110572 74.55768936 74.078125 86.50976562 C79.06465918 97.08533353 79.06465918 97.08533353 81.42578125 102.28125 C81.73555908 102.96251953 82.04533691 103.64378906 82.36450195 104.34570312 C83 106 83 106 83 108 C71.78 108 60.56 108 49 108 C46.834375 103.215 44.66875 98.43 42.4375 93.5 C36.90577622 81.30529822 31.28677785 69.15578703 25.57769775 57.04321289 C19.91160645 45.01627693 14.38720645 32.92799488 8.921875 20.80859375 C8.32964396 19.49729786 7.73720366 18.18609646 7.14453125 16.875 C6.72743393 15.95122559 6.72743393 15.95122559 6.3019104 15.00878906 C4.79775597 11.69536196 3.23339459 8.42590892 1.57421875 5.1875 C0 2 0 2 0 0 Z " fill="#4A89DC" transform="translate(421,185)"/>
<path d="M0 0 C10.89 0 21.78 0 33 0 C33 13.53 33 27.06 33 41 C22.11 41 11.22 41 0 41 C0 27.47 0 13.94 0 0 Z " fill="#ED5565" transform="translate(256,37)"/>
<path d="M0 0 C3.73643541 1.84812934 6.3614879 4.48033312 8.21875 8.2109375 C9.99409571 13.92565977 9.8166863 19.4256448 7.19140625 24.7734375 C2.50384586 29.96776117 -0.61050361 32.07589379 -7.49609375 32.5859375 C-13.08900858 32.20021924 -16.5464499 30.19760176 -20.43359375 26.2734375 C-23.86289489 21.98454901 -24.61307465 17.74772735 -24.12109375 12.3359375 C-22.71650823 7.10066421 -19.82621111 3.09173776 -15.2421875 0.18359375 C-10.32560143 -1.78122978 -5.00937087 -1.56831132 0 0 Z " fill="#CACFD7" transform="translate(131.12109375,409.6640625)"/>
<path d="M0 0 C4.39122198 2.45053212 7.2522114 5.25940682 9.203125 9.92578125 C10.29969861 14.22945714 10.14909528 17.94359787 8.7734375 22.1640625 C6.18823574 26.40209817 3.25881105 29.35679426 -1.1015625 31.7265625 C-6.75315742 32.51778579 -11.35759787 32.04564959 -16.5390625 29.6015625 C-20.44226538 26.06144826 -22.70061947 22.31972065 -23.57421875 17.078125 C-23.78165615 12.37019793 -22.81572863 9.0478117 -20.2265625 5.1640625 C-14.55677168 -0.56769324 -7.77456344 -2.91887119 0 0 Z " fill="#CACFD7" transform="translate(403.2265625,409.8359375)"/>
<path d="M0 0 C10.89 0 21.78 0 33 0 C33 8.25 33 16.5 33 25 C22.11 25 11.22 25 0 25 C0 16.75 0 8.5 0 0 Z " fill="#ED5866" transform="translate(50,161)"/>
<path d="M0 0 C5.28 0 10.56 0 16 0 C16.09198433 4.05753083 16.17156595 8.11239665 16.21972656 12.17041016 C16.23980642 13.5497668 16.26707666 14.92903869 16.30175781 16.30810547 C16.35042817 18.29356979 16.37086418 20.27966254 16.390625 22.265625 C16.41157227 23.45961914 16.43251953 24.65361328 16.45410156 25.88378906 C15.91179294 29.60530907 14.94077338 30.73973334 12 33 C10 33.56640625 10 33.56640625 8 33.5625 C7.01 33.59537109 7.01 33.59537109 6 33.62890625 C2.84457427 32.63667277 1.79402654 30.71456047 0 28 C-0.45410156 24.86206055 -0.45410156 24.86206055 -0.390625 21.38671875 C-0.37773437 20.13955078 -0.36484375 18.89238281 -0.3515625 17.60742188 C-0.31804687 16.31384766 -0.28453125 15.02027344 -0.25 13.6875 C-0.23195312 12.37458984 -0.21390625 11.06167969 -0.1953125 9.70898438 C-0.14823409 6.47234385 -0.076493 3.23607897 0 0 Z " fill="#EC5665" transform="translate(157,202)"/>
<path d="M0 0 C5.28 0 10.56 0 16 0 C16.08096264 3.25049988 16.14048115 6.49898234 16.1875 9.75 C16.21263672 10.67039062 16.23777344 11.59078125 16.26367188 12.5390625 C16.27333984 13.42851563 16.28300781 14.31796875 16.29296875 15.234375 C16.3086792 16.05131836 16.32438965 16.86826172 16.34057617 17.70996094 C15.91840019 20.54867832 14.91773036 21.89890334 13 24 C11.1328125 24.78515625 11.1328125 24.78515625 9.125 25.0625 C8.46757812 25.17722656 7.81015625 25.29195312 7.1328125 25.41015625 C3.4283058 24.69775112 2.17368418 23.0183801 0 20 C-0.59996141 16.53876945 -0.47324784 13.18685672 -0.3125 9.6875 C-0.28994141 8.75615234 -0.26738281 7.82480469 -0.24414062 6.86523438 C-0.18544561 4.57612873 -0.09577065 2.28785439 0 0 Z " fill="#ED5665" transform="translate(157,103)"/>
<path d="M0 0 C0 5.28 0 10.56 0 16 C-11.36238614 16.49401679 -11.36238614 16.49401679 -14.32421875 14.19921875 C-16.70669537 11.07256528 -17.06862393 8.91156399 -17 5 C-13.08431109 -1.81619922 -6.98459952 -0.3837692 0 0 Z " fill="#E2E7E7" transform="translate(504,343)"/>
</svg>
