<?xml version="1.0" encoding="UTF-8"?>
<svg viewBox="0 0 48 48"  version="1.1" xmlns="http://www.w3.org/2000/svg" width="100%" height="100%">
<path d="M0 0 C0.85199478 -0.00852997 1.70398956 -0.01705994 2.58180237 -0.02584839 C3.97967735 -0.02448883 3.97967735 -0.02448883 5.40579224 -0.02310181 C6.38996628 -0.02981903 7.37414032 -0.03653625 8.38813782 -0.04345703 C11.65335095 -0.06250552 14.91835895 -0.06636588 18.18362427 -0.06851196 C20.4574797 -0.0749394 22.7313343 -0.08166772 25.00518799 -0.08868408 C29.78180861 -0.10067698 34.55835684 -0.10436326 39.33499146 -0.10317993 C45.42871105 -0.10297761 51.52195973 -0.13018121 57.61556816 -0.16472435 C62.31876717 -0.18707668 67.02185481 -0.19101478 71.72510147 -0.18996048 C73.96957127 -0.1923077 76.21404456 -0.20108115 78.45846176 -0.21662521 C97.91427783 -0.3386556 112.8555137 1.62039723 127.62893677 15.57992554 C139.48163383 28.1310851 142.43104091 42.49530094 142.33110046 59.29928589 C142.33643634 60.88262244 142.34350797 62.46595391 142.35214752 64.04927588 C142.37066202 68.36576307 142.36450899 72.68190456 142.35399449 76.99840546 C142.34697102 81.66637602 142.36302362 86.3342778 142.37599182 91.00222778 C142.3975798 100.13090359 142.39751911 109.25945449 142.38936628 118.38814741 C142.38305765 125.80533174 142.38421119 133.22247974 142.39063835 140.6396637 C142.39154001 141.69664671 142.39244166 142.75362972 142.39337064 143.84264252 C142.39522187 145.99000793 142.39708443 148.13737333 142.3989582 150.28473872 C142.41551657 170.39555047 142.40683204 190.50629195 142.38997262 210.61709946 C142.37525646 229.02315729 142.38993449 247.42905217 142.41874278 265.83508903 C142.44811433 284.74178002 142.45911695 303.64839573 142.44956058 322.55510855 C142.44853803 324.69197685 142.44754342 326.82884517 142.44657707 328.9657135 C142.44610068 330.01706522 142.44562429 331.06841694 142.44513347 332.15162781 C142.44296752 339.56487458 142.45278228 346.97805016 142.4673481 354.39128113 C142.48483695 363.4177431 142.48480275 372.4439968 142.46199644 381.47045046 C142.45082652 386.07674398 142.44775416 390.68267008 142.46629715 395.28894806 C142.48304344 399.50296565 142.47683126 403.71629365 142.45208036 407.93026608 C142.44717762 409.4568712 142.4507655 410.98353134 142.4635678 412.51009065 C142.47969227 414.58178534 142.46516402 416.65107848 142.44284916 418.72266388 C142.44244463 420.44988355 142.44244463 420.44988355 142.44203192 422.21199656 C141.62435424 426.20556344 139.9022355 427.69762348 136.81643677 430.26742554 C133.95035548 431.70046618 132.00342894 431.57386709 128.81643677 431.26742554 C125.2258261 429.47212021 123.27726348 428.33001341 121.66196632 424.60541344 C120.70989986 420.84683832 120.52742105 417.33308153 120.53796387 413.48461914 C120.53217147 412.71995185 120.52637906 411.95528456 120.52041113 411.16744554 C120.50346096 408.61560526 120.50053895 406.06394639 120.49758911 403.51205444 C120.48828749 401.67867594 120.47811847 399.84530165 120.46714783 398.01193237 C120.43986013 393.04138078 120.42470202 388.0708575 120.4117198 383.10025072 C120.39608392 377.90320623 120.36929513 372.70621952 120.34368896 367.50921631 C120.29690932 357.67088215 120.26016124 347.83253712 120.22701609 337.99414861 C120.18878899 326.79225216 120.13938034 315.59041376 120.08903193 304.38856626 C119.98572417 281.34822905 119.89645997 258.30785455 119.81643677 235.26742554 C119.2038652 236.10165794 119.2038652 236.10165794 118.57891846 236.95274353 C118.04128876 237.67864182 117.50365906 238.4045401 116.94973755 239.1524353 C116.41760651 239.87359024 115.88547546 240.59474518 115.33721924 241.3377533 C112.50404346 244.93267943 109.13535233 246.85879461 104.81643677 248.26742554 C102.89841584 248.19220903 100.9814311 248.08629718 99.06643677 247.95492554 C95.69954044 248.0920002 93.64919726 248.47375482 91.17288208 250.83383179 C87.50522778 255.24105424 84.44666006 260.04838467 81.38137817 264.88461304 C79.91134968 267.12290915 78.35824169 269.22622528 76.70315552 271.32992554 C76.22507446 271.94585571 75.74699341 272.56178589 75.25442505 273.19638062 C74.36185486 274.33752067 73.45591516 275.46837512 72.53469849 276.58651733 C71.1478453 278.32234672 71.1478453 278.32234672 69.81643677 281.26742554 C70.45093575 284.85538789 70.45093575 284.85538789 71.81643677 288.26742554 C72.54309075 294.34259081 72.46223213 300.13146735 69.23440552 305.47445679 C66.1979161 309.31398473 63.42955138 311.5246577 58.81643677 313.26742554 C56.03936826 313.48227685 53.44962971 313.56945307 50.6802063 313.5105896 C49.49876636 313.49702612 49.49876636 313.49702612 48.29345894 313.48318863 C39.37545729 313.32864286 30.50457643 312.63529052 21.62112427 311.87680054 C19.84999062 311.7292607 18.0788416 311.58190539 16.30767822 311.4347229 C12.63498111 311.12742317 8.96288028 310.81386537 5.29104614 310.49642944 C0.60335353 310.09227385 -4.08588119 309.71050378 -8.77586555 309.33401108 C-12.41780662 309.03808661 -16.05836102 308.72722078 -19.69869614 308.41220856 C-21.42768853 308.26497653 -23.15714126 308.123043 -24.88702774 307.98671722 C-27.30147717 307.7948405 -29.71323604 307.5820046 -32.12545776 307.36410522 C-32.82582657 307.31303116 -33.52619537 307.26195709 -34.24778748 307.20933533 C-41.40057153 306.51825996 -47.48104423 303.75369771 -52.18356323 298.26742554 C-56.60236463 306.99666535 -60.94938465 315.75949783 -65.18356323 324.57992554 C-65.58115845 325.39759399 -65.97875366 326.21526245 -66.38839722 327.05770874 C-66.753927 327.8242981 -67.11945679 328.59088745 -67.49606323 329.38070679 C-67.82219604 330.05915649 -68.14832886 330.7376062 -68.48434448 331.43661499 C-69.36195454 333.4078877 -69.36195454 333.4078877 -69.18356323 336.26742554 C-67.66262728 337.70853538 -67.66262728 337.70853538 -65.58981323 338.98226929 C-64.42748169 339.75486084 -64.42748169 339.75486084 -63.2416687 340.5430603 C-61.97540649 341.36568359 -61.97540649 341.36568359 -60.68356323 342.20492554 C-58.92376521 343.37642758 -57.16598211 344.55096146 -55.41012573 345.72836304 C-54.52615112 346.32100952 -53.64217651 346.91365601 -52.73141479 347.52426147 C-49.08843746 350.01667793 -45.56694885 352.65274239 -42.05856323 355.32992554 C-35.75945013 360.12541539 -29.34964406 364.73559145 -22.85299683 369.25985718 C-14.549959 375.05716753 -8.34833044 379.80438404 -6.18356323 390.26742554 C-5.52301827 396.98296597 -6.76009364 402.40270742 -10.18356323 408.26742554 C-14.81203253 413.51431245 -19.55793996 417.03256939 -26.68869019 417.49447632 C-28.0031311 417.48400269 -29.31757202 417.47352905 -30.67184448 417.46273804 C-31.72664253 417.45849319 -31.72664253 417.45849319 -32.80274963 417.4541626 C-35.03403215 417.44302704 -37.2649034 417.41793551 -39.49606323 417.39242554 C-41.01493762 417.38238714 -42.53381833 417.37326279 -44.05270386 417.36508179 C-47.76312245 417.34310967 -51.47330265 417.308626 -55.18356323 417.26742554 C-55.48375366 418.05745972 -55.78394409 418.8474939 -56.0932312 419.66146851 C-57.21361463 422.33925013 -58.12735973 423.53586628 -60.30856323 425.39242554 C-60.84739136 425.86937866 -61.38621948 426.34633179 -61.94137573 426.83773804 C-69.08880853 431.39516034 -75.7306412 431.70196408 -83.98043823 431.65560913 C-85.71855774 431.66349457 -85.71855774 431.66349457 -87.49179077 431.67153931 C-91.30585377 431.68469712 -95.1194963 431.67601574 -98.93356323 431.66586304 C-101.5933992 431.66788498 -104.2532226 431.67079322 -106.91305542 431.67456055 C-112.48113524 431.68000586 -118.04909537 431.67285882 -123.61715698 431.65853882 C-130.03835519 431.64221456 -136.45926755 431.64750394 -142.88045883 431.66401803 C-148.41108507 431.67766799 -153.94162568 431.67953549 -159.47226334 431.67170203 C-162.76780903 431.6670447 -166.06319228 431.66753905 -169.35873413 431.67631149 C-173.03491397 431.68395017 -176.71054886 431.67228691 -180.38668823 431.65560913 C-182.00782532 431.66471817 -182.00782532 431.66471817 -183.66171265 431.67401123 C-191.61026328 431.60737933 -198.67647328 430.52652067 -204.79684448 424.89242554 C-210.0336669 418.75575476 -212.05132678 412.23768978 -211.66012573 404.22836304 C-210.55928345 397.3887036 -207.71578967 392.12266239 -202.30856323 387.76742554 C-195.74393236 383.04308867 -188.4345005 382.94812089 -180.65621948 382.85336304 C-179.66730209 382.83399689 -178.6783847 382.81463074 -177.65950012 382.79467773 C-174.52177372 382.73521932 -171.38400995 382.68863198 -168.24606323 382.64242554 C-166.10998012 382.6042147 -163.9739119 382.56516118 -161.83786011 382.52523804 C-156.61989404 382.42954582 -151.40183718 382.34440099 -146.18356323 382.26742554 C-156.66220708 373.17644829 -156.66220708 373.17644829 -167.49606323 364.51742554 C-185.1207806 350.77331181 -185.1207806 350.77331181 -187.18356323 343.26742554 C-188.52503795 332.27438374 -185.64209598 324.09825185 -180.87106323 314.45492554 C-180.19513471 313.03696301 -179.52203733 311.61764803 -178.85153198 310.19711304 C-177.41000407 307.1511194 -175.95475363 304.1122369 -174.48971558 301.07748413 C-170.86800747 293.55366643 -167.39010123 285.96269385 -163.89129639 278.38119507 C-162.68003846 275.75979725 -161.46484881 273.14025964 -160.2482605 270.52133179 C-155.53189637 260.36732964 -150.85628445 250.19613303 -146.23535156 239.99835205 C-145.31895516 237.97783814 -144.40001206 235.95850299 -143.48019409 233.93954468 C-140.80278809 228.05968263 -138.13656663 222.17622207 -135.52670288 216.26600647 C-134.38296434 213.68375244 -133.22488754 211.10808303 -132.06411743 208.53344727 C-131.27798563 206.77627874 -130.51087228 205.01063913 -129.74459839 203.24472046 C-125.85239855 194.65058219 -121.19395118 188.00233256 -112.55856323 183.76742554 C-103.2875557 180.64411355 -94.71683466 181.13780849 -85.90231323 185.28695679 C-84.49141738 185.92831471 -83.08044406 186.56950221 -81.66940308 187.21054077 C-80.9367926 187.54786224 -80.20418213 187.88518372 -79.44937134 188.23272705 C-76.39493602 189.62755814 -73.3185483 190.97008697 -70.24206543 192.31541443 C-67.05903052 193.71345144 -63.88797187 195.13750365 -60.71774292 196.56430054 C-59.10399317 197.286465 -57.48707195 198.00158152 -55.86715698 198.70980835 C-33.26209835 208.60632479 -33.26209835 208.60632479 -27.62106323 219.82992554 C-26.47168927 222.80997658 -26.05871162 225.34104018 -25.93356323 228.51742554 C-25.14165589 232.47696227 -24.92895057 233.05063785 -21.87106323 235.32992554 C-12.9414883 239.83504848 -0.73781761 235.57999813 8.57815552 233.72836304 C10.520785 233.35379699 12.46341764 232.97924655 14.40622425 232.60560036 C19.13611187 231.69411469 23.86339289 230.76944906 28.58914185 229.83676147 C31.26128877 229.30992151 33.93464473 228.79020098 36.60960388 228.27783203 C39.11156761 227.79810134 41.61155248 227.30789275 44.10908508 226.80560303 C51.46035109 225.40801408 58.26355377 224.33505687 65.37503052 227.35336304 C65.99506958 227.77875366 66.61510864 228.20414429 67.25393677 228.64242554 C67.89202271 229.06265991 68.53010864 229.48289429 69.18753052 229.91586304 C70.81643677 231.26742554 70.81643677 231.26742554 72.81643677 234.26742554 C72.65143677 233.64867554 72.48643677 233.02992554 72.31643677 232.39242554 C70.964326 223.94173322 71.51262827 216.81174866 75.81643677 209.26742554 C79.59880938 204.28667744 83.72877052 200.99226431 89.81643677 199.26742554 C93.49920447 199.04815385 97.13289896 199.0875783 100.81643677 199.26742554 C101.14643677 200.91742554 101.47643677 202.56742554 101.81643677 204.26742554 C100.36194276 205.27300164 98.90271233 206.27172988 97.44143677 207.26742554 C96.62932739 207.82430054 95.81721802 208.38117554 94.98049927 208.95492554 C92.81643677 210.26742554 92.81643677 210.26742554 90.81643677 210.26742554 C89.80060794 218.23277741 89.80060794 218.23277741 92.28128052 225.57211304 C94.45129459 227.43703602 96.0637899 228.47120537 98.81643677 229.26742554 C102.14485054 228.87105652 104.80028538 227.66778154 107.81643677 226.26742554 C109.14190204 225.90406523 110.47373725 225.56076304 111.81643677 225.26742554 C111.94018677 224.21555054 112.06393677 223.16367554 112.19143677 222.07992554 C112.73556519 218.76074215 113.18207602 216.19207108 114.81643677 213.26742554 C116.87893677 212.39242554 116.87893677 212.39242554 118.81643677 212.26742554 C119.14643677 212.59742554 119.47643677 212.92742554 119.81643677 213.26742554 C120.14643677 202.04742554 120.47643677 190.82742554 120.81643677 179.26742554 C115.53643677 179.26742554 110.25643677 179.26742554 104.81643677 179.26742554 C104.90924927 181.37117554 104.90924927 181.37117554 105.00393677 183.51742554 C104.9858583 186.39190168 104.88831766 188.09829402 103.75393677 190.76742554 C100.81738487 193.04088507 98.48788849 193.20412465 94.81643677 193.26742554 C91.86887945 191.92180154 90.27366405 191.1818801 88.81643677 188.26742554 C88.69290532 185.39737828 88.62800902 182.55257125 88.61331177 179.68148804 C88.60761169 178.82815887 88.60191162 177.97482971 88.59603882 177.09564209 C88.58658479 175.28833254 88.58005324 173.48100571 88.57620239 171.67367554 C88.5664997 168.91034824 88.53548186 166.14776559 88.50393677 163.38461304 C88.49740641 161.62940912 88.49215607 159.87419989 88.48831177 158.11898804 C88.47596497 157.2928299 88.46361816 156.46667175 88.45089722 155.61547852 C88.46454936 152.09428041 88.47436802 149.8776167 90.22024536 146.76327515 C92.63110759 144.50396757 94.59283186 144.28397644 97.80862427 144.05258179 C99.81643677 144.26742554 99.81643677 144.26742554 102.81643677 146.14242554 C105.59195625 150.47917472 105.19577316 153.18431794 104.81643677 158.26742554 C110.09643677 158.26742554 115.37643677 158.26742554 120.81643677 158.26742554 C120.77834092 143.83699204 120.71892177 129.40681721 120.63253403 114.9765873 C120.59281966 108.27550792 120.56088213 101.57456692 120.54544067 94.87338257 C120.53025949 88.40227573 120.49578687 81.93152901 120.44812775 75.46058273 C120.43332923 72.99597688 120.42539664 70.5313196 120.42455292 68.06666946 C120.42217704 64.60536889 120.39504508 61.14505847 120.36233521 57.68392944 C120.36736557 56.67259949 120.37239594 55.66126953 120.37757874 54.61929321 C120.23733829 44.98153124 117.47016338 37.10916249 110.81643677 30.02523804 C104.10351642 24.12521039 97.62691661 22.13832894 88.84475708 22.15390015 C87.80512566 22.15368111 87.80512566 22.15368111 86.74449158 22.15345764 C84.46114944 22.15415247 82.1778896 22.16192469 79.89456177 22.16976929 C78.30844162 22.17163499 76.72232089 22.17305818 75.13619995 22.17405701 C70.96707562 22.17787015 66.79798627 22.18769017 62.62887573 22.19876099 C58.37239047 22.20900096 54.11589955 22.21356017 49.85940552 22.21859741 C41.51173324 22.22931352 33.16408936 22.2463755 24.81643677 22.26742554 C25.30153717 22.81333847 25.78663757 23.3592514 26.28643799 23.92170715 C26.92040497 24.63963943 27.55437195 25.35757172 28.20755005 26.09725952 C28.83702545 26.80817245 29.46650085 27.51908539 30.11505127 28.25154114 C34.76766497 33.76418444 37.34949284 40.1076187 37.81643677 47.26742554 C38.84768677 47.18492554 39.87893677 47.10242554 40.94143677 47.01742554 C46.22205008 47.35811027 48.89738405 49.41454705 52.62893677 53.01742554 C55.19030795 57.87054988 55.20427444 61.89858669 53.75393677 67.01742554 C51.45733431 70.86979095 49.76745726 72.16387296 45.81643677 74.26742554 C42.82914897 74.82575871 39.90973374 74.82501098 36.87698364 74.8008728 C35.99817032 74.80948837 35.11935699 74.81810394 34.21391296 74.82698059 C31.32070118 74.84960834 28.42846043 74.84290807 25.53518677 74.83383179 C23.51789055 74.83906848 21.50059679 74.84534513 19.48330688 74.85261536 C15.26008564 74.86301344 11.03720148 74.85846603 6.81399536 74.84384155 C1.40664743 74.82664759 -3.99963852 74.85015996 -9.40686798 74.88533115 C-13.57110614 74.90730814 -17.73509025 74.90586303 -21.89936829 74.89756584 C-23.89283921 74.89674663 -25.88632883 74.90360428 -27.87974548 74.91833687 C-30.66852836 74.93578994 -33.45540341 74.92123472 -36.24411011 74.89852905 C-37.47398903 74.91606735 -37.47398903 74.91606735 -38.72871399 74.93395996 C-44.56523319 74.8374508 -47.08887055 73.43764644 -51.18356323 69.26742554 C-53.4755943 66.24611185 -53.60822043 63.11844165 -53.49606323 59.36117554 C-52.92691974 55.54791411 -51.50011289 53.37647902 -49.18356323 50.26742554 C-44.81922037 47.26087823 -41.4143655 46.9535774 -36.18356323 47.26742554 C-36.12168823 46.15367554 -36.05981323 45.03992554 -35.99606323 43.89242554 C-34.91101492 35.59327225 -30.59801728 28.77301362 -24.58590698 23.09555054 C-20.18060802 19.74322547 -15.23148326 17.48851035 -10.18356323 15.26742554 C-10.24543823 14.23617554 -10.30731323 13.20492554 -10.37106323 12.14242554 C-10.16935708 7.97383164 -9.38517979 5.77370377 -7.18356323 2.26742554 C-4.10711705 0.21646142 -3.471803 0.01572684 0 0 Z M43.27346802 267.36117554 C42.20032349 267.58676147 41.12717896 267.81234741 40.02151489 268.04476929 C38.90196411 268.28324585 37.78241333 268.52172241 36.62893677 268.76742554 C34.93220825 269.12514038 34.93220825 269.12514038 33.20120239 269.49008179 C30.40570238 270.07984972 27.61082244 270.67240401 24.81643677 271.26742554 C24.81643677 271.59742554 24.81643677 271.92742554 24.81643677 272.26742554 C28.81335551 272.65200878 32.81251301 272.96559854 36.81643677 273.26742554 C38.22602661 273.42211304 38.22602661 273.42211304 39.66409302 273.57992554 C42.22854845 273.76558747 44.31028102 273.85387514 46.81643677 273.26742554 C49.21266411 271.10378911 50.26248594 269.16813375 51.81643677 266.26742554 C48.77157991 266.26742554 46.2486306 266.7315115 43.27346802 267.36117554 Z " fill="#63AEFE" transform="translate(370.1835632324219,40.732574462890625)"/>
<path d="M0 0 C0.85199478 -0.00852997 1.70398956 -0.01705994 2.58180237 -0.02584839 C3.97967735 -0.02448883 3.97967735 -0.02448883 5.40579224 -0.02310181 C6.38996628 -0.02981903 7.37414032 -0.03653625 8.38813782 -0.04345703 C11.65335095 -0.06250552 14.91835895 -0.06636588 18.18362427 -0.06851196 C20.4574797 -0.0749394 22.7313343 -0.08166772 25.00518799 -0.08868408 C29.78180861 -0.10067698 34.55835684 -0.10436326 39.33499146 -0.10317993 C45.42871105 -0.10297761 51.52195973 -0.13018121 57.61556816 -0.16472435 C62.31876717 -0.18707668 67.02185481 -0.19101478 71.72510147 -0.18996048 C73.96957127 -0.1923077 76.21404456 -0.20108115 78.45846176 -0.21662521 C97.91427783 -0.3386556 112.8555137 1.62039723 127.62893677 15.57992554 C139.48163383 28.1310851 142.43104091 42.49530094 142.33110046 59.29928589 C142.33643634 60.88262244 142.34350797 62.46595391 142.35214752 64.04927588 C142.37066202 68.36576307 142.36450899 72.68190456 142.35399449 76.99840546 C142.34697102 81.66637602 142.36302362 86.3342778 142.37599182 91.00222778 C142.3975798 100.13090359 142.39751911 109.25945449 142.38936628 118.38814741 C142.38305765 125.80533174 142.38421119 133.22247974 142.39063835 140.6396637 C142.39154001 141.69664671 142.39244166 142.75362972 142.39337064 143.84264252 C142.39522187 145.99000793 142.39708443 148.13737333 142.3989582 150.28473872 C142.41551657 170.39555047 142.40683204 190.50629195 142.38997262 210.61709946 C142.37525646 229.02315729 142.38993449 247.42905217 142.41874278 265.83508903 C142.44811433 284.74178002 142.45911695 303.64839573 142.44956058 322.55510855 C142.44853803 324.69197685 142.44754342 326.82884517 142.44657707 328.9657135 C142.44610068 330.01706522 142.44562429 331.06841694 142.44513347 332.15162781 C142.44296752 339.56487458 142.45278228 346.97805016 142.4673481 354.39128113 C142.48483695 363.4177431 142.48480275 372.4439968 142.46199644 381.47045046 C142.45082652 386.07674398 142.44775416 390.68267008 142.46629715 395.28894806 C142.48304344 399.50296565 142.47683126 403.71629365 142.45208036 407.93026608 C142.44717762 409.4568712 142.4507655 410.98353134 142.4635678 412.51009065 C142.47969227 414.58178534 142.46516402 416.65107848 142.44284916 418.72266388 C142.44244463 420.44988355 142.44244463 420.44988355 142.44203192 422.21199656 C141.62435424 426.20556344 139.9022355 427.69762348 136.81643677 430.26742554 C133.95035548 431.70046618 132.00342894 431.57386709 128.81643677 431.26742554 C125.2258261 429.47212021 123.27726348 428.33001341 121.66196632 424.60541344 C120.70989986 420.84683832 120.52742105 417.33308153 120.53796387 413.48461914 C120.53217147 412.71995185 120.52637906 411.95528456 120.52041113 411.16744554 C120.50346096 408.61560526 120.50053895 406.06394639 120.49758911 403.51205444 C120.48828749 401.67867594 120.47811847 399.84530165 120.46714783 398.01193237 C120.43986013 393.04138078 120.42470202 388.0708575 120.4117198 383.10025072 C120.39608392 377.90320623 120.36929513 372.70621952 120.34368896 367.50921631 C120.29690932 357.67088215 120.26016124 347.83253712 120.22701609 337.99414861 C120.18878899 326.79225216 120.13938034 315.59041376 120.08903193 304.38856626 C119.98572417 281.34822905 119.89645997 258.30785455 119.81643677 235.26742554 C119.2038652 236.10165794 119.2038652 236.10165794 118.57891846 236.95274353 C118.04128876 237.67864182 117.50365906 238.4045401 116.94973755 239.1524353 C116.41760651 239.87359024 115.88547546 240.59474518 115.33721924 241.3377533 C112.50404346 244.93267943 109.13535233 246.85879461 104.81643677 248.26742554 C102.89841584 248.19220903 100.9814311 248.08629718 99.06643677 247.95492554 C95.69954044 248.0920002 93.64919726 248.47375482 91.17288208 250.83383179 C87.50522778 255.24105424 84.44666006 260.04838467 81.38137817 264.88461304 C79.91134968 267.12290915 78.35824169 269.22622528 76.70315552 271.32992554 C76.22507446 271.94585571 75.74699341 272.56178589 75.25442505 273.19638062 C74.36185486 274.33752067 73.45591516 275.46837512 72.53469849 276.58651733 C71.1478453 278.32234672 71.1478453 278.32234672 69.81643677 281.26742554 C70.45093575 284.85538789 70.45093575 284.85538789 71.81643677 288.26742554 C72.54309075 294.34259081 72.46223213 300.13146735 69.23440552 305.47445679 C66.1979161 309.31398473 63.42955138 311.5246577 58.81643677 313.26742554 C56.03936826 313.48227685 53.44962971 313.56945307 50.6802063 313.5105896 C49.49876636 313.49702612 49.49876636 313.49702612 48.29345894 313.48318863 C39.37545729 313.32864286 30.50457643 312.63529052 21.62112427 311.87680054 C19.84999062 311.7292607 18.0788416 311.58190539 16.30767822 311.4347229 C12.63498111 311.12742317 8.96288028 310.81386537 5.29104614 310.49642944 C0.60335353 310.09227385 -4.08588119 309.71050378 -8.77586555 309.33401108 C-12.41780662 309.03808661 -16.05836102 308.72722078 -19.69869614 308.41220856 C-21.42768853 308.26497653 -23.15714126 308.123043 -24.88702774 307.98671722 C-27.30147717 307.7948405 -29.71323604 307.5820046 -32.12545776 307.36410522 C-32.82582657 307.31303116 -33.52619537 307.26195709 -34.24778748 307.20933533 C-40.4298963 306.61204299 -45.43460693 304.30950736 -50.37106323 300.64242554 C-52.63822623 297.67166023 -54.08041334 294.51136513 -55.67965698 291.14242554 C-57.96873699 286.76641804 -60.78817255 282.78281033 -63.60934448 278.73617554 C-65.18356323 276.26742554 -65.18356323 276.26742554 -65.18356323 274.26742554 C-64.39183716 273.82874146 -63.60011108 273.39005737 -62.78439331 272.93807983 C-59.83006904 271.30058958 -56.87618002 269.66231947 -53.9225769 268.02352905 C-52.64735832 267.31618756 -51.3719701 266.60915179 -50.09640503 265.9024353 C-48.25651421 264.8829878 -46.41724861 263.8624201 -44.57809448 262.84164429 C-43.47312622 262.22893677 -42.36815796 261.61622925 -41.22970581 260.98495483 C-40.22447876 260.41817017 -39.21925171 259.8513855 -38.18356323 259.26742554 C-37.24029175 258.75526489 -36.29702026 258.24310425 -35.32516479 257.71542358 C-32.89498006 256.42301738 -32.89498006 256.42301738 -32.52340698 253.52523804 C-32.41125854 252.45015991 -32.29911011 251.37508179 -32.18356323 250.26742554 C-31.41940434 247.8764336 -30.60449825 245.50121136 -29.74606323 243.14242554 C-29.31422729 241.94359741 -28.88239136 240.74476929 -28.43746948 239.50961304 C-27.4656248 236.9967436 -26.45172771 234.6385982 -25.18356323 232.26742554 C-24.74528198 232.6399646 -24.30700073 233.01250366 -23.85543823 233.39633179 C-17.53618832 238.11008121 -12.71460502 237.31052964 -5.18356323 236.26742554 C-0.57541181 235.51950006 3.99955315 234.63840225 8.57815552 233.72836304 C10.520785 233.35379699 12.46341764 232.97924655 14.40622425 232.60560036 C19.13611187 231.69411469 23.86339289 230.76944906 28.58914185 229.83676147 C31.26128877 229.30992151 33.93464473 228.79020098 36.60960388 228.27783203 C39.11156761 227.79810134 41.61155248 227.30789275 44.10908508 226.80560303 C51.46035109 225.40801408 58.26355377 224.33505687 65.37503052 227.35336304 C65.99506958 227.77875366 66.61510864 228.20414429 67.25393677 228.64242554 C68.21106567 229.2727771 68.21106567 229.2727771 69.18753052 229.91586304 C70.81643677 231.26742554 70.81643677 231.26742554 72.81643677 234.26742554 C72.65143677 233.64867554 72.48643677 233.02992554 72.31643677 232.39242554 C70.964326 223.94173322 71.51262827 216.81174866 75.81643677 209.26742554 C79.59880938 204.28667744 83.72877052 200.99226431 89.81643677 199.26742554 C93.49920447 199.04815385 97.13289896 199.0875783 100.81643677 199.26742554 C101.14643677 200.91742554 101.47643677 202.56742554 101.81643677 204.26742554 C100.36194276 205.27300164 98.90271233 206.27172988 97.44143677 207.26742554 C96.62932739 207.82430054 95.81721802 208.38117554 94.98049927 208.95492554 C92.81643677 210.26742554 92.81643677 210.26742554 90.81643677 210.26742554 C89.80060794 218.23277741 89.80060794 218.23277741 92.28128052 225.57211304 C94.45129459 227.43703602 96.0637899 228.47120537 98.81643677 229.26742554 C102.14485054 228.87105652 104.80028538 227.66778154 107.81643677 226.26742554 C109.14190204 225.90406523 110.47373725 225.56076304 111.81643677 225.26742554 C112.00206177 223.68961304 112.00206177 223.68961304 112.19143677 222.07992554 C112.73556519 218.76074215 113.18207602 216.19207108 114.81643677 213.26742554 C116.87893677 212.39242554 116.87893677 212.39242554 118.81643677 212.26742554 C119.14643677 212.59742554 119.47643677 212.92742554 119.81643677 213.26742554 C120.14643677 202.04742554 120.47643677 190.82742554 120.81643677 179.26742554 C115.53643677 179.26742554 110.25643677 179.26742554 104.81643677 179.26742554 C104.87831177 180.66992554 104.94018677 182.07242554 105.00393677 183.51742554 C104.9858583 186.39190168 104.88831766 188.09829402 103.75393677 190.76742554 C100.81738487 193.04088507 98.48788849 193.20412465 94.81643677 193.26742554 C91.86887945 191.92180154 90.27366405 191.1818801 88.81643677 188.26742554 C88.69290532 185.39737828 88.62800902 182.55257125 88.61331177 179.68148804 C88.60761169 178.82815887 88.60191162 177.97482971 88.59603882 177.09564209 C88.58658479 175.28833254 88.58005324 173.48100571 88.57620239 171.67367554 C88.5664997 168.91034824 88.53548186 166.14776559 88.50393677 163.38461304 C88.49740641 161.62940912 88.49215607 159.87419989 88.48831177 158.11898804 C88.47596497 157.2928299 88.46361816 156.46667175 88.45089722 155.61547852 C88.46454936 152.09428041 88.47436802 149.8776167 90.22024536 146.76327515 C92.63110759 144.50396757 94.59283186 144.28397644 97.80862427 144.05258179 C99.81643677 144.26742554 99.81643677 144.26742554 102.81643677 146.14242554 C105.59195625 150.47917472 105.19577316 153.18431794 104.81643677 158.26742554 C110.09643677 158.26742554 115.37643677 158.26742554 120.81643677 158.26742554 C120.77834092 143.83699204 120.71892177 129.40681721 120.63253403 114.9765873 C120.59281966 108.27550792 120.56088213 101.57456692 120.54544067 94.87338257 C120.53025949 88.40227573 120.49578687 81.93152901 120.44812775 75.46058273 C120.43332923 72.99597688 120.42539664 70.5313196 120.42455292 68.06666946 C120.42217704 64.60536889 120.39504508 61.14505847 120.36233521 57.68392944 C120.36736557 56.67259949 120.37239594 55.66126953 120.37757874 54.61929321 C120.23733829 44.98153124 117.47016338 37.10916249 110.81643677 30.02523804 C104.10351642 24.12521039 97.62691661 22.13832894 88.84475708 22.15390015 C88.15166946 22.15375412 87.45858185 22.15360809 86.74449158 22.15345764 C84.46114944 22.15415247 82.1778896 22.16192469 79.89456177 22.16976929 C78.30844162 22.17163499 76.72232089 22.17305818 75.13619995 22.17405701 C70.96707562 22.17787015 66.79798627 22.18769017 62.62887573 22.19876099 C58.37239047 22.20900096 54.11589955 22.21356017 49.85940552 22.21859741 C41.51173324 22.22931352 33.16408936 22.2463755 24.81643677 22.26742554 C25.30153717 22.81333847 25.78663757 23.3592514 26.28643799 23.92170715 C26.92040497 24.63963943 27.55437195 25.35757172 28.20755005 26.09725952 C29.15176315 27.16362892 29.15176315 27.16362892 30.11505127 28.25154114 C34.76766497 33.76418444 37.34949284 40.1076187 37.81643677 47.26742554 C38.84768677 47.18492554 39.87893677 47.10242554 40.94143677 47.01742554 C46.22205008 47.35811027 48.89738405 49.41454705 52.62893677 53.01742554 C55.19030795 57.87054988 55.20427444 61.89858669 53.75393677 67.01742554 C51.45733431 70.86979095 49.76745726 72.16387296 45.81643677 74.26742554 C42.82914897 74.82575871 39.90973374 74.82501098 36.87698364 74.8008728 C35.99817032 74.80948837 35.11935699 74.81810394 34.21391296 74.82698059 C31.32070118 74.84960834 28.42846043 74.84290807 25.53518677 74.83383179 C23.51789055 74.83906848 21.50059679 74.84534513 19.48330688 74.85261536 C15.26008564 74.86301344 11.03720148 74.85846603 6.81399536 74.84384155 C1.40664743 74.82664759 -3.99963852 74.85015996 -9.40686798 74.88533115 C-13.57110614 74.90730814 -17.73509025 74.90586303 -21.89936829 74.89756584 C-23.89283921 74.89674663 -25.88632883 74.90360428 -27.87974548 74.91833687 C-30.66852836 74.93578994 -33.45540341 74.92123472 -36.24411011 74.89852905 C-37.47398903 74.91606735 -37.47398903 74.91606735 -38.72871399 74.93395996 C-44.56523319 74.8374508 -47.08887055 73.43764644 -51.18356323 69.26742554 C-53.4755943 66.24611185 -53.60822043 63.11844165 -53.49606323 59.36117554 C-52.92691974 55.54791411 -51.50011289 53.37647902 -49.18356323 50.26742554 C-44.81922037 47.26087823 -41.4143655 46.9535774 -36.18356323 47.26742554 C-36.09075073 45.59680054 -36.09075073 45.59680054 -35.99606323 43.89242554 C-34.91101492 35.59327225 -30.59801728 28.77301362 -24.58590698 23.09555054 C-20.18060802 19.74322547 -15.23148326 17.48851035 -10.18356323 15.26742554 C-10.24543823 14.23617554 -10.30731323 13.20492554 -10.37106323 12.14242554 C-10.16935708 7.97383164 -9.38517979 5.77370377 -7.18356323 2.26742554 C-4.10711705 0.21646142 -3.471803 0.01572684 0 0 Z M43.27346802 267.36117554 C42.20032349 267.58676147 41.12717896 267.81234741 40.02151489 268.04476929 C38.90196411 268.28324585 37.78241333 268.52172241 36.62893677 268.76742554 C34.93220825 269.12514038 34.93220825 269.12514038 33.20120239 269.49008179 C30.40570238 270.07984972 27.61082244 270.67240401 24.81643677 271.26742554 C24.81643677 271.59742554 24.81643677 271.92742554 24.81643677 272.26742554 C28.81335551 272.65200878 32.81251301 272.96559854 36.81643677 273.26742554 C38.22602661 273.42211304 38.22602661 273.42211304 39.66409302 273.57992554 C42.22854845 273.76558747 44.31028102 273.85387514 46.81643677 273.26742554 C49.21266411 271.10378911 50.26248594 269.16813375 51.81643677 266.26742554 C48.77157991 266.26742554 46.2486306 266.7315115 43.27346802 267.36117554 Z " fill="#6B9AAA" transform="translate(370.1835632324219,40.732574462890625)"/>
<path d="M0 0 C0.85809265 -0.01283524 1.7161853 -0.02567047 2.60028076 -0.03889465 C3.52528381 -0.04628159 4.45028687 -0.05366852 5.40332031 -0.0612793 C6.83698944 -0.07338692 6.83698944 -0.07338692 8.29962158 -0.08573914 C10.32375275 -0.09957126 12.34790717 -0.11029731 14.37207031 -0.11816406 C17.45585797 -0.1353554 20.53856739 -0.17924704 23.62207031 -0.22338867 C25.59081245 -0.23351793 27.55956368 -0.2420333 29.52832031 -0.2487793 C30.9036795 -0.27504143 30.9036795 -0.27504143 32.30682373 -0.30183411 C39.22575017 -0.27858642 43.51216942 1.19500336 48.69238281 5.9934082 C49.39234375 6.85772461 49.39234375 6.85772461 50.10644531 7.73950195 C50.58855469 8.31829102 51.07066406 8.89708008 51.56738281 9.4934082 C53.73434531 12.62750497 53.85142834 15.37980251 53.82910156 19.0637207 C53.82426758 20.47041016 53.82426758 20.47041016 53.81933594 21.90551758 C53.80676758 23.37021484 53.80676758 23.37021484 53.79394531 24.86450195 C53.78943359 25.85256836 53.78492187 26.84063477 53.78027344 27.85864258 C53.76848835 30.29815669 53.75203542 32.73754884 53.73144531 35.17700195 C55.46430786 35.15343628 55.46430786 35.15343628 57.23217773 35.12939453 C61.52784219 35.07499826 65.82347631 35.04061662 70.11938477 35.01220703 C71.97685876 34.99714249 73.83429732 34.97668686 75.69165039 34.95068359 C78.36516071 34.91419737 81.03819976 34.89725226 83.71191406 34.8840332 C84.95282051 34.86080742 84.95282051 34.86080742 86.21879578 34.83711243 C90.9148357 34.83574896 93.88895722 35.18192744 97.73144531 38.17700195 C101.36934566 41.8149023 100.10096987 47.63505486 100.10644531 52.55200195 C100.1309375 53.7018457 100.15542969 54.85168945 100.18066406 56.03637695 C100.18453125 57.14239258 100.18839844 58.2484082 100.19238281 59.38793945 C100.20060059 60.40162598 100.20881836 61.4153125 100.21728516 62.4597168 C99.60615166 65.87776494 98.42118355 67.05253925 95.73144531 69.17700195 C92.95002488 69.68456043 90.58572242 69.36728709 87.73144531 69.17700195 C87.6940625 69.88598633 87.65667969 70.5949707 87.61816406 71.32543945 C87.09619082 79.779359 86.26736367 88.19453488 85.35644531 96.61450195 C85.24260498 97.73969238 85.12876465 98.86488281 85.01147461 100.02416992 C83.49986147 113.5470066 83.49986147 113.5470066 78.23144531 118.55200195 C74.80224724 120.7809807 72.23432336 121.30258467 68.23503113 121.31744385 C67.31402115 121.32315399 66.39301117 121.32886414 65.4440918 121.33474731 C64.43572266 121.33586517 63.42735352 121.33698303 62.38842773 121.33813477 C60.79288811 121.34558212 60.79288811 121.34558212 59.16511536 121.35317993 C55.63904172 121.36780936 52.11301308 121.37460489 48.58691406 121.38012695 C46.13934833 121.38587776 43.69178262 121.39163551 41.24421692 121.3973999 C36.1086913 121.40791212 30.97318135 121.41375335 25.83764648 121.41723633 C19.25682514 121.42272145 12.67621067 121.44674916 6.09545422 121.47520828 C1.03826797 121.49383101 -4.01886841 121.49904008 -9.07608604 121.5005722 C-11.50217507 121.50360008 -13.9282632 121.5116331 -16.35431862 121.52475739 C-19.74882372 121.54180977 -23.14282297 121.53993932 -26.53735352 121.53344727 C-27.53964996 121.54266205 -28.54194641 121.55187683 -29.57461548 121.56137085 C-36.08805842 121.5223439 -40.44030388 120.61244015 -45.51855469 116.23950195 C-50.09834826 108.2248632 -49.86531323 96.85682213 -50.89355469 87.80200195 C-51.02761719 86.66633789 -51.16167969 85.53067383 -51.29980469 84.3605957 C-51.48929688 82.71124023 -51.48929688 82.71124023 -51.68261719 81.02856445 C-51.79557129 80.04710449 -51.90852539 79.06564453 -52.02490234 78.05444336 C-52.27665438 75.08134771 -52.31001344 72.15926829 -52.26855469 69.17700195 C-53.50605469 69.25950195 -54.74355469 69.34200195 -56.01855469 69.42700195 C-59.0151858 69.62677736 -59.97450132 69.41035811 -62.36914062 67.51000977 C-64.72420922 64.61733168 -64.78316181 63.15059295 -64.79980469 59.45825195 C-64.80496094 58.36125977 -64.81011719 57.26426758 -64.81542969 56.1340332 C-64.79996094 54.99321289 -64.78449219 53.85239258 -64.76855469 52.67700195 C-64.78402344 51.53618164 -64.79949219 50.39536133 -64.81542969 49.2199707 C-64.81027344 48.12297852 -64.80511719 47.02598633 -64.79980469 45.89575195 C-64.79529297 44.89479492 -64.79078125 43.89383789 -64.78613281 42.86254883 C-64.13138307 39.46526244 -62.95036323 38.29959385 -60.26855469 36.17700195 C-56.32091199 34.86112105 -52.55766113 35.05399923 -48.44433594 35.0793457 C-47.15223457 35.08146812 -47.15223457 35.08146812 -45.83403015 35.08363342 C-43.08300299 35.08923055 -40.33205724 35.1017825 -37.58105469 35.11450195 C-35.71582149 35.11951733 -33.85058701 35.12408017 -31.98535156 35.12817383 C-27.41305457 35.13919904 -22.84081843 35.15646168 -18.26855469 35.17700195 C-18.28426514 34.57227051 -18.29997559 33.96753906 -18.31616211 33.34448242 C-18.37887349 30.580419 -18.4176588 27.81650575 -18.45605469 25.05200195 C-18.48119141 24.10067383 -18.50632813 23.1493457 -18.53222656 22.16918945 C-18.6009882 15.56807229 -17.99861536 11.11071635 -13.33105469 6.0949707 C-12.65042969 5.52391602 -11.96980469 4.95286133 -11.26855469 4.36450195 C-10.58792969 3.78055664 -9.90730469 3.19661133 -9.20605469 2.5949707 C-6.19638308 0.39232797 -3.61801862 0.04724429 0 0 Z M-1.26855469 19.17700195 C-1.26855469 24.45700195 -1.26855469 29.73700195 -1.26855469 35.17700195 C11.27144531 35.17700195 23.81144531 35.17700195 36.73144531 35.17700195 C36.73144531 29.89700195 36.73144531 24.61700195 36.73144531 19.17700195 C34.24293858 16.68849522 32.76934471 16.93087865 29.37231445 16.89910889 C28.64520264 16.90315735 27.91809082 16.90720581 27.16894531 16.91137695 C26.42185303 16.9094635 25.67476074 16.90755005 24.9050293 16.90557861 C23.32470361 16.90421697 21.74436673 16.90791196 20.1640625 16.91625977 C17.74095609 16.92695995 15.31859108 16.91636416 12.89550781 16.90356445 C11.361652 16.90488605 9.82779666 16.90744845 8.29394531 16.91137695 C7.5668335 16.90732849 6.83972168 16.90328003 6.09057617 16.89910889 C1.95674898 16.80968693 1.95674898 16.80968693 -1.26855469 19.17700195 Z " fill="#E54937" transform="translate(64.2685546875,350.822998046875)"/>
<path d="M0 0 C3.92788198 1.45410209 7.41467245 3.30090967 11.0234375 5.421875 C11.598022 5.75873322 12.17260651 6.09559143 12.76460266 6.44265747 C13.99691295 7.166136 15.22821377 7.89133625 16.45858765 8.61810303 C18.39578222 9.76227467 20.33599456 10.90119493 22.27661133 12.03955078 C28.45231052 15.67056221 34.59484168 19.34498779 40.67578125 23.1328125 C41.69559082 23.76606445 42.71540039 24.39931641 43.76611328 25.05175781 C45.65518259 26.23072903 47.53815405 27.41955267 49.41357422 28.62011719 C57.71169889 33.8007919 65.67193538 36.58257218 75.5 36.4375 C76.23412109 36.42992676 76.96824219 36.42235352 77.72460938 36.41455078 C83.80175676 36.23084178 88.6804597 35.03298834 94 32 C94.77730469 31.57589844 95.55460937 31.15179688 96.35546875 30.71484375 C104.60956638 25.7513244 109.55096793 18.36418029 114 10 C123.23312149 15.5927498 131.89806509 21.90175705 140.61083984 28.26074219 C143.75621617 30.5505093 146.91464123 32.82188556 150.07348633 35.09301758 C153.04523744 37.23253967 156.00931132 39.38254766 158.97265625 41.53369141 C160.86117751 42.89959443 162.75781044 44.2534068 164.65625 45.60546875 C166.24953125 46.75982422 166.24953125 46.75982422 167.875 47.9375 C168.77992188 48.58589844 169.68484375 49.23429687 170.6171875 49.90234375 C176.5252755 55.10339827 178.62050637 61.14181472 179.375 68.8125 C179.16281522 74.89513033 177.16850007 80.54176296 173.12890625 85.12109375 C167.18623651 90.52454204 162.62667958 92.25997354 154.51171875 92.1953125 C153.80852005 92.1924826 153.10532135 92.18965271 152.3808136 92.18673706 C150.14953108 92.17560151 147.91865983 92.15050997 145.6875 92.125 C144.16862562 92.1149616 142.6497449 92.10583726 141.13085938 92.09765625 C137.42044079 92.07568413 133.71026058 92.04120047 130 92 C129.69980957 92.79003418 129.39961914 93.58006836 129.09033203 94.39404297 C127.9699486 97.0718246 127.0562035 98.26844074 124.875 100.125 C124.33617187 100.60195313 123.79734375 101.07890625 123.2421875 101.5703125 C116.09475471 106.1277348 109.45292203 106.43453854 101.203125 106.38818359 C99.46500549 106.39606903 99.46500549 106.39606903 97.69177246 106.40411377 C93.87770947 106.41727159 90.06406693 106.40859021 86.25 106.3984375 C83.59016404 106.40045944 80.93034063 106.40336769 78.27050781 106.40713501 C72.70242799 106.41258032 67.13446786 106.40543329 61.56640625 106.39111328 C55.14520804 106.37478902 48.72429569 106.38007841 42.3031044 106.3965925 C36.77247816 106.41024246 31.24193756 106.41210995 25.7112999 106.40427649 C22.41575421 106.39961916 19.12037095 106.40011352 15.8248291 106.40888596 C12.14864926 106.41652464 8.47301438 106.40486137 4.796875 106.38818359 C3.17573792 106.39729263 3.17573792 106.39729263 1.52185059 106.40658569 C-6.42670005 106.3399538 -13.49291005 105.25909514 -19.61328125 99.625 C-24.85010367 93.48832922 -26.86776355 86.97026424 -26.4765625 78.9609375 C-25.37572022 72.12127806 -22.53222644 66.85523686 -17.125 62.5 C-10.56036912 57.77566314 -3.25093726 57.68069535 4.52734375 57.5859375 C5.51626114 57.56657135 6.50517853 57.5472052 7.52406311 57.5272522 C10.66178951 57.46779378 13.79955328 57.42120644 16.9375 57.375 C19.07358311 57.33678916 21.20965133 57.29773564 23.34570312 57.2578125 C28.56366919 57.16212028 33.78172605 57.07697545 39 57 C28.52135615 47.90902275 28.52135615 47.90902275 17.6875 39.25 C-0.24893619 25.26280159 -0.24893619 25.26280159 -2 18 C-3.12095833 5.04346866 -3.12095833 5.04346866 0 0 Z " fill="#5E6D9B" transform="translate(185,366)"/>
<path d="M0 0 C2.0625 2.0625 2.0625 2.0625 3 4 C2.527707 7.4069683 1.09134432 9.54487424 -0.94921875 12.265625 C-1.55056641 13.07386719 -2.15191406 13.88210938 -2.77148438 14.71484375 C-3.40376953 15.55144531 -4.03605469 16.38804687 -4.6875 17.25 C-5.60692383 18.48169922 -5.60692383 18.48169922 -6.54492188 19.73828125 C-7.77112671 21.37928921 -9.00911527 23.01155867 -10.25878906 24.63476562 C-12.01421916 26.93383998 -12.01421916 26.93383998 -13.34277344 29.28710938 C-16.24161311 34.01258553 -18.62844643 35.56345765 -24.0546875 36.875 C-26.32230916 37.28369925 -28.59637235 37.65794867 -30.875 38 C-32.0403125 38.20238281 -33.205625 38.40476562 -34.40625 38.61328125 C-37.26719267 39.1057386 -40.12960151 39.5667323 -43 40 C-42.19369141 40.06993164 -41.38738281 40.13986328 -40.55664062 40.21191406 C-36.86938392 40.54124687 -33.18490917 40.89540061 -29.5 41.25 C-28.2315625 41.35957031 -26.963125 41.46914063 -25.65625 41.58203125 C-15.59571844 42.57760469 -8.33818716 44.83653158 -1 52 C1.84046433 57.79766006 2.0067628 64.05403036 0.41796875 70.28125 C-1.5367073 74.92248993 -4.57829993 78.30966898 -8.92825317 80.83953857 C-12.7254264 82.27405558 -16.14037388 82.3280951 -20.13623047 82.24316406 C-21.31767041 82.22960058 -21.31767041 82.22960058 -22.52297783 82.21576309 C-31.44097947 82.06121733 -40.31186034 81.36786499 -49.1953125 80.609375 C-50.96644614 80.46183517 -52.73759517 80.31447985 -54.50875854 80.16729736 C-58.18145565 79.85999763 -61.85355649 79.54643983 -65.52539062 79.22900391 C-70.21308324 78.82484832 -74.90231796 78.44307824 -79.59230232 78.06658554 C-83.23424339 77.77066107 -86.87479779 77.45979525 -90.5151329 77.14478302 C-92.2441253 76.99755099 -93.97357802 76.85561747 -95.70346451 76.71929169 C-98.11791394 76.52741496 -100.52967281 76.31457906 -102.94189453 76.09667969 C-103.64226334 76.04560562 -104.34263214 75.99453156 -105.06422424 75.94190979 C-111.24633307 75.34461745 -116.2510437 73.04208183 -121.1875 69.375 C-123.454663 66.40423469 -124.8968501 63.24393959 -126.49609375 59.875 C-128.78517376 55.4989925 -131.60460931 51.51538479 -134.42578125 47.46875 C-136 45 -136 45 -136 43 C-135.20827393 42.56131592 -134.41654785 42.12263184 -133.60083008 41.6706543 C-130.6465058 40.03316404 -127.69261679 38.39489393 -124.73901367 36.75610352 C-123.46379509 36.04876202 -122.18840686 35.34172625 -120.9128418 34.63500977 C-119.07295098 33.61556226 -117.23368538 32.59499456 -115.39453125 31.57421875 C-113.73707886 30.65515747 -113.73707886 30.65515747 -112.04614258 29.7175293 C-111.04091553 29.15074463 -110.03568848 28.58395996 -109 28 C-107.58509277 27.23175903 -107.58509277 27.23175903 -106.14160156 26.44799805 C-103.71141683 25.15559185 -103.71141683 25.15559185 -103.33984375 22.2578125 C-103.22769531 21.18273437 -103.11554688 20.10765625 -103 19 C-102.23584111 16.60900806 -101.42093501 14.23378583 -100.5625 11.875 C-100.13066406 10.67617188 -99.69882812 9.47734375 -99.25390625 8.2421875 C-98.28206157 5.72931807 -97.26816448 3.37117266 -96 1 C-95.56171875 1.37253906 -95.1234375 1.74507813 -94.671875 2.12890625 C-88.35262509 6.84265567 -83.53104179 6.0431041 -76 5 C-71.39184858 4.25207453 -66.81688361 3.37097671 -62.23828125 2.4609375 C-60.29565177 2.08637146 -58.35301913 1.71182102 -56.41021252 1.33817482 C-51.6803249 0.42668915 -46.95304388 -0.49797648 -42.22729492 -1.43066406 C-39.555148 -1.95750402 -36.88179204 -2.47722456 -34.20683289 -2.98959351 C-31.70486915 -3.4693242 -29.20488429 -3.95953279 -26.70735168 -4.46182251 C-16.46769694 -6.40853867 -8.45406559 -6.73157447 0 0 Z " fill="#FEB69E" transform="translate(441,272)"/>
<path d="M0 0 C18.81 0 37.62 0 57 0 C57.495 7.92 57.495 7.92 58 16 C60.44986932 18.44986932 61.137078 18.25631311 64.5 18.265625 C65.8303125 18.26949219 65.8303125 18.26949219 67.1875 18.2734375 C68.5796875 18.26183594 68.5796875 18.26183594 70 18.25 C70.928125 18.25773437 71.85625 18.26546875 72.8125 18.2734375 C73.699375 18.27085937 74.58625 18.26828125 75.5 18.265625 C76.72203125 18.26224121 76.72203125 18.26224121 77.96875 18.25878906 C80.22630451 18.18174293 80.22630451 18.18174293 82 16 C82.33 10.72 82.66 5.44 83 0 C101.81 0 120.62 0 140 0 C139.34431116 9.17964375 138.63989192 18.29807433 137.625 27.4375 C137.45484375 29.11489258 137.45484375 29.11489258 137.28125 30.82617188 C135.7723343 44.36628241 135.7723343 44.36628241 130.5 49.375 C127.07080193 51.60397875 124.50287804 52.12558272 120.50358582 52.14044189 C119.58257584 52.14615204 118.66156586 52.15186218 117.71264648 52.15774536 C116.70427734 52.15886322 115.6959082 52.15998108 114.65698242 52.16113281 C113.06144279 52.16858017 113.06144279 52.16858017 111.43367004 52.17617798 C107.90759641 52.19080741 104.38156777 52.19760294 100.85546875 52.203125 C98.40790302 52.20887581 95.96033731 52.21463355 93.51277161 52.22039795 C88.37724599 52.23091016 83.24173604 52.23675139 78.10620117 52.24023438 C71.52537983 52.24571949 64.94476536 52.2697472 58.3640089 52.29820633 C53.30682266 52.31682906 48.24968628 52.32203812 43.19246864 52.32357025 C40.76637961 52.32659813 38.34029149 52.33463115 35.91423607 52.34775543 C32.51973097 52.36480782 29.12573172 52.36293737 25.73120117 52.35644531 C24.72890472 52.3656601 23.72660828 52.37487488 22.69393921 52.3843689 C16.18049627 52.34534194 11.82825081 51.43543819 6.75 47.0625 C2.17020643 39.04786125 2.40324146 27.67982017 1.375 18.625 C1.2409375 17.48933594 1.106875 16.35367187 0.96875 15.18359375 C0.84242187 14.08402344 0.71609375 12.98445313 0.5859375 11.8515625 C0.4729834 10.87010254 0.3600293 9.88864258 0.24365234 8.87744141 C-0.00611908 5.92773595 0 2.96026148 0 0 Z " fill="#D03C2C" transform="translate(12,420)"/>
<path d="M0 0 C7.88027131 7.29601973 13.49209627 16.60625396 14.23828125 27.46875 C14.60744765 40.77529494 12.03674745 51.73582032 3 62 C-6.48270579 70.88577287 -17.49307356 75.63876587 -30.58984375 75.24609375 C-42.72452886 74.00705783 -52.79116818 69.21299401 -61.1796875 60.33203125 C-68.71293605 50.6810669 -72.16478528 39.13924656 -71 27 C-68.84705348 15.10833444 -63.22067246 4.05248156 -53.1640625 -2.984375 C-35.99543514 -13.44988589 -15.90272077 -13.07232827 0 0 Z " fill="#FFB69E" transform="translate(358,156)"/>
<path d="M0 0 C9.23312149 5.5927498 17.89806509 11.90175705 26.61083984 18.26074219 C29.75621617 20.5505093 32.91464123 22.82188556 36.07348633 25.09301758 C39.04523744 27.23253967 42.00931132 29.38254766 44.97265625 31.53369141 C46.86117751 32.89959443 48.75781044 34.2534068 50.65625 35.60546875 C51.7184375 36.37503906 52.780625 37.14460938 53.875 37.9375 C54.77992188 38.58589844 55.68484375 39.23429687 56.6171875 39.90234375 C62.5252755 45.10339827 64.62050637 51.14181472 65.375 58.8125 C65.16281522 64.89513033 63.16850007 70.54176296 59.12890625 75.12109375 C53.18623651 80.52454204 48.62667958 82.25997354 40.51171875 82.1953125 C39.80852005 82.1924826 39.10532135 82.18965271 38.3808136 82.18673706 C36.14953108 82.17560151 33.91865983 82.15050997 31.6875 82.125 C30.16862562 82.1149616 28.6497449 82.10583726 27.13085938 82.09765625 C23.42044079 82.07568413 19.71026058 82.04120047 16 82 C16.16008545 81.22889893 16.3201709 80.45779785 16.48510742 79.66333008 C17.77319681 73.0005671 18.06139634 66.03939155 14.58203125 60.02734375 C9.08138277 52.97836459 1.53568 47.50537567 -5.453125 42.0078125 C-12.06610505 36.79451227 -18.5454492 31.40786689 -25 26 C-22.6789509 23.43026707 -20.2831572 21.95624513 -17.25 20.3125 C-8.8934998 15.37401516 -4.29385802 8.5481413 0 0 Z " fill="#414B82" transform="translate(299,376)"/>
<path d="M0 0 C2.0625 2.0625 2.0625 2.0625 3 4 C2.527707 7.4069683 1.09134432 9.54487424 -0.94921875 12.265625 C-1.55056641 13.07386719 -2.15191406 13.88210938 -2.77148438 14.71484375 C-3.40376953 15.55144531 -4.03605469 16.38804687 -4.6875 17.25 C-5.60692383 18.48169922 -5.60692383 18.48169922 -6.54492188 19.73828125 C-7.77154429 21.37984804 -9.00961917 23.01291991 -10.2590332 24.63720703 C-12.01108955 26.93221312 -12.01108955 26.93221312 -13.34057617 29.26513672 C-16.17360176 33.85234298 -18.64664286 35.60437371 -23.83984375 37.1640625 C-26.19570279 37.6974392 -28.56302433 38.18179821 -30.9375 38.625 C-32.83870605 38.99915039 -32.83870605 38.99915039 -34.77832031 39.38085938 C-48.20681828 41.80882838 -61.15289421 40.85233638 -74.65039062 39.34375 C-77.60317179 39.04072406 -80.51933094 38.85741292 -83.484375 38.75 C-93.5057788 38.28142914 -93.5057788 38.28142914 -97.49609375 34.859375 C-99.41365765 32.28204565 -100.76368824 29.9603036 -102 27 C-102.42925781 26.02289063 -102.85851562 25.04578125 -103.30078125 24.0390625 C-104.18462964 20.1975315 -103.4459053 18.6379467 -101.75 15.125 C-99.59192495 10.40898858 -98.07146129 6.06508973 -97 1 C-96.48953125 1.37253906 -95.9790625 1.74507813 -95.453125 2.12890625 C-85.20041712 8.8004378 -73.54444121 4.70814048 -62.23828125 2.4609375 C-60.29565177 2.08637146 -58.35301913 1.71182102 -56.41021252 1.33817482 C-51.6803249 0.42668915 -46.95304388 -0.49797648 -42.22729492 -1.43066406 C-39.555148 -1.95750402 -36.88179204 -2.47722456 -34.20683289 -2.98959351 C-31.70486915 -3.4693242 -29.20488429 -3.95953279 -26.70735168 -4.46182251 C-16.46769694 -6.40853867 -8.45406559 -6.73157447 0 0 Z " fill="#F6A78D" transform="translate(441,272)"/>
<path d="M0 0 C7.99800317 5.95200236 12.53723168 14.41122307 17.5546875 22.828125 C19.79923862 26.57633577 22.12707913 30.2586597 24.5078125 33.921875 C25.14968506 34.91171387 25.79155762 35.90155273 26.45288086 36.92138672 C27.71770508 38.86497155 28.98918729 40.80424248 30.26782227 42.73876953 C30.84330811 43.62677246 31.41879395 44.51477539 32.01171875 45.4296875 C32.52822998 46.21585449 33.04474121 47.00202148 33.5769043 47.81201172 C34.6875 50 34.6875 50 34.6875 54 C33.95635986 54.40839111 33.22521973 54.81678223 32.47192383 55.23754883 C29.74126892 56.76329278 27.01100786 58.28973854 24.28100586 59.81665039 C22.52552811 60.79822596 20.76960323 61.77900173 19.01367188 62.75976562 C17.90185547 63.38173828 16.79003906 64.00371094 15.64453125 64.64453125 C14.11276245 65.50075073 14.11276245 65.50075073 12.55004883 66.37426758 C9.68339788 67.95328442 9.68339788 67.95328442 7.06518555 69.7722168 C4.6875 71 4.6875 71 2.51904297 70.89135742 C-0.88900201 69.23276342 -2.36689919 65.50023219 -4.1875 62.3125 C-5.15138007 60.67834896 -6.11764254 59.04560144 -7.0859375 57.4140625 C-7.60124023 56.54168945 -8.11654297 55.66931641 -8.64746094 54.77050781 C-11.60561736 49.84834373 -14.71382393 45.02196739 -17.8125 40.1875 C-18.99008559 38.34797768 -20.16719801 36.50815233 -21.34375 34.66796875 C-21.84455078 33.88703857 -22.34535156 33.1061084 -22.86132812 32.30151367 C-26.90769524 25.88410068 -29.56502035 20.84248538 -28.3125 13 C-23.10471691 0.81109388 -12.67054846 -3.82507123 0 0 Z " fill="#4699F1" transform="translate(302.3125,244)"/>
<path d="M0 0 C0.495 2.475 0.495 2.475 1 5 C-0.45449401 6.0055761 -1.91372443 7.00430435 -3.375 8 C-4.18710937 8.556875 -4.99921875 9.11375 -5.8359375 9.6875 C-8 11 -8 11 -10 11 C-11.01582883 18.96535187 -11.01582883 18.96535187 -8.53515625 26.3046875 C-6.36514218 28.16961049 -4.75264687 29.20377983 -2 30 C1.32841378 29.60363099 3.98384862 28.400356 7 27 C8.32546527 26.63663969 9.65730048 26.29333751 11 26 C11.185625 24.4221875 11.185625 24.4221875 11.375 22.8125 C11.91912842 19.49331662 12.36563926 16.92464554 14 14 C16.125 13.1875 16.125 13.1875 18 13 C21.33474017 19.39158532 22.40966541 25.43846733 20.23828125 32.46484375 C17.20118685 39.67944348 13.49398374 44.2753717 6.609375 48.06640625 C3.56138599 49.15692926 1.45901922 48.92096039 -1.75 48.6875 C-5.10198565 48.8280534 -7.16001198 49.19983139 -9.62744141 51.55029297 C-13.27403129 55.94073081 -16.33118319 60.73338885 -19.39648438 65.5390625 C-21.87977194 69.3501981 -24.59232168 72.98116407 -27.3125 76.625 C-28.22617939 77.86651171 -29.13903519 79.10863029 -30.05078125 80.3515625 C-30.69402344 81.22554688 -31.33726562 82.09953125 -32 83 C-34.16505459 81.95573251 -36.03005402 80.97673237 -37.9375 79.5 C-42.89666186 75.89333683 -48.05580656 75.49211188 -54 75 C-52.70626734 71.26758129 -51.23560621 68.89340397 -48.5 66.0625 C-44.45168018 61.66087227 -40.99939061 56.99853715 -37.59643555 52.09521484 C-35.30950175 48.80185134 -32.93331931 45.72789363 -30.3125 42.6875 C-28.14469697 39.82745735 -27.7094474 38.1913096 -28.125 34.625 C-28.41335267 33.08271005 -28.70512245 31.54105574 -29 30 C-29.77732251 21.76565136 -28.51471579 14.62828911 -23.421875 7.921875 C-16.55496185 0.56004919 -9.71322499 -0.47424426 0 0 Z " fill="#B3D7DC" transform="translate(471,240)"/>
<path d="M0 0 C10.01168818 5.65567549 15.16241839 13.45392119 18.2578125 24.34765625 C18.73828125 26.546875 18.73828125 26.546875 18.73828125 29.546875 C-5.68171875 29.546875 -30.10171875 29.546875 -55.26171875 29.546875 C-54.07457818 18.86260988 -51.60783147 11.6802777 -43.58984375 4.375 C-30.80757803 -5.66208113 -14.75824226 -6.6759012 0 0 Z " fill="#46738C" transform="translate(389.26171875,59.453125)"/>
<path d="M0 0 C0.85809265 -0.01283524 1.7161853 -0.02567047 2.60028076 -0.03889465 C3.52528381 -0.04628159 4.45028687 -0.05366852 5.40332031 -0.0612793 C6.83698944 -0.07338692 6.83698944 -0.07338692 8.29962158 -0.08573914 C10.32375275 -0.09957126 12.34790717 -0.11029731 14.37207031 -0.11816406 C17.45585797 -0.1353554 20.53856739 -0.17924704 23.62207031 -0.22338867 C25.59081245 -0.23351793 27.55956368 -0.2420333 29.52832031 -0.2487793 C30.9036795 -0.27504143 30.9036795 -0.27504143 32.30682373 -0.30183411 C39.22575017 -0.27858642 43.51216942 1.19500336 48.69238281 5.9934082 C49.39234375 6.85772461 49.39234375 6.85772461 50.10644531 7.73950195 C50.58855469 8.31829102 51.07066406 8.89708008 51.56738281 9.4934082 C53.78112733 12.69516621 53.85085194 15.51965482 53.82910156 19.2824707 C53.82426758 20.75683594 53.82426758 20.75683594 53.81933594 22.26098633 C53.80676758 23.79722656 53.80676758 23.79722656 53.79394531 25.36450195 C53.78943359 26.40026367 53.78492187 27.43602539 53.78027344 28.50317383 C53.76848557 31.06114116 53.75055013 33.61907881 53.73144531 36.17700195 C48.12144531 36.17700195 42.51144531 36.17700195 36.73144531 36.17700195 C36.29394531 27.73950195 36.29394531 27.73950195 36.16333008 25.07763672 C36.30457054 21.31729462 36.30457054 21.31729462 34.73144531 18.17700195 C32.22220378 18.07612983 29.74108147 18.03728163 27.23144531 18.04418945 C26.10512695 18.04275436 26.10512695 18.04275436 24.95605469 18.04129028 C23.36555905 18.04060857 21.77506064 18.04246224 20.18457031 18.04663086 C17.74179877 18.05197928 15.2992111 18.04668561 12.85644531 18.0402832 C11.31477824 18.04094399 9.77311128 18.04222515 8.23144531 18.04418945 C7.49603516 18.04216522 6.760625 18.04014099 6.00292969 18.03805542 C2.57898189 17.74643682 2.57898189 17.74643682 -0.26855469 19.17700195 C-0.50571424 22.03755609 -0.69046086 24.87427851 -0.83105469 27.73950195 C-0.97542969 30.52387695 -1.11980469 33.30825195 -1.26855469 36.17700195 C-6.87855469 36.17700195 -12.48855469 36.17700195 -18.26855469 36.17700195 C-18.34974105 32.63487112 -18.40914746 29.09461452 -18.45605469 25.55200195 C-18.48119141 24.55297852 -18.50632813 23.55395508 -18.53222656 22.5246582 C-18.5991947 15.78319923 -18.10144657 11.22121843 -13.33105469 6.0949707 C-12.65042969 5.52391602 -11.96980469 4.95286133 -11.26855469 4.36450195 C-10.58792969 3.78055664 -9.90730469 3.19661133 -9.20605469 2.5949707 C-6.19638308 0.39232797 -3.61801862 0.04724429 0 0 Z " fill="#45728C" transform="translate(64.2685546875,350.822998046875)"/>
<path d="M0 0 C0.66 0 1.32 0 2 0 C2.61875 1.03125 3.2375 2.0625 3.875 3.125 C7.46069223 8.47629144 13.26975556 10.50501318 19 13 C16.13243174 18.27086355 12.89940156 22.99394584 9.25 27.75 C8.18685781 29.15055442 7.12436071 30.55159875 6.0625 31.953125 C5.54429687 32.63568359 5.02609375 33.31824219 4.4921875 34.02148438 C1.26455728 38.30105167 -1.86710424 42.65080353 -5 47 C-7.16505459 45.95573251 -9.03005402 44.97673237 -10.9375 43.5 C-15.89666186 39.89333683 -21.05580656 39.49211188 -27 39 C-25.70626734 35.26758129 -24.23560621 32.89340397 -21.5 30.0625 C-16.48965229 24.61488558 -12.36647035 18.64546349 -8.13232422 12.59472656 C-6.18603392 9.85363811 -4.13033112 7.19767518 -2.05859375 4.55078125 C-0.80181778 2.86158383 -0.80181778 2.86158383 0 0 Z " fill="#88AFB8" transform="translate(444,276)"/>
<path d="M0 0 C0.886875 -0.00257813 1.77375 -0.00515625 2.6875 -0.0078125 C4.0796875 0.00378906 4.0796875 0.00378906 5.5 0.015625 C6.428125 0.00789063 7.35625 0.00015625 8.3125 -0.0078125 C9.6428125 -0.00394531 9.6428125 -0.00394531 11 0 C11.8146875 0.00225586 12.629375 0.00451172 13.46875 0.00683594 C15.5 0.265625 15.5 0.265625 17.5 2.265625 C17.6995697 4.82312953 17.77986826 7.27000641 17.765625 9.828125 C17.76753845 10.57521729 17.7694519 11.32230957 17.77142334 12.09204102 C17.77278498 13.67236671 17.76909 15.25270358 17.76074219 16.83300781 C17.750042 19.25611422 17.76063779 21.67847923 17.7734375 24.1015625 C17.7721159 25.63541831 17.7695535 27.16927365 17.765625 28.703125 C17.76967346 29.43023682 17.77372192 30.15734863 17.77789307 30.90649414 C17.72992361 36.03570139 17.72992361 36.03570139 15.5 38.265625 C13.46875 38.52441406 13.46875 38.52441406 11 38.53125 C10.113125 38.53382813 9.22625 38.53640625 8.3125 38.5390625 C7.384375 38.53132813 6.45625 38.52359375 5.5 38.515625 C4.571875 38.52335937 3.64375 38.53109375 2.6875 38.5390625 C1.3571875 38.53519531 1.3571875 38.53519531 0 38.53125 C-0.8146875 38.52899414 -1.629375 38.52673828 -2.46875 38.52441406 C-4.5 38.265625 -4.5 38.265625 -6.5 36.265625 C-6.6995697 33.70812047 -6.77986826 31.26124359 -6.765625 28.703125 C-6.76753845 27.95603271 -6.7694519 27.20894043 -6.77142334 26.43920898 C-6.77278498 24.85888329 -6.76909 23.27854642 -6.76074219 21.69824219 C-6.750042 19.27513578 -6.76063779 16.85277077 -6.7734375 14.4296875 C-6.7721159 12.89583169 -6.7695535 11.36197635 -6.765625 9.828125 C-6.76967346 9.10101318 -6.77372192 8.37390137 -6.77789307 7.62475586 C-6.72402818 1.86517159 -5.85532383 0.01621332 0 0 Z " fill="#6C9BAA" transform="translate(76.5,400.734375)"/>
<path d="M0 0 C0.886875 -0.00257813 1.77375 -0.00515625 2.6875 -0.0078125 C4.0796875 0.00378906 4.0796875 0.00378906 5.5 0.015625 C6.428125 0.00789063 7.35625 0.00015625 8.3125 -0.0078125 C9.6428125 -0.00394531 9.6428125 -0.00394531 11 0 C11.8146875 0.00225586 12.629375 0.00451172 13.46875 0.00683594 C15.5 0.265625 15.5 0.265625 17.5 2.265625 C17.64557157 5.18287918 17.68598967 7.97877305 17.625 10.890625 C17.58375 13.654375 17.5425 16.418125 17.5 19.265625 C9.58 19.265625 1.66 19.265625 -6.5 19.265625 C-6.54125 16.501875 -6.5825 13.738125 -6.625 10.890625 C-6.64320801 10.02131348 -6.66141602 9.15200195 -6.68017578 8.25634766 C-6.69473738 6.25859022 -6.59956726 4.26095283 -6.5 2.265625 C-4.05013068 -0.18424432 -3.362922 0.00931189 0 0 Z " fill="#87AEB8" transform="translate(76.5,400.734375)"/>
<path d="M0 0 C5.61 0 11.22 0 17 0 C17 6.93 17 13.86 17 21 C11.39 21 5.78 21 0 21 C0 14.07 0 7.14 0 0 Z " fill="#46738C" transform="translate(475,199)"/>
<path d="M0 0 C5.61 0 11.22 0 17 0 C17 1.98 17 3.96 17 6 C11.39 6 5.78 6 0 6 C0 4.02 0 2.04 0 0 Z " fill="#405063" transform="translate(101,381)"/>
<path d="M0 0 C5.61 0 11.22 0 17 0 C17 1.98 17 3.96 17 6 C11.39 6 5.78 6 0 6 C0 4.02 0 2.04 0 0 Z " fill="#405063" transform="translate(46,381)"/>
</svg>
